<svg version="1.1" id="Layer_1" xmlns="http://www.w3.org/2000/svg" xmlns:xlink="http://www.w3.org/1999/xlink" x="0px" y="0px"
	 width="100%" viewBox="0 0 1100 305" enable-background="new 0 0 1100 305" xml:space="preserve">
<path fill="#FFFFFF" opacity="1.000000" stroke="none" 
	d="
M724.000000,306.000000 
	C482.709473,306.000000 241.918976,306.000000 1.064230,306.000000 
	C1.064230,204.394272 1.064230,102.788475 1.064230,1.091345 
	C367.666656,1.091345 734.333313,1.091345 1100.966309,1.091345 
	C1100.966309,102.747765 1100.966309,204.373886 1100.966309,306.000000 
	C975.455078,306.000000 849.977539,306.000000 724.000000,306.000000 
M286.782562,263.986633 
	C296.210297,256.735382 305.638000,249.484146 315.640076,241.867905 
	C319.233673,237.990753 323.287781,234.440063 326.318970,230.164200 
	C331.602386,222.711243 336.255554,214.811447 341.754822,206.706299 
	C342.608643,204.941757 343.444397,203.168198 344.319275,201.414169 
	C349.880981,190.263977 353.583160,178.549881 355.764923,165.695328 
	C356.182343,154.651428 356.996185,143.602737 356.862366,132.565521 
	C356.787079,126.355820 355.147797,120.165092 354.020386,113.155403 
	C352.024902,106.186806 350.698914,98.931229 347.865692,92.321724 
	C344.266235,83.924744 339.444611,76.051659 335.023743,67.239410 
	C325.973145,53.048992 314.952850,40.697781 300.805817,30.328768 
	C291.563812,25.061090 282.527374,19.376856 273.004730,14.677861 
	C267.041809,11.735430 260.347321,10.275580 253.266373,7.798108 
	C241.783020,4.448116 230.056946,3.009033 218.099960,2.954527 
	C209.269577,2.914274 203.842133,9.581219 203.867432,17.379875 
	C204.094299,87.263168 203.995316,157.147491 204.005692,227.031525 
	C204.006927,235.348480 204.089035,243.665451 203.971832,252.865036 
	C204.000595,254.968018 204.029373,257.070984 203.886337,259.362549 
	C203.819717,259.642120 203.886719,259.872101 204.061203,260.488129 
	C204.061203,260.488129 204.134476,260.918335 203.975876,261.561005 
	C204.015610,262.000122 204.055344,262.439209 204.024704,263.809235 
	C204.017548,265.304565 204.004745,266.799866 204.004150,268.295197 
	C204.000412,277.799347 208.152969,282.122040 217.515091,281.957458 
	C223.786713,281.847168 230.091156,281.693420 236.312027,280.968140 
	C254.077835,278.896973 270.734070,273.366913 286.782562,263.986633 
z"/>
<path fill="#284583" opacity="1.000000" stroke="none" 
	d="
M204.058136,259.173981 
	C204.029373,257.070984 204.000595,254.968018 204.418945,252.346497 
	C205.198700,251.478821 205.752563,251.173965 205.832504,250.774292 
	C212.575241,217.070236 219.272690,183.357117 225.992279,149.648422 
	C232.808823,115.453468 239.667221,81.266853 246.460495,47.067284 
	C249.034622,34.108379 251.478073,21.123526 253.981079,8.150499 
	C260.347321,10.275580 267.041809,11.735430 273.004730,14.677861 
	C282.527374,19.376856 291.563812,25.061090 300.644714,30.796112 
	C300.060791,31.763058 299.478851,32.196106 299.238037,32.771854 
	C289.259949,56.628216 279.293823,80.489639 269.365387,104.366722 
	C253.900116,141.559464 238.441742,178.755127 223.025558,215.968246 
	C217.639420,228.969849 212.386673,242.026718 206.928116,255.349792 
	C206.607880,256.462158 206.432556,257.283051 205.698273,258.352570 
	C204.778915,258.792114 204.418533,258.983063 204.058136,259.173981 
z"/>
<path fill="#103075" opacity="1.000000" stroke="none" 
	d="
M253.623718,7.974304 
	C251.478073,21.123526 249.034622,34.108379 246.460495,47.067284 
	C239.667221,81.266853 232.808823,115.453468 225.992279,149.648422 
	C219.272690,183.357117 212.575241,217.070236 205.832504,250.774292 
	C205.752563,251.173965 205.198700,251.478821 204.499847,251.905182 
	C204.089035,243.665451 204.006927,235.348480 204.005692,227.031525 
	C203.995316,157.147491 204.094299,87.263168 203.867432,17.379875 
	C203.842133,9.581219 209.269577,2.914274 218.099960,2.954527 
	C230.056946,3.009033 241.783020,4.448116 253.623718,7.974304 
z"/>
<path fill="#405991" opacity="1.000000" stroke="none" 
	d="
M207.073029,255.058350 
	C212.386673,242.026718 217.639420,228.969849 223.025558,215.968246 
	C238.441742,178.755127 253.900116,141.559464 269.365387,104.366722 
	C279.293823,80.489639 289.259949,56.628216 299.238037,32.771854 
	C299.478851,32.196106 300.060791,31.763058 300.812378,31.108274 
	C314.952850,40.697781 325.973145,53.048992 334.766693,67.735344 
	C333.557953,69.363335 332.491272,70.418175 331.671387,71.638748 
	C310.748932,102.785439 289.853241,133.950073 268.950897,165.110260 
	C249.616776,193.932648 230.295135,222.763474 210.900024,251.544769 
	C209.958878,252.941391 208.363663,253.897247 207.073029,255.058350 
z"/>
<path fill="#586F9F" opacity="1.000000" stroke="none" 
	d="
M206.928101,255.349792 
	C208.363663,253.897247 209.958878,252.941391 210.900024,251.544769 
	C230.295135,222.763474 249.616776,193.932648 268.950897,165.110260 
	C289.853241,133.950073 310.748932,102.785439 331.671387,71.638748 
	C332.491272,70.418175 333.557953,69.363335 334.829803,68.091980 
	C339.444611,76.051659 344.266235,83.924744 347.865692,92.321724 
	C350.698914,98.931229 352.024902,106.186806 353.754089,113.587921 
	C351.825836,115.345306 350.017517,116.523666 348.523193,118.016335 
	C302.981689,163.507126 257.481506,209.039337 211.910599,254.500610 
	C210.365555,256.041962 208.156693,256.917877 206.257233,258.103973 
	C206.432556,257.283051 206.607880,256.462158 206.928101,255.349792 
z"/>
<path fill="#7083AC" opacity="1.000000" stroke="none" 
	d="
M205.698273,258.352570 
	C208.156693,256.917877 210.365555,256.041962 211.910599,254.500610 
	C257.481506,209.039337 302.981689,163.507126 348.523193,118.016335 
	C350.017517,116.523666 351.825836,115.345306 353.850464,113.993126 
	C355.147797,120.165092 356.787079,126.355820 356.862366,132.565521 
	C356.996185,143.602737 356.182343,154.651428 355.376129,165.564514 
	C353.303406,160.103882 351.035278,165.138519 350.250549,165.656509 
	C312.026764,190.887390 273.918182,216.293167 235.851013,241.760574 
	C227.476318,247.363342 219.302353,253.266159 210.699097,259.086853 
	C209.924026,259.841034 209.485825,260.539215 208.710159,261.240051 
	C206.946808,261.787964 205.520935,262.333130 204.095062,262.878326 
	C204.055344,262.439209 204.015610,262.000122 204.223633,261.167328 
	C204.343353,260.533264 204.215347,260.292877 204.087341,260.052490 
	C203.886719,259.872101 203.819717,259.642120 203.972229,259.268250 
	C204.418533,258.983063 204.778915,258.792114 205.698273,258.352570 
z"/>
<path fill="#8898BA" opacity="1.000000" stroke="none" 
	d="
M211.035950,259.030792 
	C219.302353,253.266159 227.476318,247.363342 235.851013,241.760574 
	C273.918182,216.293167 312.026764,190.887390 350.250549,165.656509 
	C351.035278,165.138519 353.303406,160.103882 355.014038,165.793106 
	C353.583160,178.549881 349.880981,190.263977 344.319275,201.414169 
	C343.444397,203.168198 342.608643,204.941757 341.067383,206.874664 
	C339.576447,207.208267 338.721436,207.248856 337.976837,207.556656 
	C302.926666,222.045074 267.906494,236.606369 232.827469,251.024460 
	C225.675018,253.964264 218.305435,256.375763 211.035950,259.030792 
z"/>
<path fill="#9EABC8" opacity="1.000000" stroke="none" 
	d="
M210.699097,259.086853 
	C218.305435,256.375763 225.675018,253.964264 232.827469,251.024460 
	C267.906494,236.606369 302.926666,222.045074 337.976837,207.556656 
	C338.721436,207.248856 339.576447,207.208267 340.776428,207.070984 
	C336.255554,214.811447 331.602386,222.711243 326.318970,230.164200 
	C323.287781,234.440063 319.233673,237.990753 315.146515,241.748505 
	C314.182953,241.552383 313.684631,241.332794 313.246979,241.419434 
	C288.462341,246.324753 263.673492,251.209763 238.907516,256.208099 
	C229.911011,258.023804 220.970306,260.116150 211.677155,262.075195 
	C210.582642,261.791229 209.815140,261.514313 209.047638,261.237366 
	C209.485825,260.539215 209.924026,259.841034 210.699097,259.086853 
z"/>
<path fill="#CED5E2" opacity="1.000000" stroke="none" 
	d="
M208.710159,261.240051 
	C209.815140,261.514313 210.582642,261.791229 211.980240,262.356201 
	C214.418808,262.766479 216.227188,262.992889 218.035812,262.995087 
	C238.632065,263.019958 259.228485,262.979523 279.824463,263.057800 
	C281.914337,263.065735 284.001678,263.733215 286.090210,264.094635 
	C270.734070,273.366913 254.077835,278.896973 236.312027,280.968140 
	C230.091156,281.693420 223.786713,281.847168 217.515091,281.957458 
	C208.152969,282.122040 204.000412,277.799347 204.004150,268.295197 
	C204.004745,266.799866 204.017548,265.304565 204.059875,263.343781 
	C205.520935,262.333130 206.946808,261.787964 208.710159,261.240051 
z"/>
<path fill="#B7C0D5" opacity="1.000000" stroke="none" 
	d="
M286.436401,264.040649 
	C284.001678,263.733215 281.914337,263.065735 279.824463,263.057800 
	C259.228485,262.979523 238.632065,263.019958 218.035812,262.995087 
	C216.227188,262.992889 214.418808,262.766479 212.307236,262.363220 
	C220.970306,260.116150 229.911011,258.023804 238.907516,256.208099 
	C263.673492,251.209763 288.462341,246.324753 313.246979,241.419434 
	C313.684631,241.332794 314.182953,241.552383 314.859344,241.931000 
	C305.638000,249.484146 296.210297,256.735382 286.436401,264.040649 
z"/>
<path fill="#284583" opacity="1.000000" stroke="none" 
	d="
M204.074280,260.270325 
	C204.215347,260.292877 204.343353,260.533264 204.302917,260.846008 
	C204.134476,260.918335 204.061203,260.488129 204.074280,260.270325 
z"/>
</svg>