<?xml version="1.0" encoding="UTF-8"?>
<svg version="1.1" xmlns="http://www.w3.org/2000/svg" width="2000" height="2000">
<path d="M0 0 C1.19302734 0.36883301 1.19302734 0.36883301 2.41015625 0.74511719 C29.15398858 9.18998025 53.09732482 22.59033147 75 40 C75.55993652 40.44279297 76.11987305 40.88558594 76.69677734 41.34179688 C90.56750464 52.41174425 103.23824373 65.00655012 113.75732422 79.31298828 C114.97864961 80.97101549 116.22377916 82.60876498 117.47265625 84.24609375 C138.9652706 112.86744653 152.26913859 146.80787841 158 182 C158.11714355 182.68674805 158.23428711 183.37349609 158.35498047 184.08105469 C167.46705533 239.674189 152.42343141 299.70801702 119.9375 345.375 C99.50971993 373.5082385 74.24527201 396.81445664 44 414 C43.42378906 414.33596191 42.84757813 414.67192383 42.25390625 415.01806641 C12.23162421 432.47149624 -23.84826747 442.02659462 -58.5 442.3125 C-59.67175781 442.34150391 -60.84351563 442.37050781 -62.05078125 442.40039062 C-69.68352359 442.45607281 -76.71330506 441.92897353 -82.57983398 436.55200195 C-87.08046729 431.40714924 -88.24977412 427.72756124 -88.25726891 420.95524216 C-88.26077498 420.24221823 -88.26428105 419.5291943 -88.26789337 418.79456359 C-88.27723546 416.39297444 -88.27227688 413.99162628 -88.26742554 411.59002686 C-88.27116039 409.8557332 -88.27576125 408.12144124 -88.28115618 406.38715196 C-88.29342212 401.61155248 -88.29312149 396.83602286 -88.29076743 392.06041121 C-88.29036017 386.91371178 -88.3013898 381.76703501 -88.31088257 376.62034607 C-88.32751357 366.53293938 -88.33299308 356.44555605 -88.33410732 346.3581368 C-88.33505687 338.15987925 -88.33916247 329.96162943 -88.34550858 321.76337433 C-88.36312724 298.53042885 -88.37234655 275.29750186 -88.37084763 252.06454965 C-88.37076772 250.81138792 -88.3706878 249.55822618 -88.37060547 248.26708984 C-88.37052371 247.01240151 -88.37044195 245.75771318 -88.37035771 244.465004 C-88.36954478 224.13017202 -88.38868254 203.79541411 -88.4168822 183.46060356 C-88.44559508 162.591364 -88.45942335 141.72216057 -88.45769465 120.85290074 C-88.45703016 109.13225634 -88.46254803 97.41168956 -88.48405075 85.69106293 C-88.5022416 75.71149952 -88.50662717 65.73204892 -88.4930319 55.75247613 C-88.48649149 50.65985816 -88.48642376 45.56745675 -88.5037384 40.47485924 C-88.51942684 35.8126352 -88.51664879 31.15080017 -88.49917014 26.48858586 C-88.49609089 24.80216607 -88.49976735 23.11571755 -88.51089029 21.42933163 C-88.61608212 4.34928532 -88.61608212 4.34928532 -82.25390625 -3.0234375 C-81.69574219 -3.46945312 -81.13757813 -3.91546875 -80.5625 -4.375 C-80.00691406 -4.83648438 -79.45132812 -5.29796875 -78.87890625 -5.7734375 C-59.68293564 -18.30469482 -20.40035697 -6.32965235 0 0 Z " fill="#274482" transform="translate(526,766)"/>
<path d="M0 0 C0.66 0 1.32 0 2 0 C18.4320653 27.23502071 29.87424266 55.52370656 35 87 C35.11714355 87.68674805 35.23428711 88.37349609 35.35498047 89.08105469 C44.46705533 144.674189 29.42343141 204.70801702 -3.0625 250.375 C-23.49028007 278.5082385 -48.75472799 301.81445664 -79 319 C-79.57621094 319.33596191 -80.15242187 319.67192383 -80.74609375 320.01806641 C-110.76837579 337.47149624 -146.84826747 347.02659462 -181.5 347.3125 C-182.67175781 347.34150391 -183.84351563 347.37050781 -185.05078125 347.40039062 C-192.68352359 347.45607281 -199.71330506 346.92897353 -205.57983398 341.55200195 C-211.2776197 335.03863676 -212.1617701 328.46216408 -211.81787109 320.06542969 C-210.77969593 310.55745079 -204.26901235 303.12426767 -198.8125 295.625 C-197.54474513 293.81748796 -196.28164996 292.00669981 -195.02294922 290.19287109 C-192.38357047 286.39388216 -189.72683167 282.60792292 -187.06005859 278.828125 C-180.34447595 269.25266758 -174.01270068 259.42052791 -167.625 249.625 C-160.88823975 239.31390483 -154.09675411 229.0610985 -146.99609375 218.99609375 C-140.53623647 209.8392241 -134.34041759 200.52706654 -128.20962524 191.14755249 C-117.70087924 175.076875 -107.07098175 159.09194868 -96.3125 143.1875 C-87.16053062 129.65633694 -78.04660745 116.10185627 -69 102.5 C-59.6774433 88.48520165 -50.29497314 74.51200483 -40.875 60.5625 C-30.86639051 45.74128441 -20.8905634 30.90034877 -11 16 C-9.47090618 13.6965334 -7.94160189 11.39321113 -6.41088867 9.09082031 C-5.54794861 7.79273847 -4.68603368 6.49397419 -3.82543945 5.19433594 C-1.11227341 1.11227341 -1.11227341 1.11227341 0 0 Z " fill="#576E9E" transform="translate(649,861)"/>
<path d="M0 0 C15.84 0 31.68 0 48 0 C49.28936131 3.86808393 50.34031209 7.21231468 51.10694885 11.13638306 C51.30177856 12.12330643 51.49660828 13.1102298 51.69734192 14.12705994 C51.90364731 15.19324051 52.1099527 16.25942108 52.32250977 17.35791016 C52.54552765 18.4935289 52.76854553 19.62914764 52.99832153 20.79917908 C53.7330401 24.54509474 54.46220277 28.2920697 55.19140625 32.0390625 C55.70144329 34.64414771 56.21181116 37.24916583 56.72264099 39.85409546 C57.92861099 46.00736655 59.13072611 52.16138366 60.33129591 58.31571043 C62.09378028 67.34979652 63.86117083 76.38292303 65.62964535 85.41583824 C65.75944509 86.07882254 65.88924482 86.74180684 66.02297789 87.42488158 C66.28180279 88.74686119 66.54064143 90.06883812 66.79949421 91.39081228 C67.67852302 95.88093594 68.5552321 100.37150894 69.43128967 104.86221313 C69.88979879 107.20843947 70.34832932 109.55466162 70.80688477 111.90087891 C71.01521439 112.97110794 71.22354401 114.04133698 71.43818665 115.14399719 C71.63019653 116.12528091 71.82220642 117.10656464 72.02003479 118.11758423 C72.18612527 118.96890238 72.35221575 119.82022053 72.52333927 120.6973362 C72.96175787 122.81525903 73.45803746 124.90646125 74 127 C76.71387506 116.03507235 79.42692251 105.06994025 82.13902187 94.10457325 C83.39951405 89.0083427 84.6602513 83.9121731 85.92163086 78.81616211 C87.14208937 73.88537894 88.36192108 68.95444113 89.58122635 64.02337265 C90.06599867 62.0630416 90.55092036 60.10274748 91.03599167 58.14249039 C93.61484955 47.71877714 96.17878889 37.29186441 98.69580078 26.85302734 C98.90704747 25.97824958 99.11829416 25.10347181 99.33594227 24.20218563 C100.32877086 20.08981471 101.3179779 15.97664018 102.30039978 11.86177063 C102.64682915 10.42303307 102.99338394 8.98432571 103.34008789 7.5456543 C103.63830948 6.29874313 103.93653107 5.05183197 104.24378967 3.76713562 C105 1 105 1 106 0 C107.5348297 -0.09319449 109.07392082 -0.117458 110.61157227 -0.11352539 C111.59251358 -0.11344986 112.5734549 -0.11337433 113.5841217 -0.11329651 C114.6507756 -0.10813522 115.7174295 -0.10297394 116.81640625 -0.09765625 C118.44569313 -0.09553383 118.44569313 -0.09553383 120.1078949 -0.09336853 C123.59279075 -0.08775048 127.07762342 -0.07519492 130.5625 -0.0625 C132.91861887 -0.05748733 135.27473874 -0.05292402 137.63085938 -0.04882812 C143.42059464 -0.03777519 149.21029281 -0.02101951 155 0 C156.98595094 4.47651212 158.05592858 9.03289283 159.15136719 13.78393555 C159.35660004 14.6597377 159.56183289 15.53553986 159.77328491 16.43788147 C160.45157143 19.33663084 161.12424611 22.23665183 161.796875 25.13671875 C162.27255408 27.17486743 162.74857309 29.21293681 163.22491455 31.25093079 C164.48210075 36.63402477 165.7345029 42.01822105 166.98596191 47.40264893 C168.23765813 52.78410273 169.49409675 58.16444867 170.75 63.54492188 C178.41133559 96.38499796 178.41133559 96.38499796 181.00585938 107.78369141 C181.28923157 109.02560745 181.57260376 110.2675235 181.86456299 111.54707336 C182.36364182 113.73998807 182.8596257 115.93361067 183.35174561 118.12809753 C183.56083557 119.04722427 183.76992554 119.96635101 183.98535156 120.91333008 C184.15987854 121.68985428 184.33440552 122.46637848 184.51422119 123.26643372 C184.85142615 125.01478747 184.85142615 125.01478747 186 126 C186.19188227 125.03505788 186.19188227 125.03505788 186.38764095 124.05062199 C189.49635398 108.41883093 192.60929261 92.78788831 195.72697353 77.15788364 C197.23453943 69.59940353 198.74065834 62.0406404 200.2434082 54.48120117 C201.55276439 47.89462931 202.86479759 41.30859748 204.18008763 34.72320789 C204.87682983 31.23426907 205.57220184 27.74506944 206.26437187 24.25522041 C207.03593225 20.36535597 207.81346723 16.47669955 208.59155273 12.58813477 C208.82172592 11.42288773 209.05189911 10.25764069 209.28904724 9.05708313 C209.50077576 8.00393921 209.71250427 6.95079529 209.9306488 5.86573792 C210.20580401 4.48443113 210.20580401 4.48443113 210.48651791 3.07521915 C211 1 211 1 212 0 C213.50418739 -0.09311889 215.01271356 -0.11746028 216.51977539 -0.11352539 C217.96115623 -0.11341209 217.96115623 -0.11341209 219.43165588 -0.11329651 C220.99882607 -0.10555458 220.99882607 -0.10555458 222.59765625 -0.09765625 C223.66165146 -0.0962413 224.72564667 -0.09482635 225.82188416 -0.09336853 C229.23545083 -0.08775064 232.648953 -0.07519511 236.0625 -0.0625 C238.37044176 -0.05748731 240.67838455 -0.052924 242.98632812 -0.04882812 C248.65757426 -0.0377754 254.32878253 -0.02101987 260 0 C259.35617112 5.12975702 258.32415083 10.05868969 257.01660156 15.06225586 C256.81569129 15.84341168 256.61478102 16.62456751 256.40778255 17.42939472 C255.73904505 20.02550127 255.0648783 22.62016475 254.390625 25.21484375 C253.91061851 27.07306413 253.43091488 28.93136277 252.95149231 30.78973389 C251.65777019 35.80006447 250.35909047 40.80909742 249.05922318 45.81783676 C247.97961597 49.97986648 246.9026083 54.14256719 245.82549 58.30524158 C238.51175078 86.56649826 231.15298116 114.81609332 223.75230408 143.05470657 C223.06172216 145.69046882 222.37180849 148.32640528 221.68200684 150.96237183 C220.60543501 155.07525831 219.5264231 159.18749674 218.44534874 163.29920197 C218.05090654 164.8005804 217.65718528 166.30214845 217.26423073 167.80391693 C216.73172757 169.83818208 216.19646265 171.87169962 215.66040039 173.9050293 C215.36194717 175.04127243 215.06349396 176.17751556 214.7559967 177.34819031 C214 180 214 180 213 182 C194.85 182 176.7 182 158 182 C151.50567452 156.18305178 145.06347464 130.35458528 138.76760864 104.48858643 C138.09005939 101.70552221 137.40981411 98.92313836 136.7272644 96.14129639 C135.76462461 92.21689619 134.81151388 88.2902425 133.859375 84.36328125 C133.56932083 83.18511337 133.27926666 82.0069455 132.98042297 80.79307556 C132.5874427 79.16167381 132.5874427 79.16167381 132.18652344 77.49731445 C131.95624451 76.551772 131.72596558 75.60622955 131.4887085 74.6320343 C131.0042221 72.02273894 130.90897281 69.64696215 131 67 C130.34 67 129.68 67 129 67 C128.83269127 68.64802612 128.83269127 68.64802612 128.66200256 70.3293457 C128.00206959 75.573598 126.71774313 80.61622874 125.40795898 85.73046875 C125.01272034 87.29766914 125.01272034 87.29766914 124.60949707 88.89653015 C123.74290106 92.3280197 122.86954564 95.75774976 121.99609375 99.1875 C121.3917578 101.57492665 120.78784641 103.96246081 120.18434143 106.35009766 C118.59885114 112.61796193 117.0076128 118.88435297 115.41516113 125.15045166 C113.50349086 132.67766828 111.59898571 140.20670057 109.69327545 147.73542786 C106.80099503 159.15835004 103.89963933 170.57893225 101 182 C82.85 182 64.7 182 46 182 C42.62503299 171.87509897 42.62503299 171.87509897 41.63249207 167.92196655 C41.40458984 167.02145065 41.17668762 166.12093475 40.94187927 165.19313049 C40.70348831 164.23656052 40.46509735 163.27999054 40.21948242 162.29443359 C39.95867889 161.25980484 39.69787537 160.22517609 39.4291687 159.15919495 C38.56804413 155.73974449 37.71178091 152.31909597 36.85546875 148.8984375 C36.24343149 146.46465051 35.631064 144.03094654 35.01838684 141.59732056 C33.56291313 135.81304682 32.11039366 130.02803948 30.65943366 124.24263251 C27.96135609 113.48520185 25.25596765 102.72960743 22.55133438 91.97382355 C21.60619377 88.21382183 20.66203795 84.45357379 19.71798706 80.69329834 C16.64724149 68.4695605 13.5604535 56.2501927 10.43437088 44.0404985 C9.93370025 42.08487211 9.43342971 40.12914378 8.93326664 38.17338753 C7.36189698 32.03060648 5.78687609 25.8888054 4.20536804 19.74862671 C3.64629314 17.56634048 3.08735092 15.38402026 2.52856445 13.20166016 C2.14159739 11.70804396 2.14159739 11.70804396 1.74681282 10.18425369 C1.514932 9.2757806 1.28305119 8.36730751 1.04414368 7.43130493 C0.84124379 6.64300104 0.63834391 5.85469715 0.42929554 5.04250526 C0 3 0 3 0 0 Z " fill="#FFFFFF" transform="translate(1102,813)"/>
<path d="M0 0 C14.85 0 29.7 0 45 0 C52.13165285 10.69747928 59.25492373 21.39573665 66.30673218 32.14529419 C68.25240551 35.11108605 70.19968656 38.07582132 72.14680481 41.04066467 C73.69957636 43.40510771 75.25213575 45.76968997 76.8046875 48.13427734 C81.72869795 55.63301179 86.65578653 63.12972097 91.58486938 70.62512207 C92.63146564 72.2168492 93.67784183 73.80872105 94.72396851 75.40075684 C95.21877716 76.15377075 95.71358582 76.90678467 96.22338867 77.68261719 C96.86566658 78.66026031 96.86566658 78.66026031 97.5209198 79.65765381 C103.97584504 89.4651742 110.4867047 99.23005706 117 109 C117.33 73.03 117.66 37.06 118 0 C132.85 0 147.7 0 163 0 C163 60.06 163 120.12 163 182 C147.82 182 132.64 182 117 182 C103.34506591 166.43479016 103.34506591 166.43479016 100.13671875 159.1640625 C95.07042798 148.62532346 88.7146984 139.12893279 82.16546631 129.46444702 C79.02549991 124.80982679 75.95182991 120.11190259 72.87109375 115.41796875 C65.10231136 103.6198453 57.27561367 91.86076353 49.41918945 80.12084961 C48.27773631 78.41505166 47.13850941 76.70776411 46 75 C45.67 110.31 45.34 145.62 45 182 C30.15 182 15.3 182 0 182 C0 121.94 0 61.88 0 0 Z " fill="#FFFFFF" transform="translate(1383,813)"/>
<path d="M0 0 C110.93027523 0 110.93027523 0 137 24 C137.928125 24.79083984 137.928125 24.79083984 138.875 25.59765625 C154.86902007 40.07372534 162.41783323 62.49854024 163.875 83.4453125 C163.91625 84.28835938 163.9575 85.13140625 164 86 C164.04125 86.76054688 164.0825 87.52109375 164.125 88.3046875 C164.75724902 111.77693249 158.16218575 133.92342818 143 152 C142.236875 153.010625 141.47375 154.02125 140.6875 155.0625 C125.85745348 171.27208573 106.02523468 178.17723006 85 182 C56.95 182 28.9 182 0 182 C0 121.94 0 61.88 0 0 Z M45 39 C45 73.32 45 107.64 45 143 C77.31890664 144.10176972 77.31890664 144.10176972 104.37890625 129.8046875 C115.24388771 117.70921416 118.33893377 102.80421506 118 87 C116.91255127 71.64187791 111.83256591 60.35674913 100.75 49.75 C84.81013136 36.16457715 65.29938404 39 45 39 Z " fill="#FFFFFF" transform="translate(733,813)"/>
<path d="M0 0 C17.49 0 34.98 0 53 0 C57.1765625 11.6634375 57.1765625 11.6634375 61.4375 23.5625 C69.5313318 46.14943443 77.66894165 68.72017669 85.84143066 91.27876282 C88.36967055 98.25777375 90.89460015 105.23797641 93.41796875 112.21875 C93.78350357 113.22985336 94.14903839 114.24095673 94.52565002 115.28269958 C95.97826746 119.30078325 97.43088224 123.31886771 98.88284302 127.33718872 C102.48373063 137.30240682 106.09140472 147.26492219 109.734375 157.21484375 C110.30624994 158.77880266 110.87810918 160.34276732 111.44995117 161.90673828 C112.49597665 164.76713198 113.54616144 167.62594942 114.59887695 170.48388672 C115.05222412 171.72283691 115.50557129 172.96178711 115.97265625 174.23828125 C116.36718994 175.31118408 116.76172363 176.38408691 117.16821289 177.48950195 C118 180 118 180 118 182 C102.16 182 86.32 182 70 182 C64.555 166.655 64.555 166.655 59 151 C37.22 151 15.44 151 -7 151 C-10.3 160.9 -13.6 170.8 -17 181 C-18 182 -18 182 -19.90455627 182.12025452 C-20.73728561 182.11803391 -21.57001495 182.11581329 -22.42797852 182.11352539 C-23.36887833 182.11344986 -24.30977814 182.11337433 -25.27919006 182.11329651 C-26.30209641 182.10813522 -27.32500275 182.10297394 -28.37890625 182.09765625 C-29.941605 182.09553383 -29.941605 182.09553383 -31.53587341 182.09336853 C-34.87811094 182.0877508 -38.22028257 182.0751953 -41.5625 182.0625 C-43.82226466 182.05748728 -46.08203037 182.05292398 -48.34179688 182.04882812 C-53.89455391 182.03777561 -59.44727225 182.02102024 -65 182 C-64.33261038 176.17655577 -62.32322337 170.98658588 -60.30078125 165.52734375 C-59.91842819 164.48183853 -59.53607513 163.43633331 -59.14213562 162.35914612 C-58.30918393 160.083163 -57.47386609 157.80804476 -56.63647461 155.53369141 C-54.58600401 149.96418525 -52.54969881 144.38950083 -50.51183701 138.81537247 C-49.79394338 136.85239658 -49.07538997 134.8896632 -48.35671997 132.92697144 C-43.64995773 120.06827504 -39.00551879 107.1873624 -34.36886597 94.30325317 C-32.08667684 87.96178389 -29.80158118 81.6213622 -27.515625 75.28125 C-27.28987226 74.6551137 -27.06411953 74.02897739 -26.8315258 73.38386726 C-21.49356129 58.58105637 -16.12587684 43.78907856 -10.75 29 C-10.1010376 27.21348022 -10.1010376 27.21348022 -9.43896484 25.39086914 C-8.22585703 22.05190988 -7.01159386 18.71337345 -5.796875 15.375 C-5.43962341 14.39156616 -5.08237183 13.40813232 -4.71429443 12.39489746 C-4.21908295 11.03539978 -4.21908295 11.03539978 -3.71386719 9.6484375 C-3.42936707 8.86645996 -3.14486694 8.08448242 -2.85174561 7.27880859 C-1.93941203 4.83789951 -0.9677838 2.41945949 0 0 Z M25 53 C22.3888016 60.78731151 19.78082042 68.5756897 17.17697144 76.36546135 C15.96787736 79.98229402 14.75766676 83.59874513 13.54492188 87.21435547 C12.37520931 90.70180674 11.20840705 94.19021907 10.04364014 97.6793251 C9.59812538 99.01216607 9.15155237 100.34465377 8.70391846 101.67678452 C8.07848107 103.53863801 7.45710927 105.40185575 6.8359375 107.26513672 C6.48063965 108.32658905 6.1253418 109.38804138 5.75927734 110.48165894 C4.90377856 112.88075804 4.90377856 112.88075804 5 115 C18.86 115 32.72 115 47 115 C45.45871719 107.86962443 45.45871719 107.86962443 43.44360352 100.97436523 C43.0078878 99.66271645 43.0078878 99.66271645 42.56336975 98.3245697 C42.2549968 97.41179764 41.94662384 96.49902557 41.62890625 95.55859375 C41.30591049 94.59147964 40.98291473 93.62436554 40.65013123 92.62794495 C39.97060936 90.59606314 39.2889409 88.56489807 38.60522461 86.53442383 C37.56482843 83.44441552 36.53086083 80.35231552 35.49804688 77.25976562 C34.83370679 75.27591657 34.16900538 73.29218846 33.50390625 71.30859375 C33.19755753 70.39379745 32.8912088 69.47900116 32.57557678 68.53648376 C30.81633549 63.31632224 28.96461552 58.14649138 27 53 C26.34 53 25.68 53 25 53 Z " fill="#FFFFFF" transform="translate(974,813)"/>
<path d="M0 0 C0.30189925 7.28331942 -0.75174779 13.62831127 -2.5 20.6875 C-2.76699707 21.77675781 -3.03399414 22.86601563 -3.30908203 23.98828125 C-17.70281604 80.67542559 -55.26310264 131.54010942 -105.5 161.6875 C-107.98795942 163.14662333 -110.49232459 164.57512392 -113 166 C-113.57621094 166.33596191 -114.15242187 166.67192383 -114.74609375 167.01806641 C-144.76837579 184.47149624 -180.84826747 194.02659462 -215.5 194.3125 C-216.67175781 194.34150391 -217.84351563 194.37050781 -219.05078125 194.40039062 C-226.68352359 194.45607281 -233.71330506 193.92897353 -239.57983398 188.55200195 C-244.22910034 183.23724089 -245.50578153 178.64579935 -245.8125 171.6875 C-245.89564453 170.95337891 -245.97878906 170.21925781 -246.06445312 169.46289062 C-246.15576547 166.9529148 -245.97611494 165.32237576 -245 163 C-242.25367781 160.52694919 -239.10328228 158.88670264 -235.88357544 157.09890747 C-232.15373896 154.92286233 -228.62856107 152.42939665 -225.06640625 149.9921875 C-223.37217449 148.84376686 -221.67749821 147.6960018 -219.98242188 146.54882812 C-219.10126709 145.95142822 -218.2201123 145.35402832 -217.31225586 144.73852539 C-201.28374888 133.87591385 -185.18597855 123.12642395 -169 112.5 C-153.53780852 102.3473787 -138.16353672 92.07442746 -122.84692383 81.70361328 C-107.02699256 70.9956786 -91.10523197 60.44856672 -75.12695312 49.97851562 C-65.29168963 43.52827751 -55.53162664 36.98320117 -45.83886719 30.32080078 C-38.09767966 25.00078813 -30.31441123 19.74269383 -22.53173828 14.48364258 C-20.72766248 13.26396001 -18.92430125 12.04321994 -17.12158203 10.8215332 C-14.47577947 9.02853917 -11.82798756 7.23852115 -9.1796875 5.44921875 C-8.36950165 4.89940842 -7.5593158 4.34959808 -6.72457886 3.78312683 C-5.98515045 3.28452652 -5.24572205 2.78592621 -4.48388672 2.2722168 C-3.83281952 1.83177536 -3.18175232 1.39133392 -2.51095581 0.93754578 C-1 0 -1 0 0 0 Z " fill="#8797B9" transform="translate(683,1014)"/>
<path d="M0 0 C1.18730713 0.00088623 2.37461426 0.00177246 3.59790039 0.00268555 C20.35139757 0.22052192 36.64431123 3.11908076 52.8125 7.375 C52.21397285 16.17062426 50.48067791 24.71972172 48.73779297 33.34307861 C48.41549727 34.9560231 48.09362543 36.56905233 47.7721386 38.18215823 C46.89131819 42.59546648 46.00453169 47.00755749 45.11674023 51.41946793 C44.15890413 56.18494123 43.20665369 60.95153086 42.25372314 65.71798706 C40.60295137 73.97105805 38.94868678 82.22342264 37.29205322 90.47531891 C34.89557524 102.41258679 32.50461328 114.35095426 30.11501956 126.28960189 C26.23596386 145.66906757 22.35275684 165.04769892 18.46679688 184.42578125 C14.69551264 203.23207091 10.9256978 222.03865391 7.15820312 240.84570312 C6.9260456 242.00461175 6.69388807 243.16352037 6.45469546 244.35754743 C3.92072795 257.00706847 1.38711586 269.65666069 -1.14633179 282.30628586 C-1.81811087 285.66048126 -2.48989138 289.01467638 -3.16167378 292.36887112 C-3.60446174 294.57971584 -4.0472437 296.79056176 -4.49001956 299.0014089 C-7.30800228 313.07188939 -10.12754151 327.14205674 -12.94874573 341.21189165 C-14.37124605 348.30627559 -15.79310303 355.40078841 -17.21475554 362.49534228 C-18.33948881 368.10791836 -19.4650303 373.72033151 -20.59120429 379.33261867 C-21.27378366 382.73530197 -21.9555605 386.13814569 -22.63709998 389.54103741 C-22.94966235 391.10079626 -23.26255859 392.66048824 -23.57581925 394.22010699 C-24.00113908 396.33785013 -24.42526209 398.45582959 -24.84909058 400.57387161 C-25.08511427 401.75089999 -25.32113796 402.92792838 -25.56431389 404.14062428 C-26.15610378 407.21205161 -26.68824132 410.28731483 -27.1875 413.375 C-27.5175 413.375 -27.8475 413.375 -28.1875 413.375 C-28.27903053 362.93573988 -28.34952603 312.49648815 -28.39176132 262.05716133 C-28.39676422 256.10402539 -28.4019415 250.15088961 -28.40722656 244.19775391 C-28.4082758 243.01257833 -28.40932505 241.82740274 -28.41040608 240.60631275 C-28.42781723 221.40934155 -28.45935885 202.2124182 -28.49611118 183.01547539 C-28.53350082 163.32158363 -28.55573167 143.62771696 -28.56385398 123.93379116 C-28.56934584 111.77894905 -28.58669926 99.62424219 -28.61916587 87.46944171 C-28.64028932 79.13748071 -28.64670495 70.80558975 -28.64150551 62.4736039 C-28.63894037 57.66453723 -28.64290709 52.85570711 -28.6643219 48.04668236 C-28.683787 43.64336502 -28.68477028 39.24044333 -28.67109558 34.83710778 C-28.66940548 33.2447742 -28.6744801 31.65241595 -28.68703273 30.06013095 C-28.75519388 20.87962262 -28.71629592 13.62313487 -22.44140625 6.3515625 C-21.88324219 5.90554688 -21.32507813 5.45953125 -20.75 5 C-20.19441406 4.53851562 -19.63882812 4.07703125 -19.06640625 3.6015625 C-13.01543857 -0.34854946 -6.98965524 -0.0093517 0 0 Z " fill="#103075" transform="translate(466.1875,756.625)"/>
<path d="M0 0 C17.28408948 2.84122019 37.98509168 31.24694699 48 45 C51.06892031 49.2869224 54.05704784 53.62553778 57 58 C51.59537697 66.59253207 46.01245321 75.05957294 40.375 83.5 C39.91101807 84.19552979 39.44703613 84.89105957 38.96899414 85.60766602 C29.90192136 99.19836166 20.76519356 112.74185682 11.62176514 126.28125 C3.2692262 138.65031484 -5.04771886 151.04170299 -13.31027222 163.47103882 C-18.77170017 171.68486161 -24.25988834 179.87973755 -29.78515625 188.05078125 C-30.37548141 188.92384918 -30.96580658 189.79691711 -31.57402039 190.69644165 C-32.78911623 192.49332517 -34.00424005 194.29018978 -35.21939087 196.08703613 C-35.82761688 196.98643921 -36.4358429 197.88584229 -37.0625 198.8125 C-37.66871185 199.70884155 -38.27492371 200.60518311 -38.89950562 201.52868652 C-49.11570719 216.64245464 -59.17567739 231.85455929 -69.18655396 247.10488892 C-75.67648334 256.98708439 -82.17261963 266.84655877 -89 276.5 C-96.54315641 287.16750996 -103.70046059 298.08269238 -110.875 309 C-111.80054184 310.40823029 -111.80054184 310.40823029 -112.74478149 311.84490967 C-113.99579007 313.74845962 -115.24679203 315.65201393 -116.49778748 317.55557251 C-117.1211348 318.50403046 -117.74448212 319.4524884 -118.38671875 320.4296875 C-119.01324844 321.38306 -119.63977814 322.3364325 -120.28529358 323.31869507 C-126.48208152 332.74299432 -132.71186825 342.14516489 -138.96270752 351.53369141 C-140.1076173 353.25379084 -141.25162779 354.9744892 -142.39471436 356.69580078 C-143.97306525 359.07219035 -145.55441239 361.44655544 -147.13671875 363.8203125 C-147.603022 364.52334503 -148.06932526 365.22637756 -148.54975891 365.95071411 C-150.24308733 368.48467899 -151.83909478 370.83909478 -154 373 C-153.38727979 367.54880889 -151.52602083 363.01766549 -149.38671875 358.02734375 C-149.02105301 357.1598349 -148.65538727 356.29232605 -148.27864075 355.39852905 C-147.08740614 352.57568885 -145.88741382 349.75666036 -144.6875 346.9375 C-143.86125011 344.98297405 -143.03573388 343.02813781 -142.2109375 341.07299805 C-140.56770451 337.17830199 -138.92206487 333.28463715 -137.27490234 329.39160156 C-134.31234274 322.38067755 -131.40045745 315.34929167 -128.5 308.3125 C-127.55485825 306.02336699 -126.60955076 303.73430241 -125.6640625 301.4453125 C-124.99745605 299.83124512 -124.99745605 299.83124512 -124.31738281 298.18457031 C-120.96839318 290.08890301 -117.59115887 282.00495735 -114.21777344 273.91943359 C-112.14361495 268.94694217 -110.07195217 263.97341107 -108 259 C-107.16667822 256.99999519 -106.33334489 254.99999518 -105.5 253 C-105.0875 252.01 -104.675 251.02 -104.25 250 C-62.375 149.5 -62.375 149.5 -20.5 49 C-20.08693604 48.00863037 -19.67387207 47.01726074 -19.24829102 45.99584961 C-18.42070059 44.00966496 -17.59306439 42.02349937 -16.76538086 40.03735352 C-14.59379198 34.82613974 -12.42316169 29.61452933 -10.25390625 24.40234375 C-9.80337891 23.32017578 -9.35285156 22.23800781 -8.88867188 21.12304688 C-8.02900157 19.05806562 -7.16960926 16.9929686 -6.31054688 14.92773438 C-4.23374339 9.93997328 -2.13991564 4.96102629 0 0 Z " fill="#3F5890" transform="translate(593,802)"/>
<path d="M0 0 C6.92337795 26.12421279 7.19716247 55.35551326 3 82 C2.34 81.34 1.68 80.68 1 80 C0.01346436 80.66604248 -0.97307129 81.33208496 -1.98950195 82.01831055 C-3.4057609 82.97444783 -4.82202075 83.93058377 -6.23828125 84.88671875 C-7.00837021 85.40662888 -7.77845917 85.926539 -8.57188416 86.46220398 C-12.96976084 89.431232 -17.36794739 92.39979972 -21.76660156 95.36767578 C-30.19846012 101.0571324 -38.62965403 106.7475227 -47.05290222 112.44972229 C-66.87204297 125.86553496 -86.75420926 139.17460537 -106.75915527 152.31195068 C-121.30165539 161.86445292 -135.75171918 171.54556688 -150.15911865 181.30041504 C-165.00703034 191.35001816 -179.94572587 201.25482478 -194.93386841 211.09390259 C-207.01386784 219.02402238 -219.04907279 227.00513425 -230.91259766 235.25683594 C-231.79608887 235.86688477 -232.67958008 236.47693359 -233.58984375 237.10546875 C-234.33097412 237.62262451 -235.07210449 238.13978027 -235.83569336 238.67260742 C-238.14764807 240.09055415 -240.45881571 241.06424396 -243 242 C-238.09446886 236.08879015 -232.80477178 230.66166164 -227.37042236 225.23670959 C-226.39713234 224.26154867 -225.42405796 223.28617247 -224.45117927 222.31060117 C-221.79146811 219.64480111 -219.12866986 216.98210389 -216.46532178 214.31993806 C-213.58832665 211.44314765 -210.71419935 208.56349438 -207.8396759 205.68423462 C-202.21519494 200.0514647 -196.58795461 194.42145936 -190.95960698 188.79255331 C-186.38763929 184.22011004 -181.81646309 179.646877 -177.24584198 175.07308769 C-164.28939021 162.10783751 -151.33085216 149.14467773 -138.36962512 136.18420131 C-137.67159903 135.48621517 -136.97357293 134.78822903 -136.25439453 134.0690918 C-135.55551769 133.37025584 -134.85664085 132.67141988 -134.13658592 131.95140707 C-122.78871364 120.60394199 -111.44584841 109.25148638 -100.10522166 97.89678056 C-88.46288255 86.2401016 -76.81684345 74.58713071 -65.16689944 62.93805212 C-58.62527024 56.3967555 -52.08520336 49.85391394 -45.54911041 43.30708504 C-39.98986542 37.73876693 -34.4272131 32.1738814 -28.86002263 26.61350668 C-26.01776835 23.77453259 -23.17718452 20.93393663 -20.34088326 18.08901405 C-17.74852318 15.48885477 -15.15165864 12.89328758 -12.55100712 10.30142205 C-11.15761027 8.91031306 -9.76917223 7.51424267 -8.38087201 6.1180473 C-7.56199215 5.30376623 -6.74311228 4.48948516 -5.89941788 3.65052891 C-4.83462436 2.58540934 -4.83462436 2.58540934 -3.74831986 1.4987722 C-2 0 -2 0 0 0 Z " fill="#6F82AB" transform="translate(681,935)"/>
<path d="M0 0 C-6.65439331 16.08754425 -32.73773049 28.74774171 -47 37 C-47.93247559 37.54865723 -47.93247559 37.54865723 -48.88378906 38.10839844 C-78.77732659 55.57225881 -114.97489869 65.02763943 -149.5 65.3125 C-150.67175781 65.34150391 -151.84351563 65.37050781 -153.05078125 65.40039062 C-160.68352359 65.45607281 -167.71330506 64.92897353 -173.57983398 59.55200195 C-178.61648704 53.79440378 -179.28387738 49.61946625 -179.125 42.25 C-179.11597656 41.45722656 -179.10695313 40.66445312 -179.09765625 39.84765625 C-179.07417012 37.89830719 -179.03830137 35.94911425 -179 34 C-177.85861572 33.78384033 -176.71723145 33.56768066 -175.54125977 33.3449707 C-171.17024961 32.51681618 -166.79956243 31.68696691 -162.42895508 30.85668945 C-160.56282736 30.50240969 -158.69662041 30.14854693 -156.83032227 29.79516602 C-146.33048686 27.80671168 -135.83930429 25.7809807 -125.36181641 23.67773438 C-123.15224984 23.23503783 -120.94268047 22.79235534 -118.73310852 22.34968567 C-117.61459818 22.12544733 -116.49608784 21.90120899 -115.34368324 21.67017555 C-110.0716261 20.61349537 -104.79915175 19.55890437 -99.52661133 18.50463867 C-98.48371759 18.29609001 -97.44082386 18.08754135 -96.36632729 17.87267303 C-87.17695868 16.03567507 -77.98646878 14.204323 -68.79553699 12.37516308 C-62.65221402 11.15236426 -56.50935452 9.92732342 -50.36743164 8.69750977 C-44.35497657 7.49370307 -38.34143691 6.2954629 -32.32709312 5.10112953 C-30.05133193 4.64819937 -27.77596679 4.19327434 -25.50101662 3.73628807 C-22.34000843 3.10166025 -19.17765986 2.47418173 -16.01489258 1.84838867 C-15.08456207 1.65987839 -14.15423157 1.4713681 -13.19570923 1.27714539 C-8.72485102 0.40021735 -4.58327229 -0.22302605 0 0 Z " fill="#CDD4E2" transform="translate(617,1143)"/>
<path d="M0 0 C4.29 0 8.58 0 13 0 C18.51336201 18.64419914 23.34863496 37.4626535 28.21966553 56.28198242 C29.32424038 60.547203 30.43179283 64.81165025 31.5390625 69.07617188 C33.69555175 77.383379 35.84884713 85.69140943 38 94 C39.98976416 91.01535376 40.7699075 88.81555965 41.75244141 85.39648438 C42.08684235 84.24257202 42.42124329 83.08865967 42.76577759 81.89978027 C43.12408661 80.64379028 43.48239563 79.38780029 43.8515625 78.09375 C44.23262067 76.77252506 44.61417107 75.45144199 44.9961853 74.13049316 C46.00704673 70.63060898 47.01181186 67.12900421 48.01513672 63.62695312 C49.00569664 60.17228617 50.00082258 56.7189371 50.99609375 53.265625 C51.28825335 52.25187805 51.28825335 52.25187805 51.58631516 51.21765137 C51.9789372 49.85545685 52.37160042 48.49327421 52.76430511 47.13110352 C53.15561024 45.77356098 53.54676946 44.41597637 53.93778229 43.05834961 C56.76924971 33.22777537 59.62668453 23.40530868 62.5234375 13.59375 C62.86041656 12.44821655 63.19739563 11.30268311 63.54458618 10.12243652 C63.85391083 9.07849731 64.16323547 8.03455811 64.48193359 6.95898438 C64.75218353 6.04515991 65.02243347 5.13133545 65.3008728 4.18981934 C66 2 66 2 67 0 C71.62 0 76.24 0 81 0 C83.48752274 8.69488665 85.97442891 17.38994907 88.46034336 26.08529568 C89.61553596 30.12589598 90.77096561 34.16642812 91.92700195 38.20678711 C97.33910538 57.12283597 102.72752665 76.04443187 108 95 C111.08809995 85.36855095 113.73895099 75.65744751 116.28146935 65.87096596 C116.96415253 63.24330075 117.65034447 60.61657252 118.33735657 57.99003601 C119.79053835 52.43167284 121.23915685 46.87212556 122.6875 41.3125 C124.3776212 34.82707686 126.06962024 28.3421505 127.7650547 21.85811424 C128.44110064 19.2693675 129.11438605 16.67991318 129.78752136 14.09040833 C130.19896323 12.515074 130.61052187 10.93977016 131.0222168 9.36450195 C131.20870285 8.64405701 131.3951889 7.92361206 131.58732605 7.18133545 C132.88620735 2.22758531 132.88620735 2.22758531 134 0 C138.29 0 142.58 0 147 0 C146.33034985 5.77346938 144.95762392 11.17275607 143.36376953 16.75561523 C143.09534241 17.70939056 142.82691528 18.66316589 142.550354 19.64584351 C141.66565835 22.78471313 140.77441724 25.9216803 139.8828125 29.05859375 C139.26336381 31.2489443 138.64421759 33.43938041 138.02536011 35.62989807 C136.72860771 40.21608205 135.42870092 44.80135649 134.12646484 49.38598633 C132.46111744 55.24966805 130.80283478 61.11531882 129.14682198 66.98164272 C127.86940139 71.50434126 126.58861784 76.026082 125.3067894 80.54753304 C124.69427522 82.70932511 124.08270467 84.87138478 123.47211075 87.03372002 C122.61642706 90.06177144 121.75631381 93.08853061 120.89501953 96.11499023 C120.64555573 97.00095383 120.39609192 97.88691742 120.1390686 98.79972839 C118.66001032 103.97593227 116.95627129 108.98395167 115 114 C110.38 114 105.76 114 101 114 C99.12036946 107.83473623 97.24604771 101.66787387 95.375 95.5 C95.08943237 94.55892395 94.80386475 93.6178479 94.50964355 92.64825439 C90.96275994 80.94738574 87.46690601 69.23308379 84.0546875 57.4921875 C83.73474823 56.39138855 83.41480896 55.2905896 83.08517456 54.15643311 C81.5201312 48.76547884 79.9610503 43.37285444 78.40771484 37.97851562 C77.83953823 36.01431713 77.27134261 34.05012413 76.703125 32.0859375 C76.44328827 31.1775412 76.18345154 30.2691449 75.91574097 29.33322144 C75.67703278 28.50960114 75.43832458 27.68598083 75.19238281 26.83740234 C74.98510559 26.11660492 74.77782837 25.3958075 74.56427002 24.65316772 C74.12972578 22.98279804 74.12972578 22.98279804 73 22 C69.64393116 33.09192165 66.28844187 44.18401843 62.93368721 55.27633762 C61.37583425 60.42723087 59.81778362 65.57806415 58.25927734 70.72875977 C56.75454437 75.70176685 55.25033574 80.67493226 53.74648666 85.64820671 C53.17336475 87.54320837 52.60005566 89.43815343 52.02655411 91.33304024 C51.2217932 93.99213976 50.41770505 96.65144185 49.61376953 99.31079102 C49.37784088 100.0897876 49.14191223 100.86878418 48.89883423 101.67138672 C47.55980684 106.10367329 46.26058026 110.54474657 45 115 C40.38 115 35.76 115 31 115 C26.80126185 100.07244891 22.60815683 85.14332658 18.42355347 70.21180725 C18.04262804 68.85262917 17.66169744 67.49345254 17.28076172 66.13427734 C17.091994 65.4607532 16.90322628 64.78722906 16.70873833 64.0932951 C15.39776394 59.41663334 14.08441261 54.74064334 12.77001953 50.06494141 C11.00776042 43.79575317 9.25113748 37.52500174 7.49807739 31.25323486 C6.83346036 28.87882167 6.16702132 26.50491771 5.49874878 24.13153076 C4.56725947 20.82208768 3.64222018 17.51090696 2.71875 14.19921875 C2.44140518 13.21951614 2.16406036 12.23981354 1.87831116 11.23042297 C1.62907394 10.33155869 1.37983673 9.4326944 1.12304688 8.5065918 C0.90483276 7.72809372 0.68661865 6.94959564 0.46179199 6.14750671 C0 4 0 4 0 0 Z " fill="#FFFFFF" transform="translate(732,1037)"/>
<path d="M0 0 C-1.38028144 4.68157314 -3.35324827 8.72273363 -5.875 12.875 C-6.46220825 13.84457642 -6.46220825 13.84457642 -7.0612793 14.83374023 C-14.74980357 27.26608846 -23.99631967 38.65951315 -33.71484375 49.55224609 C-34.8477643 50.82850348 -35.95706778 52.12564222 -37.0625 53.42578125 C-37.64 54.06902344 -38.2175 54.71226563 -38.8125 55.375 C-39.27269531 55.89835937 -39.73289062 56.42171875 -40.20703125 56.9609375 C-42 58 -42 58 -44.9503479 57.94367981 C-49.95530725 57.87675239 -54.70122474 58.94707296 -59.58740234 59.94018555 C-60.63091354 60.14673264 -61.67442474 60.35327972 -62.7495575 60.56608582 C-66.1963121 61.24996231 -69.64109163 61.94329712 -73.0859375 62.63671875 C-75.50457404 63.11856613 -77.92332817 63.59982361 -80.3421936 64.08052063 C-86.72225993 65.35007867 -93.10069356 66.6276623 -99.4788208 67.90692139 C-105.88075278 69.18951413 -112.28418597 70.46456288 -118.6875 71.74023438 C-130.30624441 74.05612779 -141.92355248 76.37912449 -153.54005432 78.70623779 C-161.2465215 80.25001574 -168.95360843 81.79069359 -176.66082573 83.33072186 C-181.8123765 84.36055156 -186.96303397 85.39454284 -192.11185741 86.4379282 C-194.08106475 86.83574225 -196.05107786 87.22926542 -198.02148438 87.62109375 C-199.95733051 88.00606882 -201.89310934 88.39147162 -203.8269043 88.78662109 C-205.78532268 89.18610535 -207.74614955 89.57372542 -209.70703125 89.9609375 C-210.8256958 90.18571777 -211.94436035 90.41049805 -213.09692383 90.64208984 C-215.81228535 90.97685731 -217.4494654 90.89681463 -220 90 C-218.22526042 89.265625 -216.45052083 88.53125 -214.67578125 87.796875 C-213.51771973 87.31766602 -212.3596582 86.83845703 -211.16650391 86.34472656 C-208.55293883 85.26324556 -205.93932619 84.18187959 -203.32568359 83.10058594 C-196.87912535 80.43346455 -190.43294169 77.76545506 -183.98828125 75.09375 C-173.38978278 70.70159309 -162.78760011 66.31910161 -152.171875 61.96875 C-151.32047943 61.61979675 -150.46908386 61.27084351 -149.59188843 60.91131592 C-145.41618635 59.20015388 -141.23998243 57.49023212 -137.06298828 55.78222656 C-126.69600208 51.53924715 -116.36276624 47.22074545 -106.04388428 42.86218262 C-101.5766488 40.97774483 -97.10118676 39.11305037 -92.625 37.25 C-91.62992432 36.83572754 -90.63484863 36.42145508 -89.60961914 35.99462891 C-69.86457671 27.77934899 -50.09690589 19.61994794 -30.3125 11.5 C-29.47161835 11.15475281 -28.63073669 10.80950562 -27.76437378 10.45379639 C-23.15417691 8.56128378 -18.54263692 6.67212742 -13.92877197 4.78857422 C-12.18753997 4.07667531 -10.44791864 3.36083995 -8.70849609 2.64453125 C-7.80824707 2.27714844 -6.90799805 1.90976563 -5.98046875 1.53125 C-5.24078857 1.22767578 -4.5011084 0.92410156 -3.73901367 0.61132812 C-2 0 -2 0 0 0 Z " fill="#9EABC7" transform="translate(660,1086)"/>
<path d="M0 0 C56.28602025 0 56.28602025 0 65.50390625 7.37890625 C72.35650096 14.80404151 74.31445669 22.08068888 74.21875 31.890625 C73.7505318 38.54601225 71.77460251 44.22539749 67 49 C63.79054017 51.58519419 60.93051116 53.68982961 57 55 C57.97839844 55.52787109 57.97839844 55.52787109 58.9765625 56.06640625 C67.28064729 60.75735681 73.06232507 65.64881094 76 75 C77.32324713 83.30406123 77.10479692 92.56017985 72.66796875 99.85546875 C66.23288263 108.12915091 61.32398865 110.24582231 51 114 C34.17 114 17.34 114 0 114 C0 76.38 0 38.76 0 0 Z M12 11 C12 23.87 12 36.74 12 50 C17.259375 50.0825 22.51875 50.165 27.9375 50.25 C29.578396 50.28641602 31.21929199 50.32283203 32.90991211 50.36035156 C41.80475489 50.42779854 49.09965439 50.12800853 56.15625 44.18359375 C56.82140625 43.31927734 56.82140625 43.31927734 57.5 42.4375 C57.9640625 41.85871094 58.428125 41.27992187 58.90625 40.68359375 C62.10309712 35.76273265 61.61897383 29.61345233 61 24 C59.29570105 19.25394778 56.69200904 16.13804043 52.375 13.5625 C47.43815899 11.27692546 43.6192402 10.86426646 38.26953125 10.90234375 C37.27149475 10.90385437 37.27149475 10.90385437 36.2532959 10.90539551 C33.77301301 10.91061894 31.29275474 10.92458022 28.8125 10.9375 C20.4903125 10.9684375 20.4903125 10.9684375 12 11 Z M12 61 C12 75.19 12 89.38 12 104 C17.07375 104.061875 22.1475 104.12375 27.375 104.1875 C28.95458496 104.21481201 30.53416992 104.24212402 32.16162109 104.27026367 C42.31026329 104.32993137 51.90270858 104.07129644 59.59375 96.65234375 C63.92810573 91.55947577 64.56067406 86.15918248 64.33984375 79.7109375 C63.55540803 73.45348474 61.02665146 69.52190682 56.125 65.625 C50.4655434 61.52361242 44.83398694 60.70494029 37.9765625 60.8046875 C37.31422607 60.80670166 36.65188965 60.80871582 35.96948242 60.81079102 C33.52125005 60.82116845 31.07311726 60.84909036 28.625 60.875 C23.13875 60.91625 17.6525 60.9575 12 61 Z " fill="#FFFFFF" transform="translate(977,1037)"/>
<path d="M0 0 C19.8 0 39.6 0 60 0 C60 3.3 60 6.6 60 10 C44.16 10 28.32 10 12 10 C12 23.86 12 37.72 12 52 C26.19 52 40.38 52 55 52 C55 55.3 55 58.6 55 62 C40.81 62 26.62 62 12 62 C12 75.86 12 89.72 12 104 C27.84 104 43.68 104 60 104 C60 107.3 60 110.6 60 114 C40.2 114 20.4 114 0 114 C0 76.38 0 38.76 0 0 Z " fill="#FFFFFF" transform="translate(896,1037)"/>
<path d="M0 0 C-3.47199157 8.39382577 -13.62403871 14.63393259 -20.6875 20 C-21.56559326 20.67385742 -21.56559326 20.67385742 -22.46142578 21.36132812 C-23.7453352 22.31845483 -25.05394114 23.24302889 -26.38087463 24.13955688 C-29.11001816 26.01620771 -29.11001816 26.01620771 -31.87117004 28.47824097 C-44.37257869 38.50050751 -58.44452566 37.23339561 -73.68080139 36.81201029 C-77.3931767 36.72031279 -81.10610592 36.68733712 -84.81933594 36.64767456 C-91.82516655 36.56415074 -98.82898269 36.42913938 -105.83357239 36.27480781 C-113.8187464 36.10143942 -121.80444292 35.98670885 -129.79069901 35.87647843 C-146.195229 35.64876252 -162.59758748 35.34878957 -179 35 C-179 34.67 -179 34.34 -179 34 C-177.85861572 33.78384033 -176.71723145 33.56768066 -175.54125977 33.3449707 C-171.17024961 32.51681618 -166.79956243 31.68696691 -162.42895508 30.85668945 C-160.56282736 30.50240969 -158.69662041 30.14854693 -156.83032227 29.79516602 C-146.33048686 27.80671168 -135.83930429 25.7809807 -125.36181641 23.67773438 C-123.15224984 23.23503783 -120.94268047 22.79235534 -118.73310852 22.34968567 C-117.61459818 22.12544733 -116.49608784 21.90120899 -115.34368324 21.67017555 C-110.0716261 20.61349537 -104.79915175 19.55890437 -99.52661133 18.50463867 C-98.48371759 18.29609001 -97.44082386 18.08754135 -96.36632729 17.87267303 C-87.17695868 16.03567507 -77.98646878 14.204323 -68.79553699 12.37516308 C-62.65221402 11.15236426 -56.50935452 9.92732342 -50.36743164 8.69750977 C-44.35497657 7.49370307 -38.34143691 6.2954629 -32.32709312 5.10112953 C-30.05133193 4.64819937 -27.77596679 4.19327434 -25.50101662 3.73628807 C-22.34000843 3.10166025 -19.17765986 2.47418173 -16.01489258 1.84838867 C-15.08456207 1.65987839 -14.15423157 1.4713681 -13.19570923 1.27714539 C-8.72485102 0.40021735 -4.58327229 -0.22302605 0 0 Z " fill="#B7C0D5" transform="translate(617,1143)"/>
</svg>
