<?xml version="1.0" encoding="UTF-8"?>
<svg version="1.1" xmlns="http://www.w3.org/2000/svg" width="1100" height="305">
<path d="M0 0 C34.02837438 16.50292344 59.56425595 44.90007791 72.64355469 80.3828125 C77.63660161 95.27655339 79.73637624 110.15256489 79.75 125.8125 C79.75067474 126.50724426 79.75134949 127.20198853 79.75204468 127.91778564 C79.73560904 138.5677733 79.16059476 148.57632202 76.5 158.9375 C76.3443457 159.59717773 76.18869141 160.25685547 76.02832031 160.93652344 C71.80201154 178.69376887 63.67896346 195.52773682 52.5 209.9375 C51.79359375 210.86433594 51.0871875 211.79117188 50.359375 212.74609375 C29.49320627 239.20409547 1.12274198 256.15179629 -31.5 263.9375 C-32.5003125 264.185 -33.500625 264.4325 -34.53125 264.6875 C-41.25030046 266.07764837 -48.03609895 266.198221 -54.875 266.3125 C-56.30344238 266.35177612 -56.30344238 266.35177612 -57.76074219 266.3918457 C-63.51506455 266.40557553 -66.99945187 265.89512486 -71.5 261.9375 C-73.5993219 258.78851716 -73.75090553 258.0664622 -73.75726891 254.47774792 C-73.7637178 253.55934193 -73.77016669 252.64093594 -73.776811 251.69469947 C-73.7737138 250.68421131 -73.7706166 249.67372315 -73.76742554 248.63261414 C-73.77195665 247.56030999 -73.77648776 246.48800583 -73.78115618 245.38320762 C-73.79386744 241.77194875 -73.79217547 238.16083939 -73.79052734 234.54956055 C-73.79650842 231.9677511 -73.80331298 229.38594346 -73.81088257 226.80413818 C-73.82750868 220.50792803 -73.83299286 214.21175531 -73.83410732 207.91552504 C-73.83505713 202.79788847 -73.83916403 197.68026427 -73.84550858 192.56263161 C-73.86312613 178.05697378 -73.87234676 163.55134557 -73.87084763 149.04567697 C-73.87076772 148.26336968 -73.8706878 147.4810624 -73.87060547 146.67504883 C-73.87052371 145.89178751 -73.87044195 145.10852619 -73.87035771 144.30152968 C-73.86954487 131.6086981 -73.88868049 118.9159852 -73.9168822 106.22318795 C-73.9456031 93.19401255 -73.95942291 80.16489504 -73.95769465 67.13568717 C-73.95703042 59.81931124 -73.96253671 52.5030597 -73.98405075 45.18671227 C-74.00415382 38.30600533 -74.00359692 31.42556537 -73.98901749 24.54484558 C-73.98692109 22.01725698 -73.99167941 19.48965215 -74.0037384 16.96209145 C-74.01911871 13.51552799 -74.00992945 10.06987981 -73.99447632 6.62333679 C-74.00476344 5.6195408 -74.01505057 4.6157448 -74.02564943 3.58153075 C-73.9674784 -2.27649236 -73.40550237 -5.60379088 -69.5 -10.0625 C-51.95858792 -21.65891468 -16.99127758 -7.9404865 0 0 Z " fill="#274482" transform="translate(276.5,15.0625)"/>
<path d="M0 0 C4.32441679 1.44147226 5.32730813 4.65655422 7.3125 8.5 C7.70912842 9.26248047 8.10575684 10.02496094 8.5144043 10.81054688 C18.51868528 30.55546471 23.23080124 51.80684456 23.25 73.875 C23.25067474 74.56974426 23.25134949 75.26448853 23.25204468 75.98028564 C23.23560904 86.6302733 22.66059476 96.63882202 20 107 C19.8443457 107.65967773 19.68869141 108.31935547 19.52832031 108.99902344 C15.30201154 126.75626887 7.17896346 143.59023682 -4 158 C-4.70640625 158.92683594 -5.4128125 159.85367188 -6.140625 160.80859375 C-27.00679373 187.26659547 -55.37725802 204.21429629 -88 212 C-89.0003125 212.2475 -90.000625 212.495 -91.03125 212.75 C-97.75030046 214.14014837 -104.53609895 214.260721 -111.375 214.375 C-112.80344238 214.41427612 -112.80344238 214.41427612 -114.26074219 214.4543457 C-120.01506455 214.46807553 -123.49945187 213.95762486 -128 210 C-131.39621385 204.90567922 -131.05647829 199.91504998 -130 194 C-127.31783218 188.21579229 -123.69678341 183.17616871 -120 178 C-118.92922234 176.47259155 -117.86027434 174.94389914 -116.79296875 173.4140625 C-114.9304784 170.74516262 -113.0662816 168.07763678 -111.1940918 165.41552734 C-104.02384256 155.16540162 -97.17499108 144.70767228 -90.3125 134.25 C-80.32662933 119.03718325 -70.25724644 103.88620076 -60.0625 88.8125 C-59.45626801 87.91608795 -58.85003601 87.0196759 -58.22543335 86.09609985 C-57.62276642 85.20498505 -57.02009949 84.31387024 -56.39916992 83.39575195 C-55.20226261 81.62584666 -54.00540329 79.85590891 -52.80859375 78.0859375 C-52.22736252 77.22640976 -51.64613129 76.36688202 -51.04728699 75.48130798 C-45.53584051 67.32481898 -40.07510404 59.13505273 -34.625 50.9375 C-26.85888444 39.26017418 -19.04198253 27.61808235 -11.1875 16 C-10.67801819 15.24564667 -10.16853638 14.49129333 -9.64361572 13.71408081 C-8.21550848 11.60018779 -6.78580752 9.48738353 -5.35546875 7.375 C-4.92746475 6.74135025 -4.49946075 6.1077005 -4.05848694 5.45484924 C-1.11536557 1.11536557 -1.11536557 1.11536557 0 0 Z " fill="#576E9E" transform="translate(333,67)"/>
<path d="M0 0 C10.23 0 20.46 0 31 0 C35.95 24.75 40.9 49.5 46 75 C47.85175134 71.29649733 48.79944581 68.2406576 49.77172852 64.24365234 C49.93622498 63.57328445 50.10072144 62.90291656 50.27020264 62.2122345 C50.81084955 60.0045206 51.34480592 57.79524339 51.87890625 55.5859375 C52.2543091 54.04932953 52.63020628 52.51284225 53.00657654 50.97647095 C53.99498381 46.93734451 54.97805381 42.89693997 55.95959473 38.85614014 C57.53302877 32.3809764 59.11293282 25.90739651 60.69590569 19.43455887 C61.2482449 17.17163198 61.79732176 14.90793097 62.34608459 12.64413452 C62.68316876 11.2619158 63.02035688 9.87972243 63.35766602 8.49755859 C63.65141617 7.28828705 63.94516632 6.0790155 64.24781799 4.83309937 C65 2 65 2 66 0 C76.23 0 86.46 0 97 0 C102.94 25.08 108.88 50.16 115 76 C117.41755418 66.40159668 117.41755418 66.40159668 119.53393555 56.76269531 C119.79397873 55.48227356 120.05402191 54.20185181 120.32194519 52.88262939 C120.59359607 51.53113993 120.8651859 50.17963819 121.13671875 48.828125 C121.42365579 47.41033176 121.71083582 45.99258769 121.99824524 44.57489014 C122.74534056 40.88642951 123.48918626 37.19732123 124.2322998 33.50805664 C125.12925813 29.05862377 126.03035188 24.61002669 126.93073273 20.1612854 C128.29028199 13.44148349 129.64465457 6.72065721 131 0 C141.23 0 151.46 0 162 0 C158.93658566 13.28227244 155.58944531 26.4733047 152.140625 39.66015625 C151.58565946 41.78815695 151.03087349 43.91620448 150.47625732 46.04429626 C149.03138381 51.58641382 147.58410739 57.12790098 146.1362915 62.66925049 C144.65318197 68.34747336 143.1723985 74.02630273 141.69140625 79.70507812 C138.79651854 90.8039731 135.89887105 101.90214475 133 113 C121.45 113 109.9 113 98 113 C96.20240936 105.83271636 94.40557402 98.66525162 92.6105957 91.49731445 C92.00100206 89.06393786 91.39098431 86.63066747 90.78051758 84.19750977 C89.89810764 80.68013574 89.01727404 77.16236998 88.13671875 73.64453125 C87.73340584 72.03902153 87.73340584 72.03902153 87.32194519 70.40107727 C85.9534967 64.92768078 84.6104765 59.4482355 83.30395508 53.9597168 C83.05382156 52.91365768 82.80368805 51.86759857 82.54597473 50.7898407 C82 48 82 48 82 44 C81.34 44 80.68 44 80 44 C79.90396484 45.03914551 79.80792969 46.07829102 79.70898438 47.14892578 C78.91878652 53.42804151 77.23069333 59.49785042 75.65625 65.6171875 C75.32341254 66.92366561 74.99093985 68.23023669 74.65881348 69.53689575 C73.96580999 72.25909805 73.26958911 74.98044892 72.57080078 77.70117188 C71.67476149 81.190293 70.78510208 84.68100144 69.89759064 88.17230034 C69.21317774 90.86302368 68.52634182 93.55312347 67.83866882 96.24301529 C67.34976335 98.1561566 66.86219023 100.06963823 66.37463379 101.98312378 C66.07762573 103.13837555 65.78061768 104.29362732 65.47460938 105.48388672 C65.2133728 106.50344452 64.95213623 107.52300232 64.6829834 108.57345581 C64 111 64 111 63 113 C51.78 113 40.56 113 29 113 C25.62495443 102.8748633 25.62495443 102.8748633 24.6968689 99.19293213 C24.48383621 98.3547847 24.27080353 97.51663727 24.05131531 96.65309143 C23.82990372 95.76758102 23.60849213 94.88207062 23.38037109 93.96972656 C23.13770004 93.0108403 22.89502899 92.05195404 22.64500427 91.06401062 C21.85117232 87.92370688 21.06222089 84.78220028 20.2734375 81.640625 C19.7198783 79.44579531 19.16605126 77.25103315 18.61196899 75.05633545 C17.45504234 70.47086066 16.30035759 65.8848295 15.14746094 61.29833984 C13.67000896 55.42086108 12.18848383 49.54441902 10.70548058 43.66833878 C9.56344403 39.1424839 8.42278003 34.61628408 7.28261185 30.08995819 C6.73663264 27.92256291 6.19040777 25.75522951 5.64393234 23.58795929 C4.88162254 20.56319133 4.12097361 17.53801075 3.36083984 14.51269531 C3.13537979 13.61908798 2.90991974 12.72548065 2.67762756 11.80479431 C2.36653801 10.56449211 2.36653801 10.56449211 2.04916382 9.2991333 C1.7798533 8.22849073 1.7798533 8.22849073 1.50510216 7.13621902 C0.94570761 4.77038222 0.47677224 2.38386121 0 0 Z " fill="#000000" transform="translate(612,36)"/>
<path d="M0 0 C9.57 0 19.14 0 29 0 C37.74905798 10.34610824 37.74905798 10.34610824 40.171875 15.5859375 C44.29268318 23.88026721 49.39410495 31.42376751 54.55670166 39.09921265 C57.06562832 42.83994955 59.53660932 46.60537644 62.0078125 50.37109375 C62.43741272 51.02248322 62.86701294 51.67387268 63.30963135 52.34500122 C66.2785493 56.85711547 69.13538515 61.41661623 72 66 C72.33 44.22 72.66 22.44 73 0 C82.57 0 92.14 0 102 0 C102 37.29 102 74.58 102 113 C92.43 113 82.86 113 73 113 C63.9036841 100.49256564 63.9036841 100.49256564 59.79296875 94.00390625 C55.81003833 87.78591216 51.77331473 81.60796416 47.67578125 75.46484375 C47.20835007 74.76396133 46.74091888 74.06307892 46.25932312 73.34095764 C44.61140153 70.87245756 42.96186546 68.40503557 41.3125 65.9375 C37.579375 60.348125 33.84625 54.75875 30 49 C29.67 70.12 29.34 91.24 29 113 C19.43 113 9.86 113 0 113 C0 75.71 0 38.42 0 0 Z " fill="#000000" transform="translate(786,36)"/>
<path d="M0 0 C69.53092784 0 69.53092784 0 87.34765625 16.265625 C99.6178659 29.14499399 102.42977463 44.89098214 102.21484375 61.96484375 C101.78639328 76.28999191 95.87315839 88.71112967 86 99 C61.51043917 119.90969147 31.72961884 113 0 113 C0 75.71 0 38.42 0 0 Z M29 25 C29 46.12 29 67.24 29 89 C49.41425033 89.42485556 49.41425033 89.42485556 66 80 C73.03331366 71.56002361 73.79587731 61.56523933 73.1953125 50.94775391 C72.49916488 44.0054218 69.62590485 37.57493984 64.84375 32.5 C53.83158145 23.54094762 43.37375441 25 29 25 Z " fill="#000000" transform="translate(384,36)"/>
<path d="M0 0 C10.56 0 21.12 0 32 0 C35.30512016 7.93228838 38.44878542 15.78779995 41.30078125 23.875 C41.89178871 25.53727882 41.89178871 25.53727882 42.49473572 27.23313904 C43.33569566 29.59910776 44.17526884 31.96556978 45.0135498 34.33248901 C46.99823469 39.93613236 48.99082922 45.53695902 50.98456192 51.13738823 C51.43548234 52.4040394 51.88629539 53.6707288 52.3370018 54.93745613 C57.58688144 69.68979468 62.94253312 84.40317958 68.32543945 99.10742188 C68.80346764 100.4157473 68.80346764 100.4157473 69.29115295 101.75050354 C69.88307592 103.37028692 70.47636915 104.98957045 71.0712738 106.60826111 C73 111.88765927 73 111.88765927 73 113 C63.1 113 53.2 113 43 113 C39 104 39 104 36 95 C15.705 94.505 15.705 94.505 -5 94 C-5.99 97.63 -6.98 101.26 -8 105 C-8.99 107.64 -9.98 110.28 -11 113 C-20.9 113 -30.8 113 -41 113 C-37.62498728 101.74995761 -37.62498728 101.74995761 -36.27685547 98.02075195 C-35.97097 97.17049942 -35.66508453 96.32024689 -35.34992981 95.44422913 C-34.86347237 94.10478493 -34.86347237 94.10478493 -34.3671875 92.73828125 C-33.84296455 91.28457375 -33.84296455 91.28457375 -33.30815125 89.80149841 C-32.16643857 86.63752675 -31.02086437 83.47497021 -29.875 80.3125 C-29.07655163 78.10390979 -28.27829597 75.8952499 -27.48022461 73.68652344 C-26.24349015 70.26443323 -25.00635158 66.84249179 -23.76799011 63.42098999 C-21.28013574 56.54692162 -18.80081633 49.66986682 -16.33050537 42.78947449 C-14.78061392 38.47311118 -13.22781834 34.15779572 -11.67462158 29.84262085 C-10.93690175 27.79114754 -10.20035796 25.73925091 -9.46502686 23.68692017 C-8.439773 20.8264824 -7.40988566 17.96775321 -6.37890625 15.109375 C-6.07965744 14.27095566 -5.78040863 13.43253632 -5.47209167 12.56871033 C-5.04806816 11.39726219 -5.04806816 11.39726219 -4.61547852 10.20214844 C-4.37442886 9.5313324 -4.13337921 8.86051636 -3.88502502 8.16937256 C-2.74600391 5.377405 -1.34851414 2.69702828 0 0 Z M15 34 C13.28719758 39.0890579 11.57830017 44.17940363 9.87304688 49.27099609 C9.29209472 51.00378013 8.71006726 52.73620403 8.12695312 54.46826172 C7.29015287 56.95446929 6.45719771 59.44193615 5.625 61.9296875 C5.36251465 62.70682098 5.1000293 63.48395447 4.82958984 64.28463745 C3.48183313 68.05949521 3.48183313 68.05949521 3 72 C11.58 72 20.16 72 29 72 C27.33458295 66.74655143 25.66475425 61.49497279 23.98291016 56.24682617 C23.41182041 54.45993608 22.84345157 52.67217407 22.27783203 50.88354492 C21.46575169 48.31717193 20.64403319 45.7540631 19.8203125 43.19140625 C19.56814972 42.3872377 19.31598694 41.58306915 19.05618286 40.75453186 C18.4280735 38.81684043 17.72109895 36.90504219 17 35 C16.34 34.67 15.68 34.34 15 34 Z " fill="#000000" transform="translate(534,36)"/>
<path d="M0 0 C0.27675035 6.32884352 -0.61175701 11.61850365 -2.375 17.6875 C-2.63756592 18.59306641 -2.90013184 19.49863281 -3.1706543 20.43164062 C-7.88346221 35.85973135 -15.11004102 50.25177273 -25 63 C-25.70640625 63.92683594 -26.4128125 64.85367188 -27.140625 65.80859375 C-48.00679373 92.26659547 -76.37725802 109.21429629 -109 117 C-110.0003125 117.2475 -111.000625 117.495 -112.03125 117.75 C-118.75030046 119.14014837 -125.53609895 119.260721 -132.375 119.375 C-133.80344238 119.41427612 -133.80344238 119.41427612 -135.26074219 119.4543457 C-141.01506455 119.46807553 -144.49945187 118.95762486 -149 115 C-151.7809824 110.8285264 -152.17774781 107.5278466 -152.01269531 102.55151367 C-150.88348379 98.59137868 -149.71487921 97.55536874 -146.21832275 95.51298523 C-145.54041687 95.14518448 -144.86251099 94.77738373 -144.1640625 94.3984375 C-142.68839862 93.53784913 -141.21502562 92.67332367 -139.74365234 91.80541992 C-138.96544128 91.35194183 -138.18723022 90.89846375 -137.38543701 90.4312439 C-133.34616617 88.00771239 -129.4685515 85.3528631 -125.578125 82.69921875 C-124.75782806 82.14304367 -123.93753113 81.58686859 -123.09237671 81.01383972 C-121.37255858 79.84767831 -119.65346846 78.68044261 -117.93505859 77.51220703 C-102.04143463 66.71124817 -86.06450705 56.04486099 -70 45.5 C-48.7751673 31.56480543 -27.71497799 17.39134315 -6.6971283 3.14631653 C-2.03898835 0 -2.03898835 0 0 0 Z " fill="#8797B9" transform="translate(354,162)"/>
<path d="M0 0 C-1.65546176 12.11615102 -4.13248924 24.06461784 -6.54150391 36.0480957 C-7.00509526 38.36520511 -7.46843167 40.68236553 -7.93153381 42.99957275 C-9.18292525 49.25738703 -10.43786087 55.51448577 -11.69345522 61.77145791 C-12.87412773 67.6579148 -14.05212016 73.54490772 -15.23013417 79.43189707 C-17.56164398 91.08289972 -19.89572355 102.73338598 -22.23144531 114.38354492 C-24.49875734 125.69251729 -26.76484283 137.0017343 -29.02929688 148.3112793 C-29.16916022 149.00980785 -29.30902357 149.70833641 -29.45312519 150.4280325 C-30.15485519 153.93276701 -30.85656126 157.43750631 -31.55825543 160.94224799 C-37.36846208 189.96224192 -43.18289354 218.98138834 -49 248 C-49.33 248 -49.66 248 -50 248 C-50.09124426 217.01799499 -50.1620355 186.03602549 -50.20426132 155.05391803 C-50.20926416 151.39645945 -50.21444145 147.73900115 -50.21972656 144.08154297 C-50.2207758 143.35340683 -50.22182505 142.62527069 -50.22290608 141.87506981 C-50.24031281 130.08413753 -50.27185195 118.29328324 -50.30861118 106.50239722 C-50.34601321 94.40446036 -50.36823428 82.30656434 -50.37635398 70.20857203 C-50.38184331 62.74302234 -50.39918266 55.27769307 -50.43166587 47.81221123 C-50.45530307 42.08830616 -50.4578217 36.36454244 -50.45243073 30.6405983 C-50.4535327 28.29199618 -50.46150952 25.94338584 -50.4768219 23.59483337 C-50.49668806 20.39115049 -50.49195082 17.18841495 -50.48101807 13.98471069 C-50.49266943 13.05279636 -50.5043208 12.12088202 -50.51632524 11.16072786 C-50.46510669 5.61779425 -49.75719125 2.36446446 -46 -2 C-34.61057043 -9.52941369 -12.024432 -4.91140843 0 0 Z " fill="#103075" transform="translate(253,7)"/>
<path d="M0 0 C5.30102237 1.52187348 8.66108358 4.98204087 12.5625 8.6875 C13.26197754 9.3479834 13.96145508 10.0084668 14.68212891 10.68896484 C19.41043962 15.24698308 23.76713062 20.00184609 27.875 25.125 C28.61472046 26.04671997 28.61472046 26.04671997 29.36938477 26.98706055 C31.84597067 30.18156127 33.97458804 33.07111582 35 37 C33.94628906 39.13427734 33.94628906 39.13427734 32.015625 41.4609375 C27.81965251 46.84006618 24.02543661 52.38831251 20.296875 58.1015625 C19.68912231 59.02805603 19.08136963 59.95454956 18.4552002 60.90911865 C15.91812739 64.77778833 13.38701641 68.65034355 10.85595703 72.52294922 C4.20711377 82.68842205 -2.4874152 92.79084757 -9.54695129 102.67633057 C-15.12479483 110.51924732 -20.37492858 118.57416189 -25.64086914 126.62832642 C-40.32136855 149.07174584 -55.28025571 171.32223116 -70.32269287 193.52404785 C-72.52175826 196.77019197 -74.71937566 200.01731512 -76.91702271 203.26441956 C-82.27386426 211.17909651 -87.63479675 219.09098886 -93 227 C-94.38249968 222.85250096 -92.73437276 220.37561735 -91.046875 216.57421875 C-90.72021347 215.81675858 -90.39355194 215.0592984 -90.05699158 214.27888489 C-89.34157059 212.62214959 -88.62188203 210.96725233 -87.89852905 209.31396484 C-85.9132843 204.77409228 -83.96102162 200.22002045 -82.00390625 195.66796875 C-81.59183426 194.71183685 -81.17976227 193.75570496 -80.75520325 192.77059937 C-76.28991708 182.3920368 -71.98351899 171.9494887 -67.6875 161.5 C-66.08665147 157.61168492 -64.48483782 153.72376786 -62.8828125 149.8359375 C-62.48212051 148.86327438 -62.08142853 147.89061127 -61.66859436 146.88847351 C-57.16197609 135.95534274 -52.614264 125.03939591 -48.0625 114.125 C-47.64949646 113.13450653 -47.23649292 112.14401306 -46.81097412 111.12350464 C-44.71756646 106.10313023 -42.62363216 101.08297578 -40.52929688 96.06298828 C-36.70844288 86.90450249 -32.88993872 77.74503757 -29.0723877 68.58517456 C-27.825568 65.59385226 -26.57831447 62.60271109 -25.33105469 59.61157227 C-21.20597505 49.71585002 -17.09289347 39.81533127 -13 29.90625 C-12.20207003 27.97582885 -11.40413715 26.0454089 -10.60620117 24.11499023 C-9.10611791 20.48546095 -7.60937692 16.8545774 -6.11450195 13.22290039 C-5.44753912 11.60818993 -4.78047186 9.9935226 -4.11328125 8.37890625 C-3.81015015 7.63979004 -3.50701904 6.90067383 -3.19470215 6.13916016 C-1.11360422 1.11360422 -1.11360422 1.11360422 0 0 Z " fill="#3F5890" transform="translate(299,30)"/>
<path d="M0 0 C0.99 0.495 0.99 0.495 2 1 C4.29002974 9.72354018 4.28941733 18.82693337 4.20581055 27.78588867 C4.18735916 29.82808789 4.1853032 31.86983469 4.18554688 33.91210938 C4.15708779 40.35967334 4.01967704 46.62905785 3 53 C2.67 52.01 2.34 51.02 2 50 C-19.91782729 64.37545417 -41.79487935 78.80484362 -63.5 93.5 C-82.7672389 106.5436241 -102.17291356 119.3692503 -121.62136841 132.14065552 C-130.10853689 137.71903214 -138.55747491 143.35436149 -147 149 C-147.33 148.34 -147.66 147.68 -148 147 C-147.37320217 146.47950781 -147.37320217 146.47950781 -146.73374176 145.94850063 C-139.52231378 139.80755776 -132.92285938 133.05561793 -126.24023438 126.35375977 C-124.85997653 124.97321948 -123.47949772 123.59290009 -122.09881592 122.21278381 C-118.36989393 118.48414758 -114.64405332 114.7524462 -110.91877556 111.0201695 C-107.01816447 107.11328782 -103.11470272 103.2092564 -99.21154785 99.30491638 C-91.82911786 91.91938398 -84.44923972 84.53130717 -77.07028437 77.14230341 C-68.66595308 68.7267771 -60.25876665 60.31410557 -51.85134411 51.90166771 C-34.56439326 34.60427717 -17.28101501 17.30332063 0 0 Z " fill="#6F82AB" transform="translate(352,112)"/>
<path d="M0 0 C2.97 0 5.94 0 9 0 C13.95 18.81 18.9 37.62 24 57 C26.49245172 50.38487386 26.49245172 50.38487386 28.60986328 43.70141602 C28.88669952 42.74425186 29.16353577 41.78708771 29.44876099 40.80091858 C29.73637299 39.79540451 30.02398499 38.78989044 30.3203125 37.75390625 C30.62444061 36.70218735 30.92856873 35.65046844 31.24191284 34.56687927 C32.53530658 30.09387702 33.82131477 25.61876038 35.10791016 21.14379883 C36.05109398 17.86723969 36.99808671 14.59179872 37.9453125 11.31640625 C38.23697296 10.29672256 38.52863342 9.27703888 38.82913208 8.22645569 C39.23492996 6.82380714 39.23492996 6.82380714 39.64892578 5.39282227 C39.88636505 4.56645767 40.12380432 3.74009308 40.36843872 2.88868713 C41 1 41 1 42 0 C44.67058851 -0.14115161 47.32432238 -0.04247107 50 0 C52.51826814 6.40407263 54.48764747 12.87973308 56.35546875 19.5 C56.66196854 20.57628662 56.96846832 21.65257324 57.28425598 22.76147461 C58.25512874 26.17343739 59.22138205 29.58668818 60.1875 33 C60.84800178 35.32430559 61.50880592 37.64852528 62.16992188 39.97265625 C63.78344798 45.6474482 65.3931912 51.32330262 67 57 C69.25077138 50.52842883 71.1425905 44.00830442 72.8828125 37.3828125 C73.14254852 36.40384003 73.40228455 35.42486755 73.66989136 34.41622925 C74.49094768 31.31985681 75.30816977 28.2224897 76.125 25.125 C76.94964131 22.00626909 77.77509405 18.88775603 78.60153198 15.76950073 C79.11357063 13.83665034 79.62445661 11.90349413 80.13406372 9.97000122 C80.36455414 9.0983432 80.59504456 8.22668518 80.83251953 7.32861328 C81.03442902 6.56300079 81.2363385 5.79738831 81.44436646 5.00857544 C81.91046679 3.32365612 82.44717067 1.65848798 83 0 C85.97 0 88.94 0 92 0 C88.81838688 13.35070118 85.09483192 26.54098534 81.34448242 39.74121094 C80.30112285 43.41506092 79.26263087 47.09026363 78.22460938 50.765625 C77.56278516 53.10164331 76.90068614 55.43758378 76.23828125 57.7734375 C75.92788406 58.87223236 75.61748688 59.97102722 75.29768372 61.1031189 C74.86669624 62.61707748 74.86669624 62.61707748 74.42700195 64.16162109 C74.174814 65.0504599 73.92262604 65.93929871 73.66279602 66.85507202 C73 69 73 69 72 71 C69.03 71 66.06 71 63 71 C60.55424298 64.72849591 58.54654909 58.39278538 56.64453125 51.9375 C56.33803146 50.90560547 56.03153168 49.87371094 55.71574402 48.81054688 C54.74531312 45.54115307 53.77884732 42.27060285 52.8125 39 C52.15195508 36.77205761 51.49115046 34.5441922 50.83007812 32.31640625 C49.21704658 26.87849112 47.60726167 21.43962313 46 16 C41.65728134 28.83493223 37.49131151 41.7013125 33.625 54.6875 C32.97037995 56.88011482 32.31479942 59.07242901 31.65707397 61.26411438 C31.07600915 63.20105931 30.49810212 65.13895074 29.92041016 67.0769043 C29 70 29 70 28 72 C25.36 72 22.72 72 20 72 C17.12401434 64.80863074 15.05728888 57.43693772 12.98828125 49.98046875 C12.61162419 48.63139877 12.23476422 47.28238543 11.85771179 45.9334259 C11.07296694 43.12268559 10.29081289 40.31124084 9.51049805 37.49926758 C8.51019558 33.89543813 7.5031365 30.29353688 6.49413776 26.6921339 C5.71670838 23.9142776 4.94294275 21.13541109 4.17027855 18.35622597 C3.80023919 17.02702938 3.42903259 15.69815716 3.0566349 14.36961937 C2.53832916 12.51853368 2.02550409 10.66591603 1.51293945 8.81323242 C1.21998489 7.76036545 0.92703033 6.70749847 0.62519836 5.62272644 C0 3 0 3 0 0 Z " fill="#000000" transform="translate(384,175)"/>
<path d="M0 0 C-5.53813521 13.94082311 -29.50040769 24.46271897 -42.4296875 30.1796875 C-50.6881314 33.60888724 -59.33132351 35.8712459 -68 38 C-69.06476563 38.268125 -70.12953125 38.53625 -71.2265625 38.8125 C-77.86707292 40.19035807 -84.61526459 40.25734377 -91.375 40.375 C-92.80380493 40.41439697 -92.80380493 40.41439697 -94.26147461 40.45458984 C-100.01548813 40.46781395 -103.49964899 39.95745152 -108 36 C-111.11215079 31.33177382 -110.11740656 26.45940487 -110 21 C-98.32864027 18.44764065 -86.61998005 16.09805883 -74.90234375 13.76953125 C-73.91746035 13.57369635 -72.93257694 13.37786144 -71.91784859 13.17609215 C-66.72519888 12.14381823 -61.53226464 11.11298918 -56.33911133 10.08325195 C-50.98528584 9.02130824 -45.6325707 7.95386947 -40.28006649 6.88528919 C-36.14660939 6.06116656 -32.01232734 5.24124341 -27.87780952 4.42246056 C-25.90273844 4.03054213 -23.92798629 3.63701279 -21.9535656 3.24183083 C-19.2028999 2.69166188 -16.45111396 2.1474782 -13.69897461 1.60473633 C-12.48255531 1.35933609 -12.48255531 1.35933609 -11.24156189 1.10897827 C-7.43539349 0.36467528 -3.90117191 -0.2000047 0 0 Z " fill="#CCD3E1" transform="translate(313,241)"/>
<path d="M0 0 C-0.48632688 5.08363564 -2.04450366 8.05698863 -5 12.1875 C-5.60013916 13.02680054 -5.60013916 13.02680054 -6.21240234 13.88305664 C-10.23908655 19.45065227 -14.44842607 24.84997839 -19 30 C-19.85851562 30.98033203 -19.85851562 30.98033203 -20.734375 31.98046875 C-23.84454224 35.09804115 -26.11102514 36.24195997 -30.51928711 36.41430664 C-39.25190127 37.05032529 -47.75162566 39.00260064 -56.31640625 40.74609375 C-58.18234716 41.12152565 -60.04839224 41.49644017 -61.91453552 41.87086487 C-66.8024653 42.85300521 -71.68897011 43.84206066 -76.57519531 44.8326416 C-81.53041069 45.83595527 -86.48693415 46.83276162 -91.44335938 47.83007812 C-97.88200913 49.1262417 -104.32038264 50.42373532 -110.75758266 51.72708225 C-112.38022642 52.05513993 -114.00309069 52.38210929 -115.62619877 52.7078619 C-118.84661594 53.35493228 -122.06092243 54.01341364 -125.26901245 54.71975708 C-126.15339996 54.91286469 -127.03778748 55.10597229 -127.94897461 55.30493164 C-128.6575914 55.46715714 -129.36620819 55.62938263 -130.09629822 55.79652405 C-132.28994805 56.03099091 -133.9062283 55.65138304 -136 55 C-135.44691162 54.78085937 -134.89382324 54.56171875 -134.32397461 54.3359375 C-108.27199857 43.9981436 -82.33266727 33.37402841 -56.5 22.5 C-45.13723867 17.71951585 -33.75715132 12.98217577 -22.35839844 8.28808594 C-20.58591856 7.55770758 -18.81394037 6.82611046 -17.04248047 6.09326172 C-14.57530719 5.07302318 -12.1062981 4.05736673 -9.63671875 3.04296875 C-8.8924614 2.73429367 -8.14820404 2.42561859 -7.38139343 2.10758972 C-2.22872526 0 -2.22872526 0 0 0 Z " fill="#9EABC7" transform="translate(339,206)"/>
<path d="M0 0 C35.21052632 0 35.21052632 0 42 6 C45.33384397 10.58014079 46.66961962 15.11345647 46.38671875 20.76171875 C45.46570834 26.09241537 43.22303594 29.88814914 39.25 33.5 C38.5075 33.995 37.765 34.49 37 35 C38.6396875 36.051875 38.6396875 36.051875 40.3125 37.125 C43.8958249 39.75083727 45.67303128 41.62880892 47 46 C47.60477747 51.92681922 47.89445133 57.11171385 45.3125 62.5625 C41.36156349 66.72700064 38.40169753 68.83932099 33 71 C22.11 71 11.22 71 0 71 C0 47.57 0 24.14 0 0 Z M8 7 C8 14.92 8 22.84 8 31 C11.361875 31.061875 14.72375 31.12375 18.1875 31.1875 C19.23832764 31.21481201 20.28915527 31.24212402 21.37182617 31.27026367 C26.41309885 31.31521893 29.90908551 31.30578949 34 28 C34.5775 27.608125 35.155 27.21625 35.75 26.8125 C37.82199508 23.80810713 38.10776337 20.55619135 38 17 C36.73742999 13.28243275 35.71192361 11.5293791 32.5625 9.1875 C28.86161885 7.47245752 25.7392061 6.87329138 21.671875 6.90234375 C20.5905127 6.90609009 20.5905127 6.90609009 19.48730469 6.90991211 C18.13233887 6.92356812 18.13233887 6.92356812 16.75 6.9375 C12.41875 6.9684375 12.41875 6.9684375 8 7 Z M8 38 C8 46.91 8 55.82 8 65 C11.96 65.061875 11.96 65.061875 16 65.125 C16.8146875 65.14320801 17.629375 65.16141602 18.46875 65.18017578 C24.93861534 65.22838872 30.84049875 64.83787341 35.9375 60.5 C39.55015794 56.12102068 39.52672975 52.52587397 39 47 C37.25410024 42.7730848 35.07549148 40.98804462 31 39 C28.08583375 38.11141443 25.49328962 37.8818021 22.453125 37.90234375 C21.69161133 37.90484131 20.93009766 37.90733887 20.14550781 37.90991211 C19.18999023 37.91901611 18.23447266 37.92812012 17.25 37.9375 C14.1975 37.958125 11.145 37.97875 8 38 Z " fill="#000000" transform="translate(536,175)"/>
<path d="M0 0 C12.21 0 24.42 0 37 0 C37 2.31 37 4.62 37 7 C27.43 7 17.86 7 8 7 C8 15.25 8 23.5 8 32 C16.58 32 25.16 32 34 32 C34 34.31 34 36.62 34 39 C25.42 39 16.84 39 8 39 C8 47.58 8 56.16 8 65 C17.57 65 27.14 65 37 65 C37 66.98 37 68.96 37 71 C24.79 71 12.58 71 0 71 C0 47.57 0 24.14 0 0 Z " fill="#000000" transform="translate(486,175)"/>
<path d="M0 0 C-3.29425396 8.36970337 -14.28926889 14.38694254 -21.625 19.125 C-22.22860352 19.51518311 -22.83220703 19.90536621 -23.45410156 20.30737305 C-27.73540898 23 -27.73540898 23 -30 23 C-30 22.34 -30 21.68 -30 21 C-55.08 21 -80.16 21 -106 21 C-102.70616377 18.80410918 -100.6286179 18.39241664 -96.7578125 17.6953125 C-96.10614105 17.57526352 -95.4544696 17.45521454 -94.78305054 17.33152771 C-93.33644543 17.06547084 -91.889278 16.80245872 -90.44165039 16.54202271 C-86.34633583 15.80482077 -82.25525595 15.04484539 -78.1640625 14.28515625 C-77.24703552 14.11525681 -76.33000854 13.94535736 -75.38519287 13.77030945 C-66.96046824 12.1997072 -58.55378641 10.54148942 -50.1484375 8.87109375 C-48.76490725 8.59653496 -47.38137249 8.32199886 -45.99783325 8.04748535 C-40.44497102 6.94512074 -34.89227988 5.8419556 -29.34136963 4.72979736 C-26.66611165 4.19382528 -23.99040297 3.66022719 -21.31411743 3.12940979 C-18.84913768 2.64036912 -16.38488194 2.1476604 -13.92147827 1.65074158 C-12.81881622 1.43285477 -11.71615417 1.21496796 -10.58007812 0.99047852 C-9.13864441 0.7023806 -9.13864441 0.7023806 -7.66809082 0.40846252 C-5.06468458 0.00990267 -2.62885152 -0.07564866 0 0 Z " fill="#B6BFD5" transform="translate(313,241)"/>
</svg>
