<?xml version="1.0" encoding="UTF-8"?>
<svg version="1.1" xmlns="http://www.w3.org/2000/svg"  width="325" height="105" viewBox="0 0 1500 305"">
<path d="M0 0 C33.91135904 16.44617388 59.30662736 44.67602262 72.5 79.9375 C77.6687968 95.12123601 79.88098586 110.13798783 79.8125 126.1875 C79.81067719 126.86725891 79.80885437 127.54701782 79.80697632 128.24737549 C79.75941777 138.80227402 79.13130405 148.69038909 76.5 158.9375 C76.3443457 159.59717773 76.18869141 160.25685547 76.02832031 160.93652344 C71.80201154 178.69376887 63.67896346 195.52773682 52.5 209.9375 C51.79359375 210.86433594 51.0871875 211.79117188 50.359375 212.74609375 C29.49320627 239.20409547 1.12274198 256.15179629 -31.5 263.9375 C-32.5003125 264.185 -33.500625 264.4325 -34.53125 264.6875 C-41.25030046 266.07764837 -48.03609895 266.198221 -54.875 266.3125 C-56.30344238 266.35177612 -56.30344238 266.35177612 -57.76074219 266.3918457 C-63.48924096 266.40551391 -67.06613615 265.9490911 -71.5 261.9375 C-73.30545133 258.99586399 -73.75116265 256.79920877 -73.75726891 253.37031746 C-73.76694224 251.994947 -73.76694224 251.994947 -73.776811 250.59179127 C-73.7737138 249.5881069 -73.7706166 248.58442253 -73.76742554 247.55032349 C-73.77195665 246.48124846 -73.77648776 245.41217344 -73.78115618 244.3107022 C-73.79385045 240.71636863 -73.79217656 237.12218559 -73.79052734 233.52783203 C-73.79650943 230.95572717 -73.80331423 228.38362412 -73.81088257 225.81152344 C-73.82749778 219.54285593 -73.83299234 213.27422604 -73.83410732 207.00553836 C-73.83505753 201.91033225 -73.83916642 196.81513855 -73.84550858 191.71993637 C-73.86312219 177.2755242 -73.87234723 162.83114175 -73.87084763 148.38671876 C-73.87076772 147.60796388 -73.8706878 146.82920899 -73.87060547 146.02685547 C-73.87052371 145.24715027 -73.87044195 144.46744507 -73.87035771 143.66411243 C-73.86954471 131.0263097 -73.88868549 118.38862611 -73.9168822 105.75085784 C-73.94560295 92.77589135 -73.95942295 79.80098298 -73.95769465 66.82598388 C-73.95703048 59.54092177 -73.96253453 52.25598458 -73.98405075 44.97095108 C-74.00415342 38.12059922 -74.00359714 31.27051553 -73.98901749 24.42015076 C-73.98692113 21.90384919 -73.99167915 19.38753133 -74.0037384 16.87125778 C-74.01911917 13.44007317 -74.00992921 10.00980788 -73.99447632 6.5786438 C-74.00476344 5.57942087 -74.01505057 4.58019795 -74.02564943 3.55069554 C-73.96732481 -2.29679478 -73.39536408 -5.61029051 -69.5 -10.0625 C-51.95858792 -21.65891468 -16.99127758 -7.9404865 0 0 Z " fill="#274482" transform="translate(276.5,15.0625)"/>
<path d="M0 0 C4.32441679 1.44147226 5.32730813 4.65655422 7.3125 8.5 C7.70912842 9.26248047 8.10575684 10.02496094 8.5144043 10.81054688 C18.51868528 30.55546471 23.23080124 51.80684456 23.25 73.875 C23.25067474 74.56974426 23.25134949 75.26448853 23.25204468 75.98028564 C23.23560904 86.6302733 22.66059476 96.63882202 20 107 C19.8443457 107.65967773 19.68869141 108.31935547 19.52832031 108.99902344 C15.30201154 126.75626887 7.17896346 143.59023682 -4 158 C-4.70640625 158.92683594 -5.4128125 159.85367188 -6.140625 160.80859375 C-27.00679373 187.26659547 -55.37725802 204.21429629 -88 212 C-89.0003125 212.2475 -90.000625 212.495 -91.03125 212.75 C-97.75030046 214.14014837 -104.53609895 214.260721 -111.375 214.375 C-112.80344238 214.41427612 -112.80344238 214.41427612 -114.26074219 214.4543457 C-119.98924096 214.46801391 -123.56613615 214.0115911 -128 210 C-130.51527151 206.63672266 -130.20694366 203.34718296 -130.125 199.25 C-130.09792969 197.49429688 -130.09792969 197.49429688 -130.0703125 195.703125 C-130.04710937 194.81109375 -130.02390625 193.9190625 -130 193 C-129.34 193 -128.68 193 -128 193 C-127.78923828 192.18797119 -127.57847656 191.37594238 -127.36132812 190.53930664 C-125.60342888 185.96895776 -123.03537015 182.35205239 -120.21875 178.37109375 C-119.03199305 176.66559069 -117.84581266 174.95968631 -116.66015625 173.25341797 C-115.7467749 171.94543243 -115.7467749 171.94543243 -114.81494141 170.61102295 C-111.97594412 166.52676599 -109.19000716 162.40717965 -106.40625 158.28515625 C-105.85198334 157.46556931 -105.29771667 156.64598236 -104.72665405 155.80155945 C-102.98326115 153.22266436 -101.24140475 150.64273796 -99.5 148.0625 C-98.88892395 147.1574472 -98.2778479 146.25239441 -97.64825439 145.31991577 C-86.5790526 128.91639289 -75.65434816 112.42010948 -64.80664062 95.86938477 C-59.3604927 87.56615652 -53.87698827 79.29795375 -48.22807312 71.13110352 C-42.59991979 62.99214034 -37.07863641 54.78107125 -31.54907227 46.57495117 C-29.70099248 43.83252195 -27.85155811 41.09101011 -26.00195312 38.34960938 C-19.07137308 28.07193355 -12.16835663 17.77674891 -5.31852722 7.44502258 C-4.76586685 6.61327011 -4.21320648 5.78151764 -3.64379883 4.92456055 C-3.15599442 4.18884323 -2.66819 3.45312592 -2.16560364 2.69511414 C-1 1 -1 1 0 0 Z " fill="#576E9E" transform="translate(333,67)"/>
<path d="M0 0 C10.23 0 20.46 0 31 0 C35.95 24.75 40.9 49.5 46 75 C47.85175134 71.29649733 48.79944581 68.2406576 49.77172852 64.24365234 C49.93622498 63.57328445 50.10072144 62.90291656 50.27020264 62.2122345 C50.81084955 60.0045206 51.34480592 57.79524339 51.87890625 55.5859375 C52.2543091 54.04932953 52.63020628 52.51284225 53.00657654 50.97647095 C53.99498381 46.93734451 54.97805381 42.89693997 55.95959473 38.85614014 C57.53302877 32.3809764 59.11293282 25.90739651 60.69590569 19.43455887 C61.2482449 17.17163198 61.79732176 14.90793097 62.34608459 12.64413452 C62.68316876 11.2619158 63.02035688 9.87972243 63.35766602 8.49755859 C63.65141617 7.28828705 63.94516632 6.0790155 64.24781799 4.83309937 C65 2 65 2 66 0 C76.23 0 86.46 0 97 0 C102.94 25.08 108.88 50.16 115 76 C117.41755418 66.40159668 117.41755418 66.40159668 119.53393555 56.76269531 C119.79397873 55.48227356 120.05402191 54.20185181 120.32194519 52.88262939 C120.59359607 51.53113993 120.8651859 50.17963819 121.13671875 48.828125 C121.42365579 47.41033176 121.71083582 45.99258769 121.99824524 44.57489014 C122.74534056 40.88642951 123.48918626 37.19732123 124.2322998 33.50805664 C125.12925813 29.05862377 126.03035188 24.61002669 126.93073273 20.1612854 C128.29028199 13.44148349 129.64465457 6.72065721 131 0 C141.23 0 151.46 0 162 0 C158.93658566 13.28227244 155.58944531 26.4733047 152.140625 39.66015625 C151.58565946 41.78815695 151.03087349 43.91620448 150.47625732 46.04429626 C149.03138381 51.58641382 147.58410739 57.12790098 146.1362915 62.66925049 C144.65318197 68.34747336 143.1723985 74.02630273 141.69140625 79.70507812 C138.79651854 90.8039731 135.89887105 101.90214475 133 113 C121.45 113 109.9 113 98 113 C96.20240936 105.83271636 94.40557402 98.66525162 92.6105957 91.49731445 C92.00100206 89.06393786 91.39098431 86.63066747 90.78051758 84.19750977 C89.89810764 80.68013574 89.01727404 77.16236998 88.13671875 73.64453125 C87.73340584 72.03902153 87.73340584 72.03902153 87.32194519 70.40107727 C85.9534967 64.92768078 84.6104765 59.4482355 83.30395508 53.9597168 C83.05382156 52.91365768 82.80368805 51.86759857 82.54597473 50.7898407 C82 48 82 48 82 44 C81.34 44 80.68 44 80 44 C79.90396484 45.03914551 79.80792969 46.07829102 79.70898438 47.14892578 C78.91878652 53.42804151 77.23069333 59.49785042 75.65625 65.6171875 C75.32341254 66.92366561 74.99093985 68.23023669 74.65881348 69.53689575 C73.96580999 72.25909805 73.26958911 74.98044892 72.57080078 77.70117188 C71.67476149 81.190293 70.78510208 84.68100144 69.89759064 88.17230034 C69.21317774 90.86302368 68.52634182 93.55312347 67.83866882 96.24301529 C67.34976335 98.1561566 66.86219023 100.06963823 66.37463379 101.98312378 C66.07762573 103.13837555 65.78061768 104.29362732 65.47460938 105.48388672 C65.2133728 106.50344452 64.95213623 107.52300232 64.6829834 108.57345581 C64 111 64 111 63 113 C51.78 113 40.56 113 29 113 C25.62495443 102.8748633 25.62495443 102.8748633 24.6968689 99.19293213 C24.48383621 98.3547847 24.27080353 97.51663727 24.05131531 96.65309143 C23.82990372 95.76758102 23.60849213 94.88207062 23.38037109 93.96972656 C23.13770004 93.0108403 22.89502899 92.05195404 22.64500427 91.06401062 C21.85117232 87.92370688 21.06222089 84.78220028 20.2734375 81.640625 C19.7198783 79.44579531 19.16605126 77.25103315 18.61196899 75.05633545 C17.45504234 70.47086066 16.30035759 65.8848295 15.14746094 61.29833984 C13.67000896 55.42086108 12.18848383 49.54441902 10.70548058 43.66833878 C9.56344403 39.1424839 8.42278003 34.61628408 7.28261185 30.08995819 C6.73663264 27.92256291 6.19040777 25.75522951 5.64393234 23.58795929 C4.88162254 20.56319133 4.12097361 17.53801075 3.36083984 14.51269531 C3.13537979 13.61908798 2.90991974 12.72548065 2.67762756 11.80479431 C2.36653801 10.56449211 2.36653801 10.56449211 2.04916382 9.2991333 C1.7798533 8.22849073 1.7798533 8.22849073 1.50510216 7.13621902 C0.94570761 4.77038222 0.47677224 2.38386121 0 0 Z " fill="#FFFFFF" transform="translate(612,36)"/>
<path d="M0 0 C9.57 0 19.14 0 29 0 C37.74905798 10.34610824 37.74905798 10.34610824 40.171875 15.5859375 C44.29268318 23.88026721 49.39410495 31.42376751 54.55670166 39.09921265 C57.06562832 42.83994955 59.53660932 46.60537644 62.0078125 50.37109375 C62.43741272 51.02248322 62.86701294 51.67387268 63.30963135 52.34500122 C66.2785493 56.85711547 69.13538515 61.41661623 72 66 C72.33 44.22 72.66 22.44 73 0 C82.57 0 92.14 0 102 0 C102 37.29 102 74.58 102 113 C92.43 113 82.86 113 73 113 C63.9036841 100.49256564 63.9036841 100.49256564 59.79296875 94.00390625 C55.81003833 87.78591216 51.77331473 81.60796416 47.67578125 75.46484375 C47.20835007 74.76396133 46.74091888 74.06307892 46.25932312 73.34095764 C44.61140153 70.87245756 42.96186546 68.40503557 41.3125 65.9375 C37.579375 60.348125 33.84625 54.75875 30 49 C29.67 70.12 29.34 91.24 29 113 C19.43 113 9.86 113 0 113 C0 75.71 0 38.42 0 0 Z " fill="#FFFFFF" transform="translate(786,36)"/>
<path d="M0 0 C69.53092784 0 69.53092784 0 87.34765625 16.265625 C99.6178659 29.14499399 102.42977463 44.89098214 102.21484375 61.96484375 C101.78639328 76.28999191 95.87315839 88.71112967 86 99 C61.51043917 119.90969147 31.72961884 113 0 113 C0 75.71 0 38.42 0 0 Z M29 25 C29 46.12 29 67.24 29 89 C49.41425033 89.42485556 49.41425033 89.42485556 66 80 C73.03331366 71.56002361 73.79587731 61.56523933 73.1953125 50.94775391 C72.49916488 44.0054218 69.62590485 37.57493984 64.84375 32.5 C53.83158145 23.54094762 43.37375441 25 29 25 Z " fill="#FFFFFF" transform="translate(384,36)"/>
<path d="M0 0 C10.56 0 21.12 0 32 0 C34.97962967 7.15111122 37.8793635 14.17824273 40.42578125 21.46875 C40.7306395 22.33178238 41.03549774 23.19481476 41.34959412 24.08399963 C42.00189195 25.93109524 42.65278739 27.77868662 43.30236816 29.6267395 C45.04947637 34.59628585 46.80765735 39.56190725 48.56640625 44.52734375 C48.92858246 45.55025009 49.29075867 46.57315643 49.66390991 47.62705994 C54.28053102 60.64307831 59.0224968 73.61356913 63.77075195 86.58203125 C64.09189468 87.46100571 64.41303741 88.33998016 64.74391174 89.24559021 C65.33309319 90.8580088 65.92362327 92.46993574 66.51597595 94.08119202 C68.80681704 100.35313985 70.88545952 106.65637857 73 113 C63.1 113 53.2 113 43 113 C39 104 39 104 36 95 C15.705 94.505 15.705 94.505 -5 94 C-5.99 97.63 -6.98 101.26 -8 105 C-8.99 107.64 -9.98 110.28 -11 113 C-20.9 113 -30.8 113 -41 113 C-37.62498728 101.74995761 -37.62498728 101.74995761 -36.27685547 98.02075195 C-35.97097 97.17049942 -35.66508453 96.32024689 -35.34992981 95.44422913 C-34.86347237 94.10478493 -34.86347237 94.10478493 -34.3671875 92.73828125 C-33.84296455 91.28457375 -33.84296455 91.28457375 -33.30815125 89.80149841 C-32.16643857 86.63752675 -31.02086437 83.47497021 -29.875 80.3125 C-29.07655163 78.10390979 -28.27829597 75.8952499 -27.48022461 73.68652344 C-26.24349015 70.26443323 -25.00635158 66.84249179 -23.76799011 63.42098999 C-21.28013574 56.54692162 -18.80081633 49.66986682 -16.33050537 42.78947449 C-14.78061392 38.47311118 -13.22781834 34.15779572 -11.67462158 29.84262085 C-10.93690175 27.79114754 -10.20035796 25.73925091 -9.46502686 23.68692017 C-8.439773 20.8264824 -7.40988566 17.96775321 -6.37890625 15.109375 C-6.07965744 14.27095566 -5.78040863 13.43253632 -5.47209167 12.56871033 C-5.04806816 11.39726219 -5.04806816 11.39726219 -4.61547852 10.20214844 C-4.37442886 9.5313324 -4.13337921 8.86051636 -3.88502502 8.16937256 C-2.74600391 5.377405 -1.34851414 2.69702828 0 0 Z M15 34 C13.28719758 39.0890579 11.57830017 44.17940363 9.87304688 49.27099609 C9.29209472 51.00378013 8.71006726 52.73620403 8.12695312 54.46826172 C7.29015287 56.95446929 6.45719771 59.44193615 5.625 61.9296875 C5.36251465 62.70682098 5.1000293 63.48395447 4.82958984 64.28463745 C3.48183313 68.05949521 3.48183313 68.05949521 3 72 C11.58 72 20.16 72 29 72 C27.33458295 66.74655143 25.66475425 61.49497279 23.98291016 56.24682617 C23.41182041 54.45993608 22.84345157 52.67217407 22.27783203 50.88354492 C21.46575169 48.31717193 20.64403319 45.7540631 19.8203125 43.19140625 C19.56814972 42.3872377 19.31598694 41.58306915 19.05618286 40.75453186 C18.4280735 38.81684043 17.72109895 36.90504219 17 35 C16.34 34.67 15.68 34.34 15 34 Z " fill="#FFFFFF" transform="translate(534,36)"/>
<path d="M0 0 C0.27675035 6.32884352 -0.61175701 11.61850365 -2.375 17.6875 C-2.63756592 18.59306641 -2.90013184 19.49863281 -3.1706543 20.43164062 C-7.88346221 35.85973135 -15.11004102 50.25177273 -25 63 C-25.70640625 63.92683594 -26.4128125 64.85367188 -27.140625 65.80859375 C-48.00679373 92.26659547 -76.37725802 109.21429629 -109 117 C-110.0003125 117.2475 -111.000625 117.495 -112.03125 117.75 C-118.75030046 119.14014837 -125.53609895 119.260721 -132.375 119.375 C-133.80344238 119.41427612 -133.80344238 119.41427612 -135.26074219 119.4543457 C-140.98924096 119.46801391 -144.56613615 119.0115911 -149 115 C-151.28549027 111.83949345 -151.21621497 109.08102889 -151.125 105.25 C-151.09792969 103.77273438 -151.09792969 103.77273438 -151.0703125 102.265625 C-151.04710937 101.51796875 -151.02390625 100.7703125 -151 100 C-150.4225 99.7525 -149.845 99.505 -149.25 99.25 C-146.949728 98.12264705 -146.949728 98.12264705 -145.39086914 96.27905273 C-142.0696894 93.11319826 -138.33898359 90.7743841 -134.49609375 88.28515625 C-133.64269913 87.72642319 -132.7893045 87.16769012 -131.91004944 86.59202576 C-130.05995611 85.38102141 -128.20853934 84.17203704 -126.35595703 82.96484375 C-121.34324186 79.69739548 -116.34140123 76.41339953 -111.33984375 73.12890625 C-110.30914764 72.45231964 -109.27845154 71.77573303 -108.21652222 71.0786438 C-97.91754731 64.30760811 -87.70353934 57.4136607 -77.5 50.5 C-60.53620092 39.01078502 -43.46923424 27.68599636 -26.3359375 16.45117188 C-24.58715456 15.30351496 -22.8384535 14.15573327 -21.08984375 13.0078125 C-20.27063446 12.47065613 -19.45142517 11.93349976 -18.60739136 11.38006592 C-13.54842569 8.05238316 -8.56700773 4.64938871 -3.68188477 1.06982422 C-2 0 -2 0 0 0 Z " fill="#8797B9" transform="translate(354,162)"/>
<path d="M0 0 C-1.63653247 11.92984582 -4.05965185 23.69405535 -6.43383789 35.49389648 C-6.8859579 37.75200963 -7.33781956 40.01017452 -7.78944397 42.26838684 C-9.00994781 48.36751128 -10.23397151 54.46592456 -11.45859456 60.56422305 C-12.74155147 66.9564439 -14.02105739 73.34935539 -15.30088806 79.74220276 C-17.44855827 90.46773595 -19.59810429 101.19289147 -21.74926758 111.91772461 C-23.9607386 122.94326869 -26.1715391 133.9689467 -28.38110352 144.99487305 C-28.51741446 145.67507421 -28.65372541 146.35527536 -28.79416699 147.05608868 C-30.28277448 154.48448107 -31.77111061 161.91292779 -33.2591238 169.34143925 C-33.38992579 169.99443078 -33.52072777 170.64742232 -33.65549345 171.32020148 C-34.30759668 174.57566442 -34.95967859 177.83113163 -35.61173624 181.0866037 C-37.13569509 188.69456797 -38.66087595 196.30228595 -40.1870786 203.90980041 C-41.13495593 208.63536552 -42.08207017 213.36108335 -43.02901268 218.08683586 C-43.46847688 220.27908644 -43.9082789 222.47126933 -44.34844208 224.66337967 C-44.9488025 227.65349703 -45.54797612 230.64384987 -46.14686584 233.63426208 C-46.32157239 234.50283559 -46.49627893 235.37140909 -46.6762796 236.266303 C-47.5231161 240.50122691 -48.32126151 244.73399494 -49 249 C-49.33 249 -49.66 249 -50 249 C-50.09124384 217.89060081 -50.16203528 186.78123699 -50.20426132 155.67173576 C-50.20926416 151.99925591 -50.21444145 148.32677633 -50.21972656 144.65429688 C-50.2207758 143.92317012 -50.22182505 143.19204336 -50.22290608 142.43876125 C-50.24031291 130.59933019 -50.27185211 118.7599768 -50.30861118 106.92059182 C-50.34601293 94.77293438 -50.36823422 82.62531764 -50.37635398 70.47760499 C-50.38184337 62.98134623 -50.39918303 55.48530698 -50.43166587 47.98911579 C-50.45530265 42.24170982 -50.45782177 36.49444462 -50.45243073 30.74699974 C-50.45353272 28.38872233 -50.46150981 26.03043674 -50.4768219 23.67220879 C-50.49668734 20.45538996 -50.49195107 17.23951467 -50.48101807 14.02267456 C-50.49266943 13.08686928 -50.5043208 12.15106399 -50.51632524 11.18690097 C-50.46522499 5.63441902 -49.76631404 2.37089554 -46 -2 C-34.61057043 -9.52941369 -12.024432 -4.91140843 0 0 Z " fill="#103075" transform="translate(253,7)"/>
<path d="M0 0 C5.30102237 1.52187348 8.66108358 4.98204087 12.5625 8.6875 C13.26197754 9.3479834 13.96145508 10.0084668 14.68212891 10.68896484 C19.41043962 15.24698308 23.76713062 20.00184609 27.875 25.125 C28.61472046 26.04671997 28.61472046 26.04671997 29.36938477 26.98706055 C31.84596115 30.18154899 33.97555218 33.07084056 35 37 C33.94189453 39.14086914 33.94189453 39.14086914 32.0078125 41.47265625 C27.84076393 46.81509497 24.06965107 52.32156732 20.3671875 57.99609375 C19.76416809 58.91548737 19.16114868 59.83488098 18.53985596 60.78213501 C16.02480504 64.61765957 13.51564665 68.45702261 11.00683594 72.29663086 C3.88836427 83.18288003 -3.32618941 93.97260484 -10.8283844 104.59848022 C-16.66942129 112.89637609 -22.24104613 121.36247402 -27.79257202 129.85574341 C-39.65378119 147.99512902 -51.69536175 166.00737969 -63.83764648 183.95947266 C-65.01808393 185.70474075 -66.19850416 187.45002049 -67.37890625 189.1953125 C-68.23109993 190.45512436 -68.23109993 190.45512436 -69.10050964 191.74038696 C-75.05052956 200.54264276 -80.94292216 209.38295638 -86.81323242 218.23852539 C-87.46525635 219.22071045 -88.11728027 220.20289551 -88.7890625 221.21484375 C-89.34287598 222.05136475 -89.89668945 222.88788574 -90.46728516 223.74975586 C-91.92005543 225.88262996 -93.43366748 227.94952298 -95 230 C-94.40315696 225.04456887 -92.84179258 220.81513157 -90.8515625 216.28125 C-90.52727768 215.52694702 -90.20299286 214.77264404 -89.86888123 213.9954834 C-89.16363048 212.35615823 -88.45552797 210.71805761 -87.74490356 209.08105469 C-85.8060155 204.61247696 -83.89008481 200.1340681 -81.97265625 195.65625 C-81.56883224 194.71434814 -81.16500824 193.77244629 -80.74894714 192.80200195 C-76.08819042 181.90880798 -71.57224753 170.95636876 -67.0625 160 C-66.24767922 158.02195649 -65.43281957 156.04392899 -64.61791992 154.06591797 C-63.45098737 151.23301139 -62.28420197 148.40004474 -61.11793518 145.56686401 C-57.14363828 135.91385545 -53.13012074 126.27741886 -49.10498047 116.64550781 C-47.06652865 111.76511366 -45.03373124 106.88236268 -43 102 C-42.16668974 99.99999039 -41.33335649 97.99999035 -40.5 96 C-40.0875 95.01 -39.675 94.02 -39.25 93 C-25.5 60 -25.5 60 -24.24926758 56.99829102 C-23.4183294 55.0040069 -22.58743726 53.0097036 -21.7565918 51.01538086 C-19.63699526 45.92776721 -17.51652933 40.84051875 -15.39453125 35.75390625 C-14.53384669 33.69010728 -13.67316951 31.62630524 -12.8125 29.5625 C-12.19193726 28.07544556 -12.19193726 28.07544556 -11.55883789 26.55834961 C-9.64231947 21.96123065 -7.73424847 17.36108923 -5.8515625 12.75 C-5.52567139 11.95263428 -5.19978027 11.15526855 -4.86401367 10.33374023 C-4.26291994 8.86022903 -3.66399239 7.38583159 -3.06762695 5.91040039 C-1.10974235 1.10974235 -1.10974235 1.10974235 0 0 Z " fill="#3F5890" transform="translate(299,30)"/>
<path d="M0 0 C0.99 0.495 0.99 0.495 2 1 C4.29002974 9.72354018 4.28941733 18.82693337 4.20581055 27.78588867 C4.18735916 29.82808789 4.1853032 31.86983469 4.18554688 33.91210938 C4.15708779 40.35967334 4.01967704 46.62905785 3 53 C2.67 52.01 2.34 51.02 2 50 C-20.8053476 64.95756057 -43.55227068 79.99276 -66.13522339 95.28439331 C-82.13582825 106.11504064 -98.24176262 116.77976614 -114.40039062 127.37304688 C-116.13943105 128.51415814 -117.87836671 129.65542909 -119.6171875 130.796875 C-120.43817932 131.33521973 -121.25917114 131.87356445 -122.1050415 132.42822266 C-128.04394535 136.33559116 -133.88434982 140.36436897 -139.66845703 144.49707031 C-142 146 -142 146 -144 146 C-144.33 146.99 -144.66 147.98 -145 149 C-147.0625 149.6875 -147.0625 149.6875 -149 150 C-149 149.34 -149 148.68 -149 148 C-148.34 148 -147.68 148 -147 148 C-147 147.34 -147 146.68 -147 146 C-145.73051453 144.7499609 -145.73051453 144.7499609 -143.85424805 143.22215271 C-137.32675869 137.66343219 -131.38150569 131.51257014 -125.33203125 125.44555664 C-123.9616255 124.07486845 -122.59099878 122.70440115 -121.22016907 121.33413696 C-117.51810571 117.63235934 -113.81912363 113.9275168 -110.12070465 110.22209859 C-106.24812094 106.34324398 -102.37268627 102.46723992 -98.49755859 98.59092712 C-91.1682525 91.25851871 -83.84149826 83.92356593 -76.51566696 76.587686 C-68.17179417 68.23261789 -59.82506597 59.88040482 -51.47810173 51.52842534 C-34.31556489 34.355449 -17.15660068 17.17890669 0 0 Z " fill="#6F82AB" transform="translate(352,112)"/>
<path d="M0 0 C2.97 0 5.94 0 9 0 C13.95 18.81 18.9 37.62 24 57 C26.49245172 50.38487386 26.49245172 50.38487386 28.60986328 43.70141602 C28.88669952 42.74425186 29.16353577 41.78708771 29.44876099 40.80091858 C29.73637299 39.79540451 30.02398499 38.78989044 30.3203125 37.75390625 C30.62444061 36.70218735 30.92856873 35.65046844 31.24191284 34.56687927 C32.53530658 30.09387702 33.82131477 25.61876038 35.10791016 21.14379883 C36.05109398 17.86723969 36.99808671 14.59179872 37.9453125 11.31640625 C38.23697296 10.29672256 38.52863342 9.27703888 38.82913208 8.22645569 C39.23492996 6.82380714 39.23492996 6.82380714 39.64892578 5.39282227 C39.88636505 4.56645767 40.12380432 3.74009308 40.36843872 2.88868713 C41 1 41 1 42 0 C44.67058851 -0.14115161 47.32432238 -0.04247107 50 0 C52.51826814 6.40407263 54.48764747 12.87973308 56.35546875 19.5 C56.66196854 20.57628662 56.96846832 21.65257324 57.28425598 22.76147461 C58.25512874 26.17343739 59.22138205 29.58668818 60.1875 33 C60.84800178 35.32430559 61.50880592 37.64852528 62.16992188 39.97265625 C63.78344798 45.6474482 65.3931912 51.32330262 67 57 C69.25077138 50.52842883 71.1425905 44.00830442 72.8828125 37.3828125 C73.14254852 36.40384003 73.40228455 35.42486755 73.66989136 34.41622925 C74.49094768 31.31985681 75.30816977 28.2224897 76.125 25.125 C76.94964131 22.00626909 77.77509405 18.88775603 78.60153198 15.76950073 C79.11357063 13.83665034 79.62445661 11.90349413 80.13406372 9.97000122 C80.36455414 9.0983432 80.59504456 8.22668518 80.83251953 7.32861328 C81.03442902 6.56300079 81.2363385 5.79738831 81.44436646 5.00857544 C81.91046679 3.32365612 82.44717067 1.65848798 83 0 C85.97 0 88.94 0 92 0 C88.81838688 13.35070118 85.09483192 26.54098534 81.34448242 39.74121094 C80.30112285 43.41506092 79.26263087 47.09026363 78.22460938 50.765625 C77.56278516 53.10164331 76.90068614 55.43758378 76.23828125 57.7734375 C75.92788406 58.87223236 75.61748688 59.97102722 75.29768372 61.1031189 C74.86669624 62.61707748 74.86669624 62.61707748 74.42700195 64.16162109 C74.174814 65.0504599 73.92262604 65.93929871 73.66279602 66.85507202 C73 69 73 69 72 71 C69.03 71 66.06 71 63 71 C60.55424298 64.72849591 58.54654909 58.39278538 56.64453125 51.9375 C56.33803146 50.90560547 56.03153168 49.87371094 55.71574402 48.81054688 C54.74531312 45.54115307 53.77884732 42.27060285 52.8125 39 C52.15195508 36.77205761 51.49115046 34.5441922 50.83007812 32.31640625 C49.21704658 26.87849112 47.60726167 21.43962313 46 16 C41.65728134 28.83493223 37.49131151 41.7013125 33.625 54.6875 C32.97037995 56.88011482 32.31479942 59.07242901 31.65707397 61.26411438 C31.07600915 63.20105931 30.49810212 65.13895074 29.92041016 67.0769043 C29 70 29 70 28 72 C25.36 72 22.72 72 20 72 C17.12401434 64.80863074 15.05728888 57.43693772 12.98828125 49.98046875 C12.61162419 48.63139877 12.23476422 47.28238543 11.85771179 45.9334259 C11.07296694 43.12268559 10.29081289 40.31124084 9.51049805 37.49926758 C8.51019558 33.89543813 7.5031365 30.29353688 6.49413776 26.6921339 C5.71670838 23.9142776 4.94294275 21.13541109 4.17027855 18.35622597 C3.80023919 17.02702938 3.42903259 15.69815716 3.0566349 14.36961937 C2.53832916 12.51853368 2.02550409 10.66591603 1.51293945 8.81323242 C1.21998489 7.76036545 0.92703033 6.70749847 0.62519836 5.62272644 C0 3 0 3 0 0 Z " fill="#FFFFFF" transform="translate(384,175)"/>
<path d="M0 0 C-5.53813521 13.94082311 -29.50040769 24.46271897 -42.4296875 30.1796875 C-50.6881314 33.60888724 -59.33132351 35.8712459 -68 38 C-69.06476563 38.268125 -70.12953125 38.53625 -71.2265625 38.8125 C-77.86707292 40.19035807 -84.61526459 40.25734377 -91.375 40.375 C-92.80380493 40.41439697 -92.80380493 40.41439697 -94.26147461 40.45458984 C-99.98967563 40.46775463 -103.56632455 40.01142065 -108 36 C-110.11454452 32.71601415 -110.21689613 30.10963744 -110.125 26.25 C-110.09792969 24.77273438 -110.09792969 24.77273438 -110.0703125 23.265625 C-110.03550781 22.14414062 -110.03550781 22.14414062 -110 21 C-102.08729994 19.39089336 -94.17450904 17.78223438 -86.26161289 16.17409229 C-82.58427893 15.42673232 -78.90697234 14.67923828 -75.22973633 13.93139648 C-59.80592314 10.79473867 -44.38151601 7.66209296 -28.94459534 4.59040833 C-22.28300759 3.26359427 -15.63216741 1.89356322 -8.98828125 0.48046875 C-5.93985433 -0.00967048 -3.08201634 -0.08779357 0 0 Z " fill="#CCD3E1" transform="translate(313,241)"/>
<path d="M0 0 C-0.48632688 5.08363564 -2.04450366 8.05698863 -5 12.1875 C-5.60013916 13.02680054 -5.60013916 13.02680054 -6.21240234 13.88305664 C-10.23908655 19.45065227 -14.44842607 24.84997839 -19 30 C-19.85851562 30.98033203 -19.85851562 30.98033203 -20.734375 31.98046875 C-23.92773913 35.18143613 -26.26917791 36.26069119 -30.79296875 36.48046875 C-37.94606347 36.99966401 -44.9031726 38.33438786 -51.9375 39.6875 C-53.35758025 39.95713575 -54.77766496 40.22674795 -56.19775391 40.49633789 C-68.56587518 42.85943161 -80.87006786 45.50033978 -93.17480469 48.171875 C-99.84466469 49.61584776 -106.51674628 51.04804617 -113.19537354 52.45095825 C-114.72125724 52.77309554 -116.2464613 53.09847058 -117.77093506 53.42721558 C-119.89772888 53.88548782 -122.02657882 54.33266435 -124.15625 54.77734375 C-125.38150391 55.03765381 -126.60675781 55.29796387 -127.86914062 55.56616211 C-130.71751508 55.96085654 -132.33973224 55.97529382 -135 55 C-121.50860394 49.34479931 -107.99016275 43.75873626 -94.45193481 38.21679688 C-81.77930618 33.02919091 -69.11973328 27.81506973 -56.5 22.5 C-45.13735462 17.71924517 -33.7571483 12.98217453 -22.35839844 8.28808594 C-20.58591856 7.55770758 -18.81394037 6.82611046 -17.04248047 6.09326172 C-14.57530719 5.07302318 -12.1062981 4.05736673 -9.63671875 3.04296875 C-8.8924614 2.73429367 -8.14820404 2.42561859 -7.38139343 2.10758972 C-2.22872526 0 -2.22872526 0 0 0 Z " fill="#9EABC7" transform="translate(339,206)"/>
<path d="M0 0 C35.21052632 0 35.21052632 0 42 6 C45.33384397 10.58014079 46.66961962 15.11345647 46.38671875 20.76171875 C45.46570834 26.09241537 43.22303594 29.88814914 39.25 33.5 C38.5075 33.995 37.765 34.49 37 35 C38.6396875 36.051875 38.6396875 36.051875 40.3125 37.125 C43.8958249 39.75083727 45.67303128 41.62880892 47 46 C47.60477747 51.92681922 47.89445133 57.11171385 45.3125 62.5625 C41.36156349 66.72700064 38.40169753 68.83932099 33 71 C22.11 71 11.22 71 0 71 C0 47.57 0 24.14 0 0 Z M8 7 C8 14.92 8 22.84 8 31 C11.361875 31.061875 14.72375 31.12375 18.1875 31.1875 C19.23832764 31.21481201 20.28915527 31.24212402 21.37182617 31.27026367 C26.41309885 31.31521893 29.90908551 31.30578949 34 28 C34.5775 27.608125 35.155 27.21625 35.75 26.8125 C37.82199508 23.80810713 38.10776337 20.55619135 38 17 C36.73742999 13.28243275 35.71192361 11.5293791 32.5625 9.1875 C28.86161885 7.47245752 25.7392061 6.87329138 21.671875 6.90234375 C20.5905127 6.90609009 20.5905127 6.90609009 19.48730469 6.90991211 C18.13233887 6.92356812 18.13233887 6.92356812 16.75 6.9375 C12.41875 6.9684375 12.41875 6.9684375 8 7 Z M8 38 C8 46.91 8 55.82 8 65 C11.96 65.061875 11.96 65.061875 16 65.125 C16.8146875 65.14320801 17.629375 65.16141602 18.46875 65.18017578 C24.93861534 65.22838872 30.84049875 64.83787341 35.9375 60.5 C39.55015794 56.12102068 39.52672975 52.52587397 39 47 C37.25410024 42.7730848 35.07549148 40.98804462 31 39 C28.08583375 38.11141443 25.49328962 37.8818021 22.453125 37.90234375 C21.69161133 37.90484131 20.93009766 37.90733887 20.14550781 37.90991211 C19.18999023 37.91901611 18.23447266 37.92812012 17.25 37.9375 C14.1975 37.958125 11.145 37.97875 8 38 Z " fill="#FFFFFF" transform="translate(536,175)"/>
<path d="M0 0 C12.21 0 24.42 0 37 0 C37 2.31 37 4.62 37 7 C27.43 7 17.86 7 8 7 C8 15.25 8 23.5 8 32 C16.58 32 25.16 32 34 32 C34 34.31 34 36.62 34 39 C25.42 39 16.84 39 8 39 C8 47.58 8 56.16 8 65 C17.57 65 27.14 65 37 65 C37 66.98 37 68.96 37 71 C24.79 71 12.58 71 0 71 C0 47.57 0 24.14 0 0 Z " fill="#FFFFFF" transform="translate(486,175)"/>
<path d="M0 0 C-3.29425396 8.36970337 -14.28926889 14.38694254 -21.625 19.125 C-22.22860352 19.51518311 -22.83220703 19.90536621 -23.45410156 20.30737305 C-27.73540898 23 -27.73540898 23 -30 23 C-30 22.34 -30 21.68 -30 21 C-54.75 21 -79.5 21 -105 21 C-101.65449351 19.32724676 -99.46129581 18.54538059 -95.89379883 17.8425293 C-94.87365189 17.63859055 -93.85350494 17.43465179 -92.80244446 17.22453308 C-91.6984581 17.00992935 -90.59447174 16.79532562 -89.45703125 16.57421875 C-87.72328499 16.2300164 -87.72328499 16.2300164 -85.95451355 15.87886047 C-82.24155773 15.14298164 -78.52708997 14.41508021 -74.8125 13.6875 C-72.39247231 13.20951983 -69.97254928 12.73100942 -67.55273438 12.25195312 C-62.74259194 11.30033276 -57.93192926 10.35141122 -53.12084961 9.40454102 C-46.15912373 8.03312513 -39.20002805 6.64879656 -32.2421875 5.2578125 C-30.7297924 4.95583199 -30.7297924 4.95583199 -29.18684387 4.64775085 C-22.44532518 3.29846221 -15.71312405 1.91078197 -8.98828125 0.48046875 C-5.93985433 -0.00967048 -3.08201634 -0.08779357 0 0 Z " fill="#B6BFD5" transform="translate(313,241)"/>
</svg>
