<?xml version="1.0" encoding="UTF-8"?>
<svg version="1.1" xmlns="http://www.w3.org/2000/svg" width="569" height="569">
<path d="M0 0 C0.64098633 0.31018066 1.28197266 0.62036133 1.94238281 0.93994141 C22.61377934 11.10364677 41.41640452 25.09662195 58 41 C58.53125488 41.50402344 59.06250977 42.00804688 59.60986328 42.52734375 C67.37102302 49.92199787 74.31058921 57.6623616 80.70898438 66.26464844 C81.55007113 67.39521664 82.39744514 68.52114296 83.25195312 69.64160156 C112.77239684 108.35502023 127.5411277 156.20360828 127.3125 204.625 C127.31034485 205.45316223 127.3081897 206.28132446 127.30596924 207.13458252 C127.06621714 264.80119955 105.00904177 319.41454822 65 361 C64.40026367 361.62696777 63.80052734 362.25393555 63.18261719 362.89990234 C22.05331742 405.67478808 -34.19668492 430.92626359 -93.67016602 432.32714844 C-94.62463623 432.34293945 -95.57910645 432.35873047 -96.5625 432.375 C-97.45445068 432.40110352 -98.34640137 432.42720703 -99.26538086 432.45410156 C-106.37021111 432.47268496 -113.54558399 431.15059336 -118.95141602 426.22021484 C-123.66459071 420.98467505 -125.24963685 417.06352276 -125.25447559 409.93683147 C-125.25768207 409.22181958 -125.26088855 408.50680768 -125.26419219 407.77012876 C-125.2725278 405.3617831 -125.26655553 402.95368383 -125.26069641 400.54533386 C-125.26371548 398.80620306 -125.26760373 397.06707359 -125.27228898 395.32794648 C-125.28260941 390.53901128 -125.28037689 385.75015061 -125.27610838 380.96120918 C-125.27364845 375.80021656 -125.28264623 370.63924222 -125.29014587 365.47825623 C-125.30291574 355.36310806 -125.30468369 345.24798641 -125.30234561 335.13283154 C-125.3005647 326.91263595 -125.30230721 318.69244842 -125.30657005 310.4722538 C-125.30716524 309.30361438 -125.30776043 308.13497495 -125.30837366 306.93092221 C-125.30958537 304.55703447 -125.31079951 302.18314672 -125.31201603 299.80925898 C-125.32290056 277.53049087 -125.32072487 255.25173788 -125.31463119 232.97296891 C-125.30946226 212.58250865 -125.32071522 192.19209617 -125.33972941 171.80164536 C-125.35909245 150.87704078 -125.36736643 129.95245881 -125.36360615 109.0278452 C-125.36169164 97.27539042 -125.36420587 85.52297629 -125.37832069 73.77052879 C-125.390216 63.76459924 -125.39166026 53.75873538 -125.37953053 43.75280496 C-125.37362858 38.64617031 -125.37257865 33.53965592 -125.38453293 28.43302917 C-125.39534702 23.75919376 -125.39234186 19.08557963 -125.37827124 14.41175476 C-125.37561192 12.71997106 -125.3780294 11.02817026 -125.38600711 9.33640327 C-125.39609594 7.03756524 -125.38770646 4.73949899 -125.37473011 2.44069195 C-125.37478513 1.16358245 -125.37484014 -0.11352706 -125.37489682 -1.42933685 C-124.63180046 -8.50687562 -121.36014386 -14.3430148 -116 -19 C-88.450771 -38.15488315 -26.50901961 -12.85228665 0 0 Z " fill="#284583" transform="translate(326,65)"/>
<path d="M0 0 C0.64098633 0.31018066 1.28197266 0.62036133 1.94238281 0.93994141 C22.61377934 11.10364677 41.41640452 25.09662195 58 41 C58.53125488 41.50402344 59.06250977 42.00804688 59.60986328 42.52734375 C67.37102302 49.92199787 74.31058921 57.6623616 80.70898438 66.26464844 C81.55007113 67.39521664 82.39744514 68.52114296 83.25195312 69.64160156 C112.77239684 108.35502023 127.5411277 156.20360828 127.3125 204.625 C127.31034485 205.45316223 127.3081897 206.28132446 127.30596924 207.13458252 C127.06621714 264.80119955 105.00904177 319.41454822 65 361 C64.40026367 361.62696777 63.80052734 362.25393555 63.18261719 362.89990234 C22.05331742 405.67478808 -34.19668492 430.92626359 -93.67016602 432.32714844 C-94.62463623 432.34293945 -95.57910645 432.35873047 -96.5625 432.375 C-97.45445068 432.40110352 -98.34640137 432.42720703 -99.26538086 432.45410156 C-106.37021111 432.47268496 -113.54558399 431.15059336 -118.95141602 426.22021484 C-123.66459071 420.98467505 -125.24963685 417.06352276 -125.25447559 409.93683147 C-125.25768207 409.22181958 -125.26088855 408.50680768 -125.26419219 407.77012876 C-125.2725278 405.3617831 -125.26655553 402.95368383 -125.26069641 400.54533386 C-125.26371548 398.80620306 -125.26760373 397.06707359 -125.27228898 395.32794648 C-125.28260941 390.53901128 -125.28037689 385.75015061 -125.27610838 380.96120918 C-125.27364845 375.80021656 -125.28264623 370.63924222 -125.29014587 365.47825623 C-125.30291574 355.36310806 -125.30468369 345.24798641 -125.30234561 335.13283154 C-125.3005647 326.91263595 -125.30230721 318.69244842 -125.30657005 310.4722538 C-125.30716524 309.30361438 -125.30776043 308.13497495 -125.30837366 306.93092221 C-125.30958537 304.55703447 -125.31079951 302.18314672 -125.31201603 299.80925898 C-125.32290056 277.53049087 -125.32072487 255.25173788 -125.31463119 232.97296891 C-125.30946226 212.58250865 -125.32071522 192.19209617 -125.33972941 171.80164536 C-125.35909245 150.87704078 -125.36736643 129.95245881 -125.36360615 109.0278452 C-125.36169164 97.27539042 -125.36420587 85.52297629 -125.37832069 73.77052879 C-125.390216 63.76459924 -125.39166026 53.75873538 -125.37953053 43.75280496 C-125.37362858 38.64617031 -125.37257865 33.53965592 -125.38453293 28.43302917 C-125.39534702 23.75919376 -125.39234186 19.08557963 -125.37827124 14.41175476 C-125.37561192 12.71997106 -125.3780294 11.02817026 -125.38600711 9.33640327 C-125.39609594 7.03756524 -125.38770646 4.73949899 -125.37473011 2.44069195 C-125.37478513 1.16358245 -125.37484014 -0.11352706 -125.37489682 -1.42933685 C-124.63180046 -8.50687562 -121.36014386 -14.3430148 -116 -19 C-88.450771 -38.15488315 -26.50901961 -12.85228665 0 0 Z M-118 -13 C-120.69304051 -8.51540491 -121.37402916 -5.21638223 -121.36914349 -0.01476479 C-121.37260502 0.66750775 -121.37606655 1.34978029 -121.37963298 2.05272776 C-121.38757045 4.33773232 -121.37411843 6.62210202 -121.36076355 8.90707397 C-121.36207192 10.56217396 -121.36469891 12.21727334 -121.36853105 13.87236941 C-121.37524185 18.41952242 -121.36323515 22.9664636 -121.34819686 27.51358962 C-121.33524936 32.41741539 -121.33962505 37.32122908 -121.34190369 42.22506714 C-121.34347723 50.72099007 -121.3340595 59.21684392 -121.31719017 67.71274948 C-121.2928158 79.9964134 -121.2849965 92.28004388 -121.2812262 104.56372936 C-121.27465926 124.49286325 -121.25469152 144.42196032 -121.22631836 164.35107422 C-121.19878406 183.71109839 -121.17754739 203.07111255 -121.16479492 222.43115234 C-121.16400675 223.62437423 -121.16321858 224.81759612 -121.16240653 226.04697625 C-121.15849143 232.03298089 -121.1547003 238.01898559 -121.15097082 244.00499034 C-121.11986738 293.67001901 -121.06702498 343.33500771 -121 393 C-117.19571846 391.30920821 -116.00923396 389.65315265 -114 386 C-113.34 385.34 -112.68 384.68 -112 384 C-111.2969178 382.32341937 -110.59498369 380.64633909 -109.90136719 378.96582031 C-108.33131904 375.54165247 -106.23181429 372.48777066 -104.125 369.375 C-103.49271484 368.41207031 -103.49271484 368.41207031 -102.84765625 367.4296875 C-100.92749468 364.56412528 -99.10249242 362.09979968 -96.62109375 359.68359375 C-92.78618881 355.75724547 -89.9473803 351.261369 -86.9375 346.6875 C-86.32583984 345.77548828 -85.71417969 344.86347656 -85.08398438 343.92382812 C-82.06436364 339.3699136 -79.3592168 334.86000152 -77.00805664 329.93188477 C-75.099594 326.27442173 -72.64499666 322.9754809 -70.25 319.625 C-69.25099044 318.22435301 -68.25597768 316.82084381 -67.265625 315.4140625 C-66.83024414 314.8051416 -66.39486328 314.1962207 -65.94628906 313.56884766 C-64.82783561 312.01992664 -64.82783561 312.01992664 -65 310 C-64.01 309.67 -63.02 309.34 -62 309 C-62 308.01 -62 307.02 -62 306 C-61.34 306 -60.68 306 -60 306 C-60 305.01 -60 304.02 -60 303 C-59.34 303 -58.68 303 -58 303 C-58 302.01 -58 301.02 -58 300 C-57.34 300 -56.68 300 -56 300 C-56 299.01 -56 298.02 -56 297 C-55.34 297 -54.68 297 -54 297 C-54 296.01 -54 295.02 -54 294 C-53.34 294 -52.68 294 -52 294 C-52 293.01 -52 292.02 -52 291 C-51.34 291 -50.68 291 -50 291 C-50 290.01 -50 289.02 -50 288 C-49.34 288 -48.68 288 -48 288 C-48 287.01 -48 286.02 -48 285 C-47.34 285 -46.68 285 -46 285 C-45.46246094 283.86949219 -44.92492187 282.73898437 -44.37109375 281.57421875 C-41.95239211 276.74213597 -39.07139641 272.29391501 -36.0625 267.8125 C-35.55009766 267.03197266 -35.03769531 266.25144531 -34.50976562 265.44726562 C-31.64548662 261.15630636 -28.65456904 257.65456904 -25 254 C-22.85972805 251.14017562 -20.89735535 248.17288973 -18.9375 245.1875 C-18.42123047 244.41857422 -17.90496094 243.64964844 -17.37304688 242.85742188 C-15.05516877 239.35845939 -12.88237036 235.89983583 -11.07421875 232.109375 C-8.50763772 226.78082162 -5.16859755 221.96215079 -1.875 217.0625 C-1.24207031 216.10537109 -0.60914063 215.14824219 0.04296875 214.16210938 C0.65011719 213.25396484 1.25726563 212.34582031 1.8828125 211.41015625 C2.70869873 210.17471069 2.70869873 210.17471069 3.55126953 208.91430664 C5 207 5 207 7 206 C7 205.01 7 204.02 7 203 C7.66 203 8.32 203 9 203 C9 202.01 9 201.02 9 200 C9.66 200 10.32 200 11 200 C11 199.01 11 198.02 11 197 C11.66 197 12.32 197 13 197 C13 196.01 13 195.02 13 194 C13.66 194 14.32 194 15 194 C15 193.01 15 192.02 15 191 C15.66 191 16.32 191 17 191 C17 190.01 17 189.02 17 188 C17.66 188 18.32 188 19 188 C19 187.01 19 186.02 19 185 C19.66 185 20.32 185 21 185 C21.51691406 183.90042969 22.03382813 182.80085937 22.56640625 181.66796875 C25.26815625 176.27041188 28.57969253 171.31913601 31.9375 166.3125 C32.84918945 164.92708008 32.84918945 164.92708008 33.77929688 163.51367188 C36.88714363 158.85693063 40.00953877 154.93930147 44 151 C46.14070965 148.14053831 48.10266654 145.17285637 50.0625 142.1875 C50.57876953 141.41857422 51.09503906 140.64964844 51.62695312 139.85742188 C53.97927675 136.30646201 56.1701573 132.79280574 58.01171875 128.94921875 C60.14392533 124.51680687 62.89568568 120.61804339 65.75 116.625 C66.74900956 115.22435301 67.74402232 113.82084381 68.734375 112.4140625 C69.16975586 111.8051416 69.60513672 111.1962207 70.05371094 110.56884766 C71.17216439 109.01992664 71.17216439 109.01992664 71 107 C71.99 106.67 72.98 106.34 74 106 C74 105.01 74 104.02 74 103 C74.66 103 75.32 103 76 103 C76 102.01 76 101.02 76 100 C76.66 100 77.32 100 78 100 C78 99.01 78 98.02 78 97 C78.66 97 79.32 97 80 97 C80 96.01 80 95.02 80 94 C80.66 94 81.32 94 82 94 C82 93.01 82 92.02 82 91 C82.66 91 83.32 91 84 91 C86.20672259 87.52016823 87.15934707 85.82102607 86.359375 81.69921875 C84.92754579 77.80283295 83.0747957 74.68046141 80.625 71.375 C80.18365723 70.77091309 79.74231445 70.16682617 79.28759766 69.54443359 C74.3344033 62.90497174 68.77027471 56.92818416 63 51 C62.38318359 50.35740234 61.76636719 49.71480469 61.13085938 49.05273438 C45.20210912 32.48873985 26.86521564 17.05849749 6 7 C5.34 7 4.68 7 4 7 C4 6.34 4 5.68 4 5 C3.35933594 4.75765625 2.71867187 4.5153125 2.05859375 4.265625 C-1.93042895 2.71995301 -5.64068688 1.21694377 -9.3125 -1 C-13.44743262 -3.49454855 -17.98409175 -4.588346 -22.59375 -5.92578125 C-25.90766839 -6.97088166 -29.00822379 -8.22792115 -32.1875 -9.625 C-36.62170537 -11.53790918 -40.7856055 -12.78619564 -45.55078125 -13.54296875 C-48 -14 -48 -14 -51.3046875 -14.953125 C-55.11256911 -16.03189062 -58.92506148 -16.84429288 -62.8125 -17.5625 C-63.46025391 -17.68818359 -64.10800781 -17.81386719 -64.77539062 -17.94335938 C-74.57138736 -19.77591116 -84.29726759 -20.20455373 -94.25 -20.25 C-95.3946875 -20.270625 -96.539375 -20.29125 -97.71875 -20.3125 C-106.19243319 -20.35191248 -111.70004935 -18.95941278 -118 -13 Z " fill="#576E9E" transform="translate(326,65)"/>
<path d="M0 0 C0.64098633 0.31018066 1.28197266 0.62036133 1.94238281 0.93994141 C22.61377934 11.10364677 41.41640452 25.09662195 58 41 C58.53125488 41.50402344 59.06250977 42.00804688 59.60986328 42.52734375 C67.37102302 49.92199787 74.31058921 57.6623616 80.70898438 66.26464844 C81.55007113 67.39521664 82.39744514 68.52114296 83.25195312 69.64160156 C112.77239684 108.35502023 127.5411277 156.20360828 127.3125 204.625 C127.31034485 205.45316223 127.3081897 206.28132446 127.30596924 207.13458252 C127.06621714 264.80119955 105.00904177 319.41454822 65 361 C64.40026367 361.62696777 63.80052734 362.25393555 63.18261719 362.89990234 C22.05331742 405.67478808 -34.19668492 430.92626359 -93.67016602 432.32714844 C-94.62463623 432.34293945 -95.57910645 432.35873047 -96.5625 432.375 C-97.45445068 432.40110352 -98.34640137 432.42720703 -99.26538086 432.45410156 C-106.37021111 432.47268496 -113.54558399 431.15059336 -118.95141602 426.22021484 C-123.66459071 420.98467505 -125.24963685 417.06352276 -125.25447559 409.93683147 C-125.25768207 409.22181958 -125.26088855 408.50680768 -125.26419219 407.77012876 C-125.2725278 405.3617831 -125.26655553 402.95368383 -125.26069641 400.54533386 C-125.26371548 398.80620306 -125.26760373 397.06707359 -125.27228898 395.32794648 C-125.28260941 390.53901128 -125.28037689 385.75015061 -125.27610838 380.96120918 C-125.27364845 375.80021656 -125.28264623 370.63924222 -125.29014587 365.47825623 C-125.30291574 355.36310806 -125.30468369 345.24798641 -125.30234561 335.13283154 C-125.3005647 326.91263595 -125.30230721 318.69244842 -125.30657005 310.4722538 C-125.30716524 309.30361438 -125.30776043 308.13497495 -125.30837366 306.93092221 C-125.30958537 304.55703447 -125.31079951 302.18314672 -125.31201603 299.80925898 C-125.32290056 277.53049087 -125.32072487 255.25173788 -125.31463119 232.97296891 C-125.30946226 212.58250865 -125.32071522 192.19209617 -125.33972941 171.80164536 C-125.35909245 150.87704078 -125.36736643 129.95245881 -125.36360615 109.0278452 C-125.36169164 97.27539042 -125.36420587 85.52297629 -125.37832069 73.77052879 C-125.390216 63.76459924 -125.39166026 53.75873538 -125.37953053 43.75280496 C-125.37362858 38.64617031 -125.37257865 33.53965592 -125.38453293 28.43302917 C-125.39534702 23.75919376 -125.39234186 19.08557963 -125.37827124 14.41175476 C-125.37561192 12.71997106 -125.3780294 11.02817026 -125.38600711 9.33640327 C-125.39609594 7.03756524 -125.38770646 4.73949899 -125.37473011 2.44069195 C-125.37478513 1.16358245 -125.37484014 -0.11352706 -125.37489682 -1.42933685 C-124.63180046 -8.50687562 -121.36014386 -14.3430148 -116 -19 C-88.450771 -38.15488315 -26.50901961 -12.85228665 0 0 Z M-113 -17 C-114.299375 -16.1646875 -114.299375 -16.1646875 -115.625 -15.3125 C-121.05432742 -10.02604961 -122.24974054 -5.11332202 -122.49219131 2.27818298 C-122.52390866 5.27319199 -122.50427199 8.26646264 -122.48101807 11.26147461 C-122.48276343 12.93067626 -122.4862677 14.59987683 -122.49137473 16.26907158 C-122.50030543 20.84597209 -122.48433732 25.42249714 -122.46426249 29.99934983 C-122.4469744 34.93858705 -122.45283515 39.87780342 -122.45587158 44.81706238 C-122.45796808 53.37135832 -122.44542749 61.92553214 -122.42292023 70.47979736 C-122.39039983 82.84777956 -122.37999316 95.21570275 -122.37496826 107.58372307 C-122.36621568 127.65041265 -122.33960107 147.71703715 -122.30175781 167.78369141 C-122.26503679 187.27555008 -122.23672546 206.76739106 -122.21972656 226.25927734 C-122.21867567 227.46093477 -122.21762477 228.6625922 -122.21654204 229.9006635 C-122.21132185 235.92907902 -122.20626703 241.95749468 -122.20129442 247.98591042 C-122.15983354 297.99065192 -122.08938608 347.99532278 -122 398 C-117.98807639 397.31328918 -116.10765839 396.55847677 -113.1875 393.6875 C-110.74208815 391.28380094 -108.47301978 389.67876851 -105.39282227 388.23925781 C-100.77051494 385.96517956 -96.60012381 383.1973744 -92.359375 380.28515625 C-91.53657043 379.72642319 -90.71376587 379.16769012 -89.86602783 378.59202576 C-88.08887023 377.38493518 -86.31309554 376.17580654 -84.53857422 374.96484375 C-79.71576235 371.67475882 -74.88145729 368.40166122 -70.046875 365.12890625 C-69.04781128 364.45231964 -68.04874756 363.77573303 -67.01940918 363.0786438 C-56.73939747 356.12783417 -46.37518083 349.30756459 -36 342.5 C-21.43010686 332.93476913 -6.93271199 323.2709697 7.5 313.5 C22.83076913 303.12104414 38.24331256 292.87621608 53.71896362 282.71469116 C74.0343348 269.37064172 94.18295309 255.78276272 114.3028717 242.14631653 C115.86452117 241.09150847 117.43199485 240.04533677 119 239 C119 238.34 119 237.68 119 237 C119.66 237 120.32 237 121 237 C121 235.02 121 233.04 121 231 C121.66 231 122.32 231 123 231 C124.19333395 222.47343646 124.24328112 213.96719484 124.25 205.375 C124.25067474 204.59888367 124.25134949 203.82276733 124.25204468 203.02313232 C124.21474002 175.91066269 119.25810799 150.66988538 109.81542969 125.27539062 C108.68774668 122.12868235 107.70405338 118.93937007 106.73291016 115.74121094 C106.13703966 113.79732107 106.13703966 113.79732107 104 113 C103.32899053 111.35910347 102.73756228 109.68529719 102.1875 108 C100.29682622 102.60601892 97.97074368 97.87102385 95 93 C94.49726563 92.17113281 93.99453125 91.34226562 93.4765625 90.48828125 C72.36453762 56.54054171 42.48569589 24.58866464 6 7 C5.34 7 4.68 7 4 7 C4 6.34 4 5.68 4 5 C3.35933594 4.75765625 2.71867187 4.5153125 2.05859375 4.265625 C-1.93042895 2.71995301 -5.64068688 1.21694377 -9.3125 -1 C-13.44743262 -3.49454855 -17.98409175 -4.588346 -22.59375 -5.92578125 C-25.90766839 -6.97088166 -29.00822379 -8.22792115 -32.1875 -9.625 C-36.62170537 -11.53790918 -40.7856055 -12.78619564 -45.55078125 -13.54296875 C-48 -14 -48 -14 -51.3046875 -14.953125 C-55.11256911 -16.03189062 -58.92506148 -16.84429288 -62.8125 -17.5625 C-63.46025391 -17.68818359 -64.10800781 -17.81386719 -64.77539062 -17.94335938 C-74.57138736 -19.77591116 -84.29726759 -20.20455373 -94.25 -20.25 C-95.3946875 -20.270625 -96.539375 -20.29125 -97.71875 -20.3125 C-105.77351889 -20.35350834 -105.77351889 -20.35350834 -113 -17 Z " fill="#8898BA" transform="translate(326,65)"/>
<path d="M0 0 C1.8848288 0.33165406 3.77610013 0.62623611 5.66796875 0.91503906 C15.11630341 2.41356526 15.11630341 2.41356526 19.13671875 5.37597656 C20.35158714 9.93899451 19.98028578 13.53404657 19.06281567 18.12415791 C18.87043806 19.10912891 18.87043806 19.10912891 18.67417404 20.11399832 C18.24185499 22.31373119 17.79453259 24.51013561 17.34721375 26.7068634 C17.03099505 28.29919921 16.71570018 29.89171871 16.40125018 31.48440474 C15.53445558 35.86046419 14.65446491 40.23378078 13.77229226 44.60676229 C12.8232519 49.32299745 11.8863824 54.04165118 10.94796753 58.76000977 C9.10787847 68.00169343 7.25639581 77.2410592 5.4009188 86.4796643 C3.89390225 93.98446448 2.39114862 101.49010656 0.89145851 108.99637413 C0.67819765 110.06378655 0.46493679 111.13119896 0.24521348 112.23095721 C-0.18795759 114.39918487 -0.62111662 116.56741495 -1.05426373 118.7356474 C-5.11750814 139.07289861 -9.19342405 159.40759403 -13.27386173 179.74140158 C-16.77823319 197.20590504 -20.27262175 214.67238094 -23.75952148 232.14038086 C-27.80588342 252.41101827 -31.85773419 272.68054446 -35.91889638 292.94822234 C-36.35146006 295.10703325 -36.78401919 297.26584508 -37.21657372 299.42465782 C-37.42942377 300.48692964 -37.64227382 301.54920145 -37.86157388 302.64366332 C-39.36450774 310.14623349 -40.86355171 317.6495749 -42.36116982 325.15320778 C-44.18458136 334.28848667 -46.0141925 343.42249755 -47.85183922 352.55492399 C-48.79008338 357.21842145 -49.72550399 361.88243946 -50.65350533 366.54798698 C-51.50173991 370.81207474 -52.35784392 375.0745005 -53.22047558 379.33569833 C-53.5324485 380.88404496 -53.84145337 382.43299294 -54.14731459 383.98255847 C-54.56092275 386.07572838 -54.98494857 388.16650939 -55.41185474 390.25700092 C-55.6455451 391.42290738 -55.87923545 392.58881384 -56.12000734 393.7900508 C-56.36528773 394.6434063 -56.61056812 395.4967618 -56.86328125 396.37597656 C-57.52328125 396.70597656 -58.18328125 397.03597656 -58.86328125 397.37597656 C-58.95480306 348.19363606 -59.02530284 299.01130415 -59.06754257 249.82889527 C-59.0725455 244.02468329 -59.07772277 238.22047149 -59.08300781 232.41625977 C-59.08405705 231.26072802 -59.0851063 230.10519628 -59.08618733 228.91464842 C-59.10360055 210.19552397 -59.13514331 191.47644857 -59.17189243 172.75735324 C-59.20927631 153.55502178 -59.2315117 134.35271604 -59.23963523 115.15034968 C-59.24512829 103.29799142 -59.26248818 91.4457718 -59.29494712 79.59345622 C-59.31606347 71.46988102 -59.32248782 63.34637767 -59.31728676 55.222777 C-59.31472051 50.53332261 -59.31870091 45.84411077 -59.34010315 41.15469933 C-59.35955272 36.86183959 -59.36056169 32.56938578 -59.34687683 28.27650744 C-59.34518521 26.72322216 -59.35027303 25.16991166 -59.36281398 23.61667608 C-59.47236017 9.21187073 -59.47236017 9.21187073 -54.86328125 3.37597656 C-53.046875 1.63378906 -53.046875 1.63378906 -51.30078125 0.50097656 C-50.72199219 0.11167969 -50.14320313 -0.27761719 -49.546875 -0.67871094 C-36.94159468 -7.75638573 -13.6679347 -2.42107889 0 0 Z " fill="#103075" transform="translate(263.86328125,47.6240234375)"/>
<path d="M0 0 C10.45273159 7.63738268 20.22667714 15.83449074 29.375 25 C30.28040527 25.9070166 31.18581055 26.8140332 32.11865234 27.74853516 C37.63852217 33.36871262 42.83415484 39.11985733 47.625 45.375 C48.13853027 46.0453125 48.65206055 46.715625 49.18115234 47.40625 C52.13686733 51.4217143 54.3504836 55.28215238 56 60 C55.25 62.75 55.25 62.75 54 65 C53.67 65.99 53.34 66.98 53 68 C52.34 68 51.68 68 51 68 C51 68.99 51 69.98 51 71 C50.34 71 49.68 71 49 71 C49 71.99 49 72.98 49 74 C48.34 74 47.68 74 47 74 C47 74.99 47 75.98 47 77 C46.34 77 45.68 77 45 77 C45 77.99 45 78.98 45 80 C44.34 80 43.68 80 43 80 C42.67 81.32 42.34 82.64 42 84 C41.34 84 40.68 84 40 84 C39.68482422 84.96679688 39.68482422 84.96679688 39.36328125 85.953125 C37.45287357 90.22280406 34.8303826 93.90232086 32.1875 97.75 C28.59991339 102.98282102 25.27234112 108.22357621 22.24389648 113.79931641 C20.18265051 117.44604285 17.82412547 120.87324361 15.4375 124.3125 C14.96892578 125.00150391 14.50035156 125.69050781 14.01757812 126.40039062 C13.55673828 127.06876953 13.09589844 127.73714844 12.62109375 128.42578125 C12.2130249 129.01786377 11.80495605 129.60994629 11.38452148 130.2199707 C10 132 10 132 8.04760742 133.92285156 C5.91521911 136.08600403 4.30391338 138.28538752 2.6171875 140.80859375 C2.00746094 141.72060547 1.39773438 142.63261719 0.76953125 143.57226562 C0.14433594 144.51779297 -0.48085938 145.46332031 -1.125 146.4375 C-1.75792969 147.37916016 -2.39085937 148.32082031 -3.04296875 149.29101562 C-3.65011719 150.20431641 -4.25726563 151.11761719 -4.8828125 152.05859375 C-5.43340332 152.88673584 -5.98399414 153.71487793 -6.55126953 154.56811523 C-7.99059262 156.98420848 -9.03141989 159.36415814 -10 162 C-10.66 162 -11.32 162 -12 162 C-12 162.99 -12 163.98 -12 165 C-12.66 165 -13.32 165 -14 165 C-14 165.99 -14 166.98 -14 168 C-14.66 168 -15.32 168 -16 168 C-16 168.99 -16 169.98 -16 171 C-16.66 171 -17.32 171 -18 171 C-18 171.99 -18 172.98 -18 174 C-18.66 174 -19.32 174 -20 174 C-20 174.99 -20 175.98 -20 177 C-20.66 177 -21.32 177 -22 177 C-22 177.99 -22 178.98 -22 180 C-22.66 180 -23.32 180 -24 180 C-24 180.99 -24 181.98 -24 183 C-25.30121418 184.36469674 -26.6402983 185.69356713 -28 187 C-29.20855518 188.6714276 -30.37176862 190.37625828 -31.49609375 192.10546875 C-32.13740234 193.08966797 -32.77871094 194.07386719 -33.43945312 195.08789062 C-34.09880859 196.11076172 -34.75816406 197.13363281 -35.4375 198.1875 C-36.42073242 199.69280273 -36.42073242 199.69280273 -37.42382812 201.22851562 C-40.75066457 206.35724944 -43.8864735 211.5191559 -46.80444336 216.8894043 C-48.85163655 220.50345067 -51.19601451 223.9022664 -53.5625 227.3125 C-54.26536133 228.34600586 -54.26536133 228.34600586 -54.98242188 229.40039062 C-56.84722086 232.10500117 -58.60859767 234.61562885 -60.95703125 236.921875 C-64.19927577 240.2199134 -66.58326214 244.08778754 -69.125 247.9375 C-69.66253906 248.73607422 -70.20007813 249.53464844 -70.75390625 250.35742188 C-71.27082031 251.13537109 -71.78773438 251.91332031 -72.3203125 252.71484375 C-72.78711426 253.41730225 -73.25391602 254.11976074 -73.73486328 254.84350586 C-75.09253018 257.15772271 -76.06353976 259.48913314 -77 262 C-77.66 262 -78.32 262 -79 262 C-79 262.99 -79 263.98 -79 265 C-79.66 265 -80.32 265 -81 265 C-81 265.99 -81 266.98 -81 268 C-81.66 268 -82.32 268 -83 268 C-83 268.99 -83 269.98 -83 271 C-83.66 271 -84.32 271 -85 271 C-85 271.99 -85 272.98 -85 274 C-85.66 274 -86.32 274 -87 274 C-87 274.99 -87 275.98 -87 277 C-87.66 277 -88.32 277 -89 277 C-89 277.99 -89 278.98 -89 280 C-89.66 280 -90.32 280 -91 280 C-91 280.99 -91 281.98 -91 283 C-91.66 283 -92.32 283 -93 283 C-93.33 284.32 -93.66 285.64 -94 287 C-94.66 287 -95.32 287 -96 287 C-96.21011719 287.64453125 -96.42023438 288.2890625 -96.63671875 288.953125 C-98.54712643 293.22280406 -101.1696174 296.90232086 -103.8125 300.75 C-106.88589625 305.23282766 -109.88569995 309.68231816 -112.4765625 314.46484375 C-115.19355866 319.46716888 -118.33455307 324.12844813 -121.5625 328.8125 C-122.40844727 330.06063477 -122.40844727 330.06063477 -123.27148438 331.33398438 C-125.95754492 335.2515487 -128.61412061 338.66239181 -132 342 C-133.80500433 344.41601851 -135.46613762 346.91967178 -137.125 349.4375 C-137.56714844 350.09298828 -138.00929687 350.74847656 -138.46484375 351.42382812 C-140.75078616 354.86655408 -142.55455598 358.10731909 -144 362 C-144.9793879 363.02019573 -145.97895449 364.02149805 -147 365 C-147.33 365.70125 -147.66 366.4025 -148 367.125 C-149 369 -149 369 -152 370 C-151.67 368.35 -151.34 366.7 -151 365 C-150.34 365 -149.68 365 -149 365 C-148.87109375 364.26910156 -148.7421875 363.53820312 -148.609375 362.78515625 C-148.03646146 360.16664759 -147.27075671 357.90990661 -146.25 355.4375 C-145.89292969 354.56738281 -145.53585938 353.69726562 -145.16796875 352.80078125 C-144.58982422 351.41439453 -144.58982422 351.41439453 -144 350 C-143.40638672 348.56720703 -143.40638672 348.56720703 -142.80078125 347.10546875 C-141.53889529 344.06818487 -140.26992723 341.0339295 -139 338 C-138.16629785 336.00015371 -137.3329625 334.00015447 -136.5 332 C-136.09007812 331.01644531 -135.68015625 330.03289062 -135.2578125 329.01953125 C-134.39770253 326.95473309 -133.53836339 324.88961371 -132.6796875 322.82421875 C-130.95024319 318.66630325 -129.22003771 314.51048749 -127.4375 310.375 C-126.29743465 307.69832483 -125.20014272 305.01534884 -124.125 302.3125 C-121.81755704 296.5131852 -119.40987788 290.75733742 -117 285 C-116.16629785 283.00015371 -115.3329625 281.00015447 -114.5 279 C-9.5 27 -9.5 27 -8.26171875 24.03125 C-7.3863931 21.92830044 -6.51421597 19.82403866 -5.64453125 17.71875 C-5.20496094 16.6565625 -4.76539063 15.594375 -4.3125 14.5 C-3.91675781 13.5409375 -3.52101563 12.581875 -3.11328125 11.59375 C-2 9 -2 9 -0.85546875 6.96875 C0.19832514 4.5435805 0.14534728 2.61625112 0 0 Z " fill="#405991" transform="translate(357,88)"/>
<path d="M0 0 C2.4213684 3.92031074 2.86419847 8.15439233 3.5625 12.625 C3.68818359 13.38167969 3.81386719 14.13835937 3.94335938 14.91796875 C4.32429586 17.27538719 4.67095354 19.63479657 5 22 C5.10151367 22.72533936 5.20302734 23.45067871 5.30761719 24.19799805 C6.22403812 31.84652543 6.15129804 39.52297025 6.13037109 47.21362305 C6.1250032 49.5611006 6.13034841 51.90838756 6.13671875 54.25585938 C6.13962323 61.56381072 6.04617353 68.75151197 5 76 C4.34 76 3.68 76 3 76 C3 77.98 3 79.96 3 82 C2.34 82 1.68 82 1 82 C0.67 82.99 0.34 83.98 0 85 C-1.50131226 86.26657104 -1.50131226 86.26657104 -3.47021484 87.54248047 C-4.21399384 88.03042084 -4.95777283 88.51836121 -5.72409058 89.02108765 C-6.54475006 89.5478006 -7.36540955 90.07451355 -8.2109375 90.6171875 C-9.06857697 91.17733551 -9.92621643 91.73748352 -10.80984497 92.31460571 C-12.67688638 93.53310006 -14.54628847 94.74798297 -16.41772461 95.9597168 C-21.47450774 99.23474889 -26.51361426 102.53679646 -31.5546875 105.8359375 C-33.11464447 106.85545502 -33.11464447 106.85545502 -34.70611572 107.89556885 C-45.04156965 114.65970798 -55.27610774 121.56889683 -65.5 128.5 C-80.84261616 138.89082412 -96.27107135 149.14164458 -111.76025391 159.3125 C-126.29590998 168.86060748 -140.73897661 178.53754775 -155.13998413 188.287323 C-173.88933252 200.97637249 -192.78107555 213.44556779 -211.70942688 225.86561584 C-214.95483148 227.99544627 -218.19752766 230.128186 -221.42236328 232.2890625 C-223.44088948 233.62888364 -225.42087764 234.81766373 -227.5625 235.9375 C-230.16959817 237.37886926 -231.51742638 238.52945955 -233.6875 240.75 C-236 243 -236 243 -240 243 C-239.8125 241.1875 -239.8125 241.1875 -239 239 C-237.34216444 237.98542668 -235.67390314 236.98783909 -234 236 C-227.05445356 230.27083346 -220.69597469 223.84299142 -214.33824158 217.47868347 C-212.96053529 216.10543387 -212.96053529 216.10543387 -211.55499655 214.70444185 C-209.03474795 212.1921664 -206.51755264 209.67685198 -204.00091612 207.16095889 C-201.27546621 204.43737627 -198.54717616 201.71664096 -195.81930542 198.9954834 C-189.87305377 193.06273903 -183.93051411 187.12628609 -177.98880458 181.18899322 C-174.27759397 177.48055382 -170.56565036 173.77284872 -166.85357857 170.06527138 C-156.56852116 159.79238882 -146.28439773 149.5185733 -136.00372982 139.24129772 C-135.34755528 138.58534275 -134.69138074 137.92938777 -134.01532212 137.25355538 C-133.35764518 136.59609671 -132.69996824 135.93863805 -132.0223617 135.2612564 C-130.68979541 133.92913357 -129.35722758 132.5970123 -128.0246582 131.26489258 C-127.36366843 130.60412424 -126.70267867 129.9433559 -126.0216589 129.26256428 C-115.28429798 118.529161 -104.54018707 107.80254142 -93.79319172 97.07878562 C-82.7504189 86.05969935 -71.71325394 75.03502219 -60.68173414 64.00466996 C-54.49108067 57.81493393 -48.29802247 51.62764679 -42.09876823 45.44652367 C-36.82770128 40.19082014 -31.56175512 34.93005369 -26.30250596 29.66252329 C-23.61856384 26.97466346 -20.93222329 24.28931877 -18.23933983 21.61041451 C-15.32439138 18.71046098 -12.42111684 15.79909883 -9.51890564 12.88639832 C-8.66095821 12.03650729 -7.80301078 11.18661626 -6.91906494 10.31097096 C-6.14644367 9.53175984 -5.37382239 8.75254873 -4.57778835 7.94972515 C-3.57035742 6.94318985 -3.57035742 6.94318985 -2.54257435 5.9163205 C-0.92380558 3.90534465 -0.39808866 2.52509315 0 0 Z " fill="#7083AC" transform="translate(444,220)"/>
<path d="M0 0 C0.64098633 0.31018066 1.28197266 0.62036133 1.94238281 0.93994141 C22.61377934 11.10364677 41.41640452 25.09662195 58 41 C58.53125488 41.50402344 59.06250977 42.00804688 59.60986328 42.52734375 C67.37102302 49.92199787 74.31058921 57.6623616 80.70898438 66.26464844 C81.55007113 67.39521664 82.39744514 68.52114296 83.25195312 69.64160156 C112.77239684 108.35502023 127.5411277 156.20360828 127.3125 204.625 C127.31034485 205.45316223 127.3081897 206.28132446 127.30596924 207.13458252 C127.06621714 264.80119955 105.00904177 319.41454822 65 361 C64.40026367 361.62696777 63.80052734 362.25393555 63.18261719 362.89990234 C22.05331742 405.67478808 -34.19668492 430.92626359 -93.67016602 432.32714844 C-94.62463623 432.34293945 -95.57910645 432.35873047 -96.5625 432.375 C-97.45445068 432.40110352 -98.34640137 432.42720703 -99.26538086 432.45410156 C-106.37021111 432.47268496 -113.54558399 431.15059336 -118.95141602 426.22021484 C-123.66459071 420.98467505 -125.24963685 417.06352276 -125.25447559 409.93683147 C-125.25768207 409.22181958 -125.26088855 408.50680768 -125.26419219 407.77012876 C-125.2725278 405.3617831 -125.26655553 402.95368383 -125.26069641 400.54533386 C-125.26371548 398.80620306 -125.26760373 397.06707359 -125.27228898 395.32794648 C-125.28260941 390.53901128 -125.28037689 385.75015061 -125.27610838 380.96120918 C-125.27364845 375.80021656 -125.28264623 370.63924222 -125.29014587 365.47825623 C-125.30291574 355.36310806 -125.30468369 345.24798641 -125.30234561 335.13283154 C-125.3005647 326.91263595 -125.30230721 318.69244842 -125.30657005 310.4722538 C-125.30716524 309.30361438 -125.30776043 308.13497495 -125.30837366 306.93092221 C-125.30958537 304.55703447 -125.31079951 302.18314672 -125.31201603 299.80925898 C-125.32290056 277.53049087 -125.32072487 255.25173788 -125.31463119 232.97296891 C-125.30946226 212.58250865 -125.32071522 192.19209617 -125.33972941 171.80164536 C-125.35909245 150.87704078 -125.36736643 129.95245881 -125.36360615 109.0278452 C-125.36169164 97.27539042 -125.36420587 85.52297629 -125.37832069 73.77052879 C-125.390216 63.76459924 -125.39166026 53.75873538 -125.37953053 43.75280496 C-125.37362858 38.64617031 -125.37257865 33.53965592 -125.38453293 28.43302917 C-125.39534702 23.75919376 -125.39234186 19.08557963 -125.37827124 14.41175476 C-125.37561192 12.71997106 -125.3780294 11.02817026 -125.38600711 9.33640327 C-125.39609594 7.03756524 -125.38770646 4.73949899 -125.37473011 2.44069195 C-125.37478513 1.16358245 -125.37484014 -0.11352706 -125.37489682 -1.42933685 C-124.63180046 -8.50687562 -121.36014386 -14.3430148 -116 -19 C-88.450771 -38.15488315 -26.50901961 -12.85228665 0 0 Z M-113 -17 C-114.299375 -16.1646875 -114.299375 -16.1646875 -115.625 -15.3125 C-121.0602355 -10.02029702 -122.25003949 -5.10575217 -122.49219131 2.29380035 C-122.52391046 5.29625669 -122.50427121 8.29697916 -122.48101807 11.29943848 C-122.48276342 12.97276492 -122.48626767 14.64609029 -122.49137473 16.31940985 C-122.5003056 20.90771157 -122.48433708 25.49563879 -122.46426249 30.08389282 C-122.44697465 35.03540009 -122.45283513 39.98688656 -122.45587158 44.93841553 C-122.4579681 53.51399227 -122.44542734 62.08944719 -122.42292023 70.66499329 C-122.39040005 83.06374455 -122.37999318 95.46243697 -122.37496826 107.86122626 C-122.36621565 127.97783006 -122.33960095 148.09436894 -122.30175781 168.2109375 C-122.26503688 187.75129878 -122.2367255 207.29164243 -122.21972656 226.83203125 C-122.21867567 228.03667568 -122.21762477 229.2413201 -122.21654204 230.4824689 C-122.21132185 236.5258685 -122.20626703 242.56926823 -122.20129442 248.61266804 C-122.15983343 298.74182355 -122.08938588 348.87090861 -122 399 C-116.99602812 399.16962617 -113.59648058 399.12684511 -109 397 C-107.36443125 396.59359114 -105.71734456 396.23159016 -104.06321716 395.90892029 C-102.60849754 395.62139641 -102.60849754 395.62139641 -101.12438965 395.32806396 C-100.0707019 395.1249762 -99.01701416 394.92188843 -97.93139648 394.71264648 C-96.25141319 394.38276482 -96.25141319 394.38276482 -94.53749084 394.04621887 C-90.81623094 393.3166379 -87.09366653 392.59394341 -83.37109375 391.87109375 C-80.74828207 391.35790719 -78.12555699 390.84429725 -75.50294495 390.33009338 C-69.26638655 389.10817474 -63.02892419 387.89094124 -56.79107004 386.67565638 C-49.19024611 385.19476341 -41.59015058 383.71015289 -33.99023438 382.22460938 C-32.98161752 382.02750803 -32.98161752 382.02750803 -31.95262456 381.82642484 C-24.57173495 380.38396629 -17.19145171 378.9384946 -9.81259155 377.48568726 C-8.83343633 377.2929198 -8.83343633 377.2929198 -7.83450019 377.09625804 C-4.59794986 376.45897644 -1.36148211 375.82127856 1.87490273 375.18315697 C9.02719092 373.77471588 16.18281193 372.38576163 23.34283161 371.01718426 C27.49218038 370.22084205 31.63847526 369.40942649 35.78410149 368.59395027 C37.67210064 368.22612826 39.56142161 367.86501702 41.45208931 367.51116753 C44.01083149 367.03158517 46.56390375 366.52871059 49.11694336 366.01977539 C49.85194754 365.88824884 50.58695171 365.7567223 51.34422874 365.6212101 C56.29332207 364.59858424 58.74308334 362.8067458 62 359 C62.5878125 358.45859375 63.175625 357.9171875 63.78125 357.359375 C79.74745715 342.40919922 92.67578696 321.69038684 102 302 C102 301.34 102 300.68 102 300 C102.66 300 103.32 300 104 300 C104.45375 298.989375 104.9075 297.97875 105.375 296.9375 C105.63023437 296.36902344 105.88546875 295.80054688 106.1484375 295.21484375 C107.04694106 292.87791017 107.70519541 290.51031917 108.375 288.09985352 C109.10028487 285.66306633 109.92785432 283.27408483 110.76953125 280.875 C114.32083271 270.71042081 117.57719732 260.59028832 119.875 250.0625 C120.06553955 249.20205078 120.2560791 248.34160156 120.45239258 247.45507812 C123.37283854 233.34817497 124.38529683 219.24648977 124.3125 204.875 C124.31067719 204.11886414 124.30885437 203.36272827 124.30697632 202.5836792 C124.19841662 175.65026536 119.19396912 150.49739467 109.81542969 125.27539062 C108.68774668 122.12868235 107.70405338 118.93937007 106.73291016 115.74121094 C106.13703966 113.79732107 106.13703966 113.79732107 104 113 C103.32899053 111.35910347 102.73756228 109.68529719 102.1875 108 C100.29682622 102.60601892 97.97074368 97.87102385 95 93 C94.49726563 92.17113281 93.99453125 91.34226562 93.4765625 90.48828125 C72.36453762 56.54054171 42.48569589 24.58866464 6 7 C5.34 7 4.68 7 4 7 C4 6.34 4 5.68 4 5 C3.35933594 4.75765625 2.71867187 4.5153125 2.05859375 4.265625 C-1.93042895 2.71995301 -5.64068688 1.21694377 -9.3125 -1 C-13.44743262 -3.49454855 -17.98409175 -4.588346 -22.59375 -5.92578125 C-25.90766839 -6.97088166 -29.00822379 -8.22792115 -32.1875 -9.625 C-36.62170537 -11.53790918 -40.7856055 -12.78619564 -45.55078125 -13.54296875 C-48 -14 -48 -14 -51.3046875 -14.953125 C-55.11256911 -16.03189062 -58.92506148 -16.84429288 -62.8125 -17.5625 C-63.46025391 -17.68818359 -64.10800781 -17.81386719 -64.77539062 -17.94335938 C-74.57138736 -19.77591116 -84.29726759 -20.20455373 -94.25 -20.25 C-95.3946875 -20.270625 -96.539375 -20.29125 -97.71875 -20.3125 C-105.77351889 -20.35350834 -105.77351889 -20.35350834 -113 -17 Z " fill="#CBD2E0" transform="translate(326,65)"/>
<path d="M0 0 C-7.27119147 19.31855772 -21.68601649 36.45136102 -36 51 C-36.69962357 51.83462769 -37.39924713 52.66925537 -38.12007141 53.5291748 C-41.8535089 56.73226513 -44.94933392 57.32928557 -49.69995117 58.19726562 C-50.57124948 58.37242895 -51.44254778 58.54759228 -52.34024906 58.72806358 C-55.2378665 59.30581213 -58.14002092 59.85596595 -61.04296875 60.40625 C-63.10024561 60.81074866 -65.15718563 61.2169638 -67.21380615 61.62478638 C-72.72762931 62.71334413 -78.24574481 63.77846236 -83.76493454 64.83942413 C-89.46206947 65.93900569 -95.15477634 67.06102411 -100.84790039 68.18115234 C-111.05599364 70.18650528 -121.26733329 72.1746561 -131.48053837 74.15379524 C-145.51529692 76.87386206 -159.54471919 79.6210609 -173.57233906 82.37768173 C-177.76828536 83.20160744 -181.96545178 84.01888948 -186.1638813 84.83006477 C-189.30651824 85.43806007 -192.44805517 86.05170076 -195.58984375 86.6640625 C-197.24049835 86.97985764 -197.24049835 86.97985764 -198.92449951 87.30203247 C-199.92644348 87.49836273 -200.92838745 87.69469299 -201.96069336 87.89697266 C-202.82045273 88.06315094 -203.6802121 88.22932922 -204.56602478 88.40054321 C-207.16511682 89.04066615 -209.522837 89.99497094 -212 91 C-214.23828125 91.1953125 -214.23828125 91.1953125 -216.3125 91.125 C-217.529375 91.08375 -218.74625 91.0425 -220 91 C-219.1646875 90.5978125 -219.1646875 90.5978125 -218.3125 90.1875 C-215.95957435 89.0344521 -215.95957435 89.0344521 -213.75 87.5 C-210.90480538 85.94807566 -208.2377354 85.29958672 -205.09375 84.58984375 C-202.23507442 83.78450791 -199.79568579 82.44684151 -197.1796875 81.0625 C-194.77031959 79.88804109 -192.34380411 79.0054536 -189.8125 78.125 C-184.41371781 76.22570543 -179.30029112 73.87647837 -174.125 71.44140625 C-170.63284492 69.83064972 -167.100091 68.39201862 -163.51953125 66.9921875 C-160.70593613 65.8841981 -157.91531652 64.7278462 -155.125 63.5625 C-154.11179687 63.1396875 -153.09859375 62.716875 -152.0546875 62.28125 C-150.07880436 61.45249083 -148.10471267 60.6194419 -146.1328125 59.78125 C-140.38663252 57.35197066 -134.60297441 55.09232976 -128.75 52.9375 C-123.96787525 51.17387557 -119.34150998 49.31629241 -114.8359375 46.92578125 C-111.87259564 45.43150035 -108.78364617 44.27138902 -105.6953125 43.0625 C-102.82330395 41.93034591 -99.97351695 40.75248097 -97.125 39.5625 C-96.11179687 39.1396875 -95.09859375 38.716875 -94.0546875 38.28125 C-92.07880436 37.45249083 -90.10471267 36.6194419 -88.1328125 35.78125 C-82.38664489 33.35197589 -76.60304998 31.09210884 -70.75 28.9375 C-65.97980941 27.18011981 -61.3872756 25.3133084 -56.8984375 22.921875 C-54.589404 21.80061593 -52.23543981 20.97198756 -49.8125 20.125 C-44.41371781 18.22570543 -39.30029112 15.87647837 -34.125 13.44140625 C-30.63922961 11.83359466 -27.11316433 10.39704306 -23.5390625 9 C-17.26441182 6.52875296 -11.04578372 3.9072633 -4.875 1.1875 C-2 0 -2 0 0 0 Z " fill="#9EABC7" transform="translate(424,373)"/>
<path d="M0 0 C0.64098633 0.31018066 1.28197266 0.62036133 1.94238281 0.93994141 C22.61377934 11.10364677 41.41640452 25.09662195 58 41 C58.53125488 41.50402344 59.06250977 42.00804688 59.60986328 42.52734375 C67.37102302 49.92199787 74.31058921 57.6623616 80.70898438 66.26464844 C81.55007113 67.39521664 82.39744514 68.52114296 83.25195312 69.64160156 C112.77239684 108.35502023 127.5411277 156.20360828 127.3125 204.625 C127.31034485 205.45316223 127.3081897 206.28132446 127.30596924 207.13458252 C127.06621714 264.80119955 105.00904177 319.41454822 65 361 C64.40026367 361.62696777 63.80052734 362.25393555 63.18261719 362.89990234 C22.05331742 405.67478808 -34.19668492 430.92626359 -93.67016602 432.32714844 C-94.62463623 432.34293945 -95.57910645 432.35873047 -96.5625 432.375 C-97.45445068 432.40110352 -98.34640137 432.42720703 -99.26538086 432.45410156 C-106.37021111 432.47268496 -113.54558399 431.15059336 -118.95141602 426.22021484 C-123.66459071 420.98467505 -125.24963685 417.06352276 -125.25447559 409.93683147 C-125.25768207 409.22181958 -125.26088855 408.50680768 -125.26419219 407.77012876 C-125.2725278 405.3617831 -125.26655553 402.95368383 -125.26069641 400.54533386 C-125.26371548 398.80620306 -125.26760373 397.06707359 -125.27228898 395.32794648 C-125.28260941 390.53901128 -125.28037689 385.75015061 -125.27610838 380.96120918 C-125.27364845 375.80021656 -125.28264623 370.63924222 -125.29014587 365.47825623 C-125.30291574 355.36310806 -125.30468369 345.24798641 -125.30234561 335.13283154 C-125.3005647 326.91263595 -125.30230721 318.69244842 -125.30657005 310.4722538 C-125.30716524 309.30361438 -125.30776043 308.13497495 -125.30837366 306.93092221 C-125.30958537 304.55703447 -125.31079951 302.18314672 -125.31201603 299.80925898 C-125.32290056 277.53049087 -125.32072487 255.25173788 -125.31463119 232.97296891 C-125.30946226 212.58250865 -125.32071522 192.19209617 -125.33972941 171.80164536 C-125.35909245 150.87704078 -125.36736643 129.95245881 -125.36360615 109.0278452 C-125.36169164 97.27539042 -125.36420587 85.52297629 -125.37832069 73.77052879 C-125.390216 63.76459924 -125.39166026 53.75873538 -125.37953053 43.75280496 C-125.37362858 38.64617031 -125.37257865 33.53965592 -125.38453293 28.43302917 C-125.39534702 23.75919376 -125.39234186 19.08557963 -125.37827124 14.41175476 C-125.37561192 12.71997106 -125.3780294 11.02817026 -125.38600711 9.33640327 C-125.39609594 7.03756524 -125.38770646 4.73949899 -125.37473011 2.44069195 C-125.37478513 1.16358245 -125.37484014 -0.11352706 -125.37489682 -1.42933685 C-124.63180046 -8.50687562 -121.36014386 -14.3430148 -116 -19 C-88.450771 -38.15488315 -26.50901961 -12.85228665 0 0 Z M-113 -17 C-113.845625 -16.484375 -114.69125 -15.96875 -115.5625 -15.4375 C-122.61480918 -8.38519082 -123.63805669 -0.38805286 -123.66871703 9.16304308 C-123.65790955 10.7663371 -123.64662639 12.36962796 -123.63491821 13.97291565 C-123.64068516 15.69518209 -123.64863011 17.41744236 -123.65855443 19.13968986 C-123.67937215 23.85434587 -123.66913574 28.56849399 -123.65362334 33.28315151 C-123.64229305 38.37457284 -123.65978082 43.46590791 -123.67352295 48.55731201 C-123.69574145 58.52397125 -123.69096045 68.4904421 -123.67645974 78.45710868 C-123.6651627 86.5574957 -123.66363863 94.65782995 -123.66907883 102.75822258 C-123.66984499 103.91159481 -123.67061116 105.06496704 -123.67140054 106.25328995 C-123.67299918 108.59641204 -123.67462025 110.93953412 -123.6762635 113.28265619 C-123.69051677 135.24727466 -123.67413451 157.21178875 -123.64726166 179.1763901 C-123.62492033 198.02055907 -123.62880599 216.86457404 -123.65185547 235.70874023 C-123.67861575 257.59690748 -123.68914664 279.48498328 -123.67379415 301.37316459 C-123.67220142 303.70730744 -123.67062956 306.04145031 -123.66907883 308.37559319 C-123.66830745 309.52401088 -123.66753607 310.67242858 -123.66674132 311.85564681 C-123.66242524 319.94624764 -123.66970885 328.03679044 -123.68147659 336.12738228 C-123.69550249 345.98713629 -123.69169949 355.84669129 -123.66507287 365.70642252 C-123.6519365 370.73645525 -123.64677947 375.7661562 -123.66331863 380.79618645 C-123.67823451 385.40219323 -123.67000293 390.00756117 -123.64343087 394.61351012 C-123.6378529 396.27822606 -123.64067104 397.94299614 -123.65280981 399.60767717 C-123.72179484 409.85543197 -123.11063137 417.60544466 -115.75 425.375 C-96.63427063 436.67065827 -65.18367362 428.52751161 -44.9140625 423.62890625 C-11.91157923 414.94668023 17.63027381 398.39430615 44 377 C44.82975342 376.34862061 44.82975342 376.34862061 45.67626953 375.68408203 C47.15511729 374.50160867 48.5821552 373.25497014 50 372 C50 371.34 50 370.68 50 370 C50.598125 369.731875 51.19625 369.46375 51.8125 369.1875 C53.99847854 368.00082594 55.41332594 366.90400887 57 365 C57 364.34 57 363.68 57 363 C57.59554687 362.73960937 58.19109375 362.47921875 58.8046875 362.2109375 C61.15893043 360.91233375 62.40351697 359.67520844 64.125 357.625 C64.73085938 356.90570313 65.33671875 356.18640625 65.9609375 355.4453125 C66.63382813 354.63835937 67.30671875 353.83140625 68 353 C68.75539063 352.13117188 69.51078125 351.26234375 70.2890625 350.3671875 C90.98713954 327.22113783 90.98713954 327.22113783 102 300 C102.66 300 103.32 300 104 300 C104.45375 298.989375 104.9075 297.97875 105.375 296.9375 C105.63023437 296.36902344 105.88546875 295.80054688 106.1484375 295.21484375 C107.04694106 292.87791017 107.70519541 290.51031917 108.375 288.09985352 C109.10028487 285.66306633 109.92785432 283.27408483 110.76953125 280.875 C114.32083271 270.71042081 117.57719732 260.59028832 119.875 250.0625 C120.06553955 249.20205078 120.2560791 248.34160156 120.45239258 247.45507812 C123.37283854 233.34817497 124.38529683 219.24648977 124.3125 204.875 C124.31067719 204.11886414 124.30885437 203.36272827 124.30697632 202.5836792 C124.19841662 175.65026536 119.19396912 150.49739467 109.81542969 125.27539062 C108.68774668 122.12868235 107.70405338 118.93937007 106.73291016 115.74121094 C106.13703966 113.79732107 106.13703966 113.79732107 104 113 C103.32899053 111.35910347 102.73756228 109.68529719 102.1875 108 C100.29682622 102.60601892 97.97074368 97.87102385 95 93 C94.49726563 92.17113281 93.99453125 91.34226562 93.4765625 90.48828125 C72.36453762 56.54054171 42.48569589 24.58866464 6 7 C5.34 7 4.68 7 4 7 C4 6.34 4 5.68 4 5 C3.35933594 4.75765625 2.71867187 4.5153125 2.05859375 4.265625 C-1.93042895 2.71995301 -5.64068688 1.21694377 -9.3125 -1 C-13.44743262 -3.49454855 -17.98409175 -4.588346 -22.59375 -5.92578125 C-25.90766839 -6.97088166 -29.00822379 -8.22792115 -32.1875 -9.625 C-36.62170537 -11.53790918 -40.7856055 -12.78619564 -45.55078125 -13.54296875 C-48 -14 -48 -14 -51.3046875 -14.953125 C-55.11256911 -16.03189062 -58.92506148 -16.84429288 -62.8125 -17.5625 C-63.46025391 -17.68818359 -64.10800781 -17.81386719 -64.77539062 -17.94335938 C-74.57138736 -19.77591116 -84.29726759 -20.20455373 -94.25 -20.25 C-95.3946875 -20.270625 -96.539375 -20.29125 -97.71875 -20.3125 C-105.77170482 -20.35043474 -105.77170482 -20.35043474 -113 -17 Z " fill="#F5F6F7" transform="translate(326,65)"/>
<path d="M0 0 C-1.62339805 1.70884005 -3.29319053 3.37446717 -5 5 C-5.66 5 -6.32 5 -7 5 C-7.33 5.99 -7.66 6.98 -8 8 C-13.91710491 13.71097625 -20.87000649 18.43336302 -27.5625 23.1875 C-28.24570312 23.67404053 -28.92890625 24.16058105 -29.6328125 24.66186523 C-30.97745688 25.60480668 -32.33198288 26.53385326 -33.69716072 27.44681358 C-35.19795454 28.45904774 -36.68015707 29.49958585 -38.13912773 30.57122231 C-45.1876956 35.38185534 -50.95680352 35.83096731 -59.34423828 35.68115234 C-60.64292343 35.6820285 -61.94160858 35.68290466 -63.27964783 35.68380737 C-66.81044531 35.68551589 -70.33999827 35.65045618 -73.87050867 35.60836363 C-77.57131144 35.57063541 -81.2721486 35.56731401 -84.97311401 35.56021118 C-91.96770714 35.54162664 -98.96173178 35.49247767 -105.95607555 35.43211424 C-113.92463628 35.36484857 -121.89322539 35.33200997 -129.86199975 35.30194163 C-146.24166495 35.23937172 -162.62075972 35.13396303 -179 35 C-179 34.67 -179 34.34 -179 34 C-178.40063251 33.88125834 -177.80126503 33.76251667 -177.18373489 33.64017677 C-171.87346132 32.58373502 -166.57027946 31.49817715 -161.271595 30.38515663 C-136.91333992 25.26919544 -112.49277603 20.45190898 -88.08374405 15.58529091 C-78.96338393 13.76676534 -69.84422007 11.94245347 -60.72647405 10.11086524 C-54.2634784 8.81307398 -47.79919276 7.52184412 -41.33391261 6.23548257 C-37.48904939 5.47029796 -33.64482254 4.70219951 -29.80197906 3.92692947 C-26.20811369 3.20201398 -22.61272753 2.48520499 -19.01599312 1.77466583 C-17.0692089 1.38789304 -15.12413523 0.99254142 -13.17912292 0.59695435 C-12.02191238 0.3699585 -10.86470184 0.14296265 -9.67242432 -0.09091187 C-8.16503881 -0.39227586 -8.16503881 -0.39227586 -6.62720108 -0.69972801 C-4.0621082 -0.99290144 -2.42386195 -0.82021983 0 0 Z " fill="#B7C0D5" transform="translate(383,430)"/>
<path d="M0 0 C0.64098633 0.31018066 1.28197266 0.62036133 1.94238281 0.93994141 C22.61377934 11.10364677 41.41640452 25.09662195 58 41 C58.79688232 41.75603516 58.79688232 41.75603516 59.60986328 42.52734375 C67.37102302 49.92199787 74.31058921 57.6623616 80.70898438 66.26464844 C81.55007113 67.39521664 82.39744514 68.52114296 83.25195312 69.64160156 C105.39172621 98.67593156 119.14009879 133.08197934 125 169 C125.18248291 170.02101807 125.36496582 171.04203613 125.55297852 172.09399414 C126.11627137 177.01596158 126.01673113 181.80069889 125.87890625 186.74609375 C125.85529526 187.75720718 125.83168427 188.76832062 125.80735779 189.81007385 C125.73117375 193.01937506 125.64695615 196.2284069 125.5625 199.4375 C125.50923395 201.62173189 125.45649391 203.80597668 125.40429688 205.99023438 C125.27562037 211.32698726 125.1403587 216.66354226 125 222 C124.67 222 124.34 222 124 222 C123.97812622 220.59028931 123.97812622 220.59028931 123.95581055 219.15209961 C123.42287463 187.24585868 120.65955013 157.49745339 109.55078125 127.3203125 C106 117.61612794 106 117.61612794 106 114 C105.01 113.67 104.02 113.34 103 113 C102.0078125 110.8125 102.0078125 110.8125 101.125 108 C99.27472038 102.58182271 96.97535812 97.87858999 94 93 C93.49726563 92.17113281 92.99453125 91.34226562 92.4765625 90.48828125 C70.78682631 55.61159277 40.94018496 25.55145853 4 7 C4 6.34 4 5.68 4 5 C3.11441406 4.89300781 2.22882813 4.78601563 1.31640625 4.67578125 C-2.07077499 3.98557824 -4.13400356 2.9753765 -7.0625 1.1875 C-12.15063739 -1.70818795 -17.11915622 -3.40600218 -22.734375 -4.99609375 C-26.00895582 -6.00275316 -29.05323642 -7.24672768 -32.1875 -8.625 C-36.62170537 -10.53790918 -40.7856055 -11.78619564 -45.55078125 -12.54296875 C-48 -13 -48 -13 -51.3046875 -13.953125 C-55.11228922 -15.03181132 -58.92461565 -15.84742719 -62.8125 -16.5625 C-63.50666016 -16.69180908 -64.20082031 -16.82111816 -64.91601562 -16.9543457 C-70.25523425 -17.92291565 -75.58413248 -18.62245154 -81 -19 C-81 -19.33 -81 -19.66 -81 -20 C-55.11051791 -25.41872881 -22.842978 -11.07489095 0 0 Z " fill="#EAEDF2" transform="translate(326,65)"/>
<path d="M0 0 C0.74072754 0.18498047 1.48145508 0.36996094 2.24462891 0.56054688 C10.20630809 2.59560353 10.20630809 2.59560353 13 4 C13.82421875 6.12109375 13.82421875 6.12109375 14 8 C15.32 8.33 16.64 8.66 18 9 C17.34 9.33 16.68 9.66 16 10 C13.61765191 9.12746501 11.32335599 8.19701294 9 7.1875 C3.82101839 5.01846138 -1.07435149 3.27129434 -6.65625 2.421875 C-9 2 -9 2 -12.29296875 1.05078125 C-16.10455496 -0.02963676 -19.92041741 -0.84665503 -23.8125 -1.5625 C-24.50666016 -1.69180908 -25.20082031 -1.82111816 -25.91601562 -1.9543457 C-31.25523425 -2.92291565 -36.58413248 -3.62245154 -42 -4 C-42 -4.33 -42 -4.66 -42 -5 C-27.9836196 -7.93366101 -13.54265269 -3.41858383 0 0 Z " fill="#E2E5EC" transform="translate(287,50)"/>
<path d="M0 0 C0.495 0.99 0.495 0.99 1 2 C0.03175293 2.01458252 -0.93649414 2.02916504 -1.93408203 2.04418945 C-5.54626324 2.10241567 -9.15783683 2.17964536 -12.76953125 2.26245117 C-14.32900081 2.29558667 -15.88858702 2.3236537 -17.44824219 2.34643555 C-19.69776852 2.38019281 -21.94623687 2.43251504 -24.1953125 2.48828125 C-24.8861795 2.49467117 -25.57704651 2.5010611 -26.28884888 2.50764465 C-32.27924581 2.68724052 -36.18456708 4.4378833 -40.6875 8.3125 C-43.05877149 11.06830201 -44.53543205 13.68545149 -46 17 C-46.99 16.67 -47.98 16.34 -49 16 C-48.16717967 10.08800385 -45.38861288 6.89286217 -41 3 C-31.12526455 -3.97840557 -11.34268696 -2.60807986 0 0 Z " fill="#EEF0F4" transform="translate(251,43)"/>
<path d="M0 0 C0 0.99 0 1.98 0 3 C1.32 3.33 2.64 3.66 4 4 C3.01 4.495 3.01 4.495 2 5 C-0.38236777 4.12745781 -2.67688681 3.19764802 -5 2.1875 C-10.37938864 -0.08009137 -15.42362553 -1.77159166 -21.2421875 -2.578125 C-21.82226562 -2.71734375 -22.40234375 -2.8565625 -23 -3 C-23.33 -3.66 -23.66 -4.32 -24 -5 C-16.0053277 -7.53712203 -7.27503964 -3.1886344 0 0 Z " fill="#EEEFF3" transform="translate(301,55)"/>
<path d="M0 0 C4.96916636 0.51405169 9.29026351 1.23384882 14 3 C14 3.33 14 3.66 14 4 C12.41705218 4.05437607 10.83355744 4.09296271 9.25 4.125 C8.36828125 4.14820313 7.4865625 4.17140625 6.578125 4.1953125 C3.8864142 3.99139502 2.30095026 3.36551721 0 2 C0 1.34 0 0.68 0 0 Z " fill="#F2F3F6" transform="translate(267,46)"/>
<path d="M0 0 C2.97 0.99 5.94 1.98 9 3 C9 3.66 9 4.32 9 5 C5.37471432 5.20140476 3.13498292 4.85776765 0 3 C0 2.01 0 1.02 0 0 Z " fill="#F3F4F7" transform="translate(301,55)"/>
<path d="M0 0 C0.99 0.33 1.98 0.66 3 1 C-0.01887244 4.48331435 -2.56909529 5.79157144 -7 7 C-4.78071806 4.09197539 -3.07030857 2.04687238 0 0 Z " fill="#8192B6" transform="translate(217,454)"/>
<path d="M0 0 C0.33 1.32 0.66 2.64 1 4 C-1.35171131 3.40138258 -3.6859378 2.73075648 -6 2 C-6.33 1.34 -6.66 0.68 -7 0 C-4.3333581 -1.33332095 -2.83319697 -0.67102033 0 0 Z " fill="#E0E4EB" transform="translate(315,60)"/>
<path d="M0 0 C0.99 0.33 1.98 0.66 3 1 C3 1.99 3 2.98 3 4 C4.32 4.33 5.64 4.66 7 5 C5 6 5 6 2.6171875 5.22265625 C1.71226562 4.83980469 0.80734375 4.45695312 -0.125 4.0625 C-1.49011719 3.49208984 -1.49011719 3.49208984 -2.8828125 2.91015625 C-3.58148438 2.60980469 -4.28015625 2.30945312 -5 2 C-4.360625 1.855625 -3.72125 1.71125 -3.0625 1.5625 C-1.02454854 1.18992819 -1.02454854 1.18992819 0 0 Z " fill="#B9C2D5" transform="translate(298,54)"/>
<path d="M0 0 C-0.33 0.66 -0.66 1.32 -1 2 C-2.98 2 -4.96 2 -7 2 C-7.33 1.34 -7.66 0.68 -8 0 C-4.94736336 -0.98120464 -3.05263664 -0.98120464 0 0 Z " fill="#DDE1EA" transform="translate(285,50)"/>
</svg>
